<svg width="1920" height="1348" viewBox="0 0 1920 1348" fill="none" xmlns="http://www.w3.org/2000/svg">
<g clip-path="url(#clip0_348_1195)">
<rect width="1920" height="1348" fill="black"/>
<g filter="url(#filter0_f_348_1195)">
<circle cx="960" cy="1110" r="960" fill="#8257E5"/>
</g>
<rect x="240" y="570" width="1440" height="900" rx="20" fill="#282828"/>
<g clip-path="url(#clip1_348_1195)">
<rect width="1440" height="900" transform="translate(240 570)" fill="#09090A"/>
<g opacity="0.5">
<rect x="320" y="758" width="1280" height="124" rx="8" fill="#27272A"/>
<rect x="320" y="914" width="402.286" height="310" rx="8" fill="#27272A"/>
<rect x="320" y="1256" width="402.286" height="310" rx="8" fill="#27272A"/>
<rect x="758.857" y="1256" width="402.286" height="310" rx="8" fill="#27272A"/>
<rect x="758.857" y="914" width="402.286" height="310" rx="8" fill="#27272A"/>
<rect x="1197.71" y="914" width="402.286" height="310" rx="8" fill="#27272A"/>
</g>
<rect width="1440" height="140" transform="translate(240 570)" fill="#27272A"/>
<rect x="320" y="608" width="256" height="64" rx="9.14286" fill="#3F3F46"/>
<circle cx="1560" cy="640" r="40" fill="#3F3F46"/>
<rect x="748" y="628" width="120" height="24" rx="12" fill="#3F3F46"/>
<rect x="900" y="628" width="120" height="24" rx="12" fill="#3F3F46"/>
<rect x="1052" y="628" width="120" height="24" rx="12" fill="#3F3F46"/>
<g filter="url(#filter1_b_348_1195)">
<rect x="240" y="570" width="1440" height="900" fill="black" fill-opacity="0.5"/>
</g>
<g filter="url(#filter2_d_348_1195)">
<path d="M992 751.987C992 738.739 1002.74 728 1015.99 728H1471.74C1484.99 728 1495.73 738.739 1495.73 751.987V1099.8C1495.73 1113.05 1484.99 1123.79 1471.74 1123.79H1015.99C1002.74 1123.79 992 1113.05 992 1099.8V751.987Z" fill="#18181B"/>
<path d="M1111.79 780.987H1104.73V759.181H1112.02C1114.15 759.181 1115.99 759.617 1117.52 760.49C1119.05 761.356 1120.23 762.602 1121.04 764.228C1121.87 765.846 1122.28 767.787 1122.28 770.052C1122.28 772.323 1121.86 774.275 1121.03 775.908C1120.21 777.541 1119.02 778.797 1117.46 779.677C1115.89 780.55 1114.01 780.987 1111.79 780.987ZM1108.02 778.112H1111.61C1113.27 778.112 1114.65 777.8 1115.75 777.175C1116.85 776.543 1117.68 775.631 1118.22 774.439C1118.77 773.239 1119.04 771.777 1119.04 770.052C1119.04 768.341 1118.77 766.89 1118.22 765.697C1117.68 764.504 1116.88 763.599 1115.81 762.982C1114.73 762.364 1113.4 762.056 1111.81 762.056H1108.02V778.112ZM1133.16 781.317C1131.55 781.317 1130.17 780.973 1129 780.284C1127.84 779.589 1126.95 778.613 1126.32 777.356C1125.69 776.093 1125.38 774.613 1125.38 772.916C1125.38 771.241 1125.69 769.764 1126.32 768.487C1126.95 767.209 1127.83 766.212 1128.96 765.495C1130.09 764.778 1131.42 764.419 1132.94 764.419C1133.86 764.419 1134.76 764.572 1135.62 764.877C1136.49 765.182 1137.27 765.662 1137.96 766.315C1138.64 766.968 1139.19 767.816 1139.59 768.859C1139.98 769.896 1140.18 771.156 1140.18 772.639V773.768H1127.18V771.383H1137.06C1137.06 770.545 1136.89 769.803 1136.55 769.157C1136.21 768.504 1135.73 767.99 1135.11 767.614C1134.5 767.237 1133.79 767.049 1132.96 767.049C1132.07 767.049 1131.29 767.269 1130.62 767.709C1129.96 768.142 1129.45 768.71 1129.09 769.413C1128.73 770.109 1128.55 770.865 1128.55 771.681V773.544C1128.55 774.637 1128.75 775.567 1129.13 776.334C1129.52 777.101 1130.06 777.686 1130.76 778.091C1131.45 778.488 1132.27 778.687 1133.2 778.687C1133.8 778.687 1134.35 778.602 1134.85 778.432C1135.34 778.254 1135.77 777.991 1136.14 777.644C1136.5 777.296 1136.77 776.866 1136.97 776.355L1139.98 776.898C1139.74 777.786 1139.3 778.563 1138.68 779.23C1138.06 779.89 1137.29 780.405 1136.35 780.774C1135.42 781.136 1134.36 781.317 1133.16 781.317ZM1143.71 780.987V764.632H1146.9V780.987H1143.71ZM1145.32 762.109C1144.77 762.109 1144.29 761.924 1143.89 761.555C1143.5 761.179 1143.31 760.732 1143.31 760.213C1143.31 759.688 1143.5 759.241 1143.89 758.872C1144.29 758.496 1144.77 758.308 1145.32 758.308C1145.88 758.308 1146.35 758.496 1146.74 758.872C1147.14 759.241 1147.33 759.688 1147.33 760.213C1147.33 760.732 1147.14 761.179 1146.74 761.555C1146.35 761.924 1145.88 762.109 1145.32 762.109ZM1153.69 764.632L1157.3 771L1160.94 764.632H1164.43L1159.33 772.81L1164.47 780.987H1160.99L1157.3 774.875L1153.63 780.987H1150.14L1155.23 772.81L1150.2 764.632H1153.69ZM1174.1 781.317C1172.49 781.317 1171.1 780.973 1169.94 780.284C1168.78 779.589 1167.88 778.613 1167.25 777.356C1166.63 776.093 1166.32 774.613 1166.32 772.916C1166.32 771.241 1166.63 769.764 1167.25 768.487C1167.88 767.209 1168.76 766.212 1169.89 765.495C1171.03 764.778 1172.36 764.419 1173.88 764.419C1174.8 764.419 1175.69 764.572 1176.56 764.877C1177.43 765.182 1178.2 765.662 1178.89 766.315C1179.58 766.968 1180.12 767.816 1180.52 768.859C1180.92 769.896 1181.12 771.156 1181.12 772.639V773.768H1168.12V771.383H1178C1178 770.545 1177.83 769.803 1177.49 769.157C1177.14 768.504 1176.67 767.99 1176.05 767.614C1175.44 767.237 1174.72 767.049 1173.9 767.049C1173 767.049 1172.22 767.269 1171.55 767.709C1170.89 768.142 1170.38 768.71 1170.02 769.413C1169.67 770.109 1169.49 770.865 1169.49 771.681V773.544C1169.49 774.637 1169.68 775.567 1170.06 776.334C1170.45 777.101 1171 777.686 1171.69 778.091C1172.39 778.488 1173.2 778.687 1174.13 778.687C1174.73 778.687 1175.28 778.602 1175.78 778.432C1176.28 778.254 1176.71 777.991 1177.07 777.644C1177.43 777.296 1177.71 776.866 1177.9 776.355L1180.91 776.898C1180.67 777.786 1180.24 778.563 1179.61 779.23C1179 779.89 1178.22 780.405 1177.28 780.774C1176.35 781.136 1175.29 781.317 1174.1 781.317ZM1204.84 768.625L1201.95 769.136C1201.83 768.767 1201.64 768.416 1201.38 768.082C1201.12 767.748 1200.78 767.475 1200.34 767.262C1199.9 767.049 1199.34 766.943 1198.68 766.943C1197.78 766.943 1197.03 767.145 1196.43 767.55C1195.82 767.947 1195.52 768.462 1195.52 769.094C1195.52 769.64 1195.72 770.08 1196.13 770.414C1196.53 770.748 1197.19 771.021 1198.09 771.234L1200.69 771.83C1202.19 772.178 1203.31 772.714 1204.05 773.438C1204.79 774.162 1205.16 775.102 1205.16 776.259C1205.16 777.239 1204.87 778.112 1204.31 778.879C1203.75 779.638 1202.96 780.235 1201.95 780.668C1200.95 781.101 1199.79 781.317 1198.47 781.317C1196.64 781.317 1195.15 780.927 1193.99 780.146C1192.83 779.358 1192.12 778.24 1191.86 776.792L1194.94 776.323C1195.13 777.125 1195.52 777.732 1196.12 778.144C1196.72 778.549 1197.49 778.751 1198.45 778.751C1199.49 778.751 1200.33 778.535 1200.95 778.102C1201.58 777.661 1201.89 777.125 1201.89 776.494C1201.89 775.983 1201.7 775.553 1201.31 775.205C1200.94 774.858 1200.36 774.595 1199.58 774.417L1196.81 773.811C1195.28 773.463 1194.16 772.909 1193.42 772.149C1192.7 771.39 1192.34 770.428 1192.34 769.264C1192.34 768.299 1192.61 767.454 1193.15 766.73C1193.69 766.006 1194.43 765.441 1195.38 765.037C1196.34 764.625 1197.42 764.419 1198.65 764.419C1200.42 764.419 1201.81 764.803 1202.83 765.569C1203.84 766.329 1204.51 767.347 1204.84 768.625ZM1215.71 781.317C1214.1 781.317 1212.71 780.973 1211.54 780.284C1210.39 779.589 1209.49 778.613 1208.86 777.356C1208.24 776.093 1207.92 774.613 1207.92 772.916C1207.92 771.241 1208.24 769.764 1208.86 768.487C1209.49 767.209 1210.37 766.212 1211.5 765.495C1212.64 764.778 1213.97 764.419 1215.48 764.419C1216.41 764.419 1217.3 764.572 1218.17 764.877C1219.03 765.182 1219.81 765.662 1220.5 766.315C1221.19 766.968 1221.73 767.816 1222.13 768.859C1222.53 769.896 1222.72 771.156 1222.72 772.639V773.768H1209.72V771.383H1219.6C1219.6 770.545 1219.43 769.803 1219.09 769.157C1218.75 768.504 1218.27 767.99 1217.66 767.614C1217.05 767.237 1216.33 767.049 1215.51 767.049C1214.61 767.049 1213.83 767.269 1213.16 767.709C1212.5 768.142 1211.99 768.71 1211.63 769.413C1211.27 770.109 1211.1 770.865 1211.1 771.681V773.544C1211.1 774.637 1211.29 775.567 1211.67 776.334C1212.06 777.101 1212.61 777.686 1213.3 778.091C1214 778.488 1214.81 778.687 1215.74 778.687C1216.34 778.687 1216.89 778.602 1217.39 778.432C1217.89 778.254 1218.32 777.991 1218.68 777.644C1219.04 777.296 1219.32 776.866 1219.51 776.355L1222.52 776.898C1222.28 777.786 1221.85 778.563 1221.22 779.23C1220.61 779.89 1219.83 780.405 1218.89 780.774C1217.96 781.136 1216.9 781.317 1215.71 781.317ZM1236.62 774.204V764.632H1239.81V780.987H1236.68V778.155H1236.51C1236.13 779.028 1235.53 779.755 1234.7 780.338C1233.88 780.912 1232.85 781.2 1231.62 781.2C1230.57 781.2 1229.64 780.969 1228.83 780.508C1228.03 780.039 1227.4 779.347 1226.94 778.432C1226.48 777.516 1226.26 776.384 1226.26 775.035V764.632H1229.44V774.652C1229.44 775.766 1229.75 776.653 1230.37 777.314C1230.98 777.974 1231.79 778.304 1232.77 778.304C1233.37 778.304 1233.96 778.155 1234.55 777.857C1235.15 777.558 1235.64 777.108 1236.03 776.504C1236.43 775.901 1236.62 775.134 1236.62 774.204ZM1259.81 764.632V767.188H1250.57V764.632H1259.81ZM1253.1 780.987V762.737C1253.1 761.715 1253.32 760.867 1253.77 760.192C1254.22 759.511 1254.81 759.003 1255.55 758.67C1256.29 758.329 1257.09 758.158 1257.95 758.158C1258.59 758.158 1259.14 758.212 1259.59 758.318C1260.05 758.418 1260.39 758.51 1260.61 758.595L1259.86 761.172C1259.71 761.129 1259.52 761.079 1259.29 761.023C1259.05 760.959 1258.77 760.927 1258.43 760.927C1257.66 760.927 1257.11 761.119 1256.77 761.502C1256.45 761.885 1256.28 762.439 1256.28 763.163V780.987H1253.1ZM1269.5 781.317C1267.89 781.317 1266.5 780.973 1265.33 780.284C1264.18 779.589 1263.28 778.613 1262.65 777.356C1262.03 776.093 1261.71 774.613 1261.71 772.916C1261.71 771.241 1262.03 769.764 1262.65 768.487C1263.28 767.209 1264.16 766.212 1265.29 765.495C1266.43 764.778 1267.75 764.419 1269.27 764.419C1270.2 764.419 1271.09 764.572 1271.96 764.877C1272.82 765.182 1273.6 765.662 1274.29 766.315C1274.98 766.968 1275.52 767.816 1275.92 768.859C1276.32 769.896 1276.51 771.156 1276.51 772.639V773.768H1263.51V771.383H1273.39C1273.39 770.545 1273.22 769.803 1272.88 769.157C1272.54 768.504 1272.06 767.99 1271.45 767.614C1270.84 767.237 1270.12 767.049 1269.29 767.049C1268.4 767.049 1267.62 767.269 1266.95 767.709C1266.29 768.142 1265.78 768.71 1265.42 769.413C1265.06 770.109 1264.89 770.865 1264.89 771.681V773.544C1264.89 774.637 1265.08 775.567 1265.46 776.334C1265.85 777.101 1266.39 777.686 1267.09 778.091C1267.79 778.488 1268.6 778.687 1269.53 778.687C1270.13 778.687 1270.68 778.602 1271.18 778.432C1271.68 778.254 1272.11 777.991 1272.47 777.644C1272.83 777.296 1273.11 776.866 1273.3 776.355L1276.31 776.898C1276.07 777.786 1275.64 778.563 1275.01 779.23C1274.39 779.89 1273.62 780.405 1272.68 780.774C1271.75 781.136 1270.69 781.317 1269.5 781.317ZM1287.09 781.317C1285.48 781.317 1284.1 780.973 1282.93 780.284C1281.77 779.589 1280.88 778.613 1280.25 777.356C1279.62 776.093 1279.31 774.613 1279.31 772.916C1279.31 771.241 1279.62 769.764 1280.25 768.487C1280.88 767.209 1281.76 766.212 1282.89 765.495C1284.02 764.778 1285.35 764.419 1286.87 764.419C1287.79 764.419 1288.69 764.572 1289.55 764.877C1290.42 765.182 1291.2 765.662 1291.89 766.315C1292.57 766.968 1293.12 767.816 1293.52 768.859C1293.91 769.896 1294.11 771.156 1294.11 772.639V773.768H1281.11V771.383H1290.99C1290.99 770.545 1290.82 769.803 1290.48 769.157C1290.14 768.504 1289.66 767.99 1289.04 767.614C1288.43 767.237 1287.72 767.049 1286.89 767.049C1286 767.049 1285.22 767.269 1284.55 767.709C1283.89 768.142 1283.38 768.71 1283.02 769.413C1282.66 770.109 1282.48 770.865 1282.48 771.681V773.544C1282.48 774.637 1282.68 775.567 1283.06 776.334C1283.45 777.101 1283.99 777.686 1284.69 778.091C1285.38 778.488 1286.2 778.687 1287.13 778.687C1287.73 778.687 1288.28 778.602 1288.78 778.432C1289.27 778.254 1289.7 777.991 1290.07 777.644C1290.43 777.296 1290.7 776.866 1290.9 776.355L1293.91 776.898C1293.67 777.786 1293.24 778.563 1292.61 779.23C1291.99 779.89 1291.22 780.405 1290.28 780.774C1289.35 781.136 1288.29 781.317 1287.09 781.317ZM1303.77 781.306C1302.45 781.306 1301.27 780.969 1300.23 780.295C1299.2 779.613 1298.39 778.645 1297.8 777.388C1297.22 776.125 1296.93 774.609 1296.93 772.842C1296.93 771.074 1297.23 769.562 1297.81 768.306C1298.41 767.049 1299.23 766.087 1300.26 765.42C1301.3 764.753 1302.47 764.419 1303.79 764.419C1304.8 764.419 1305.62 764.59 1306.24 764.93C1306.86 765.264 1307.34 765.654 1307.68 766.102C1308.03 766.549 1308.3 766.943 1308.49 767.283H1308.69V759.181H1311.87V780.987H1308.76V778.442H1308.49C1308.3 778.79 1308.03 779.188 1307.66 779.635C1307.31 780.082 1306.82 780.472 1306.19 780.806C1305.57 781.14 1304.76 781.306 1303.77 781.306ZM1304.47 778.591C1305.38 778.591 1306.16 778.35 1306.79 777.867C1307.43 777.377 1307.91 776.7 1308.24 775.834C1308.57 774.968 1308.74 773.96 1308.74 772.81C1308.74 771.674 1308.58 770.68 1308.25 769.828C1307.92 768.976 1307.44 768.313 1306.81 767.837C1306.18 767.362 1305.4 767.124 1304.47 767.124C1303.51 767.124 1302.71 767.372 1302.07 767.869C1301.43 768.366 1300.95 769.044 1300.63 769.903C1300.31 770.762 1300.15 771.731 1300.15 772.81C1300.15 773.903 1300.31 774.886 1300.64 775.759C1300.96 776.632 1301.45 777.324 1302.08 777.835C1302.73 778.339 1303.53 778.591 1304.47 778.591ZM1316.67 780.987V759.181H1319.85V767.283H1320.04C1320.23 766.943 1320.49 766.549 1320.84 766.102C1321.19 765.654 1321.67 765.264 1322.29 764.93C1322.91 764.59 1323.72 764.419 1324.74 764.419C1326.06 764.419 1327.24 764.753 1328.27 765.42C1329.31 766.087 1330.12 767.049 1330.71 768.306C1331.31 769.562 1331.61 771.074 1331.61 772.842C1331.61 774.609 1331.31 776.125 1330.72 777.388C1330.13 778.645 1329.33 779.613 1328.3 780.295C1327.27 780.969 1326.09 781.306 1324.77 781.306C1323.78 781.306 1322.97 781.14 1322.33 780.806C1321.71 780.472 1321.22 780.082 1320.86 779.635C1320.51 779.188 1320.24 778.79 1320.04 778.442H1319.78V780.987H1316.67ZM1319.79 772.81C1319.79 773.96 1319.96 774.968 1320.29 775.834C1320.62 776.7 1321.11 777.377 1321.74 777.867C1322.37 778.35 1323.14 778.591 1324.06 778.591C1325.01 778.591 1325.8 778.339 1326.44 777.835C1327.08 777.324 1327.56 776.632 1327.89 775.759C1328.22 774.886 1328.39 773.903 1328.39 772.81C1328.39 771.731 1328.23 770.762 1327.9 769.903C1327.58 769.044 1327.1 768.366 1326.45 767.869C1325.82 767.372 1325.02 767.124 1324.06 767.124C1323.14 767.124 1322.35 767.362 1321.72 767.837C1321.08 768.313 1320.6 768.976 1320.28 769.828C1319.95 770.68 1319.79 771.674 1319.79 772.81ZM1339.94 781.349C1338.91 781.349 1337.97 781.157 1337.13 780.774C1336.29 780.384 1335.63 779.819 1335.14 779.081C1334.66 778.343 1334.42 777.438 1334.42 776.366C1334.42 775.443 1334.59 774.684 1334.95 774.087C1335.3 773.491 1335.78 773.019 1336.39 772.671C1336.99 772.323 1337.66 772.061 1338.41 771.883C1339.15 771.706 1339.91 771.571 1340.69 771.479C1341.67 771.365 1342.46 771.273 1343.07 771.202C1343.68 771.124 1344.13 771 1344.4 770.829C1344.68 770.659 1344.82 770.382 1344.82 769.999V769.924C1344.82 768.994 1344.56 768.274 1344.03 767.763C1343.51 767.252 1342.74 766.996 1341.71 766.996C1340.64 766.996 1339.79 767.234 1339.18 767.709C1338.56 768.178 1338.14 768.7 1337.91 769.275L1334.92 768.593C1335.27 767.599 1335.79 766.797 1336.47 766.187C1337.16 765.569 1337.95 765.122 1338.85 764.845C1339.74 764.561 1340.68 764.419 1341.67 764.419C1342.32 764.419 1343.01 764.497 1343.74 764.654C1344.48 764.803 1345.17 765.079 1345.81 765.484C1346.45 765.889 1346.98 766.467 1347.4 767.22C1347.81 767.965 1348.01 768.934 1348.01 770.126V780.987H1344.9V778.751H1344.78C1344.57 779.163 1344.26 779.567 1343.85 779.965C1343.44 780.362 1342.91 780.692 1342.26 780.955C1341.62 781.218 1340.84 781.349 1339.94 781.349ZM1340.63 778.794C1341.51 778.794 1342.27 778.62 1342.89 778.272C1343.52 777.924 1344 777.47 1344.33 776.909C1344.66 776.341 1344.83 775.734 1344.83 775.088V772.98C1344.72 773.094 1344.5 773.2 1344.17 773.299C1343.85 773.392 1343.48 773.473 1343.07 773.544C1342.66 773.608 1342.26 773.669 1341.87 773.725C1341.48 773.775 1341.15 773.818 1340.89 773.853C1340.27 773.931 1339.71 774.062 1339.2 774.247C1338.69 774.432 1338.29 774.698 1337.98 775.046C1337.68 775.386 1337.54 775.841 1337.54 776.409C1337.54 777.196 1337.83 777.793 1338.41 778.197C1338.99 778.595 1339.73 778.794 1340.63 778.794ZM1359.14 781.317C1357.56 781.317 1356.2 780.959 1355.05 780.242C1353.92 779.518 1353.04 778.52 1352.43 777.25C1351.82 775.979 1351.52 774.524 1351.52 772.884C1351.52 771.223 1351.83 769.757 1352.46 768.487C1353.08 767.209 1353.96 766.212 1355.1 765.495C1356.23 764.778 1357.57 764.419 1359.11 764.419C1360.35 764.419 1361.46 764.65 1362.43 765.111C1363.4 765.566 1364.19 766.205 1364.79 767.028C1365.39 767.851 1365.75 768.813 1365.86 769.913H1362.76C1362.59 769.147 1362.2 768.487 1361.59 767.933C1360.99 767.379 1360.18 767.102 1359.16 767.102C1358.28 767.102 1357.5 767.337 1356.83 767.805C1356.17 768.267 1355.66 768.927 1355.29 769.786C1354.92 770.638 1354.73 771.645 1354.73 772.81C1354.73 774.002 1354.92 775.031 1355.28 775.897C1355.64 776.763 1356.15 777.434 1356.81 777.91C1357.48 778.385 1358.26 778.623 1359.16 778.623C1359.77 778.623 1360.31 778.513 1360.8 778.293C1361.3 778.066 1361.72 777.743 1362.05 777.324C1362.39 776.905 1362.63 776.401 1362.76 775.812H1365.86C1365.75 776.87 1365.4 777.814 1364.83 778.645C1364.25 779.475 1363.48 780.128 1362.52 780.604C1361.56 781.079 1360.43 781.317 1359.14 781.317ZM1372.19 775.44L1372.17 771.553H1372.73L1379.24 764.632H1383.05L1375.62 772.511H1375.12L1372.19 775.44ZM1369.27 780.987V759.181H1372.45V780.987H1369.27ZM1379.59 780.987L1373.74 773.214L1375.93 770.989L1383.5 780.987H1379.59Z" fill="#F4F4F5"/>
<g clip-path="url(#clip2_348_1195)">
<path d="M1015.99 848.042C1015.99 841.418 1021.36 836.049 1027.98 836.049H1148.01C1154.63 836.049 1160 841.418 1160 848.042V991.964C1160 998.588 1154.63 1003.96 1148.01 1003.96H1027.98C1021.36 1003.96 1015.99 998.588 1015.99 991.964V848.042Z" fill="#27272A"/>
<path d="M1072.88 875.018C1074.38 873.519 1073.25 869.021 1070.72 869.021C1068.19 869.021 1068.38 872.019 1069.88 872.019C1071.38 872.019 1071.38 875.018 1071.38 876.517C1071.38 878.016 1072.88 875.018 1072.88 875.018ZM1066.61 877.596C1068.1 876.097 1066.98 871.6 1064.45 871.6C1061.92 871.6 1062.11 874.598 1063.61 874.598C1065.11 874.598 1065.11 877.596 1065.11 879.096C1065.11 880.595 1066.61 877.596 1066.61 877.596Z" fill="#AA8DD8"/>
<path d="M1106.15 918.278C1106.43 919.49 1107.99 921.697 1109.19 921.413C1110.4 921.128 1110.81 918.458 1110.52 917.25C1110.24 916.039 1109.03 915.291 1107.82 915.575C1106.61 915.86 1105.86 917.07 1106.15 918.278V918.278ZM1098 919.251C1098 920.496 1099.02 922.996 1100.26 922.992C1101.5 922.986 1102.5 920.478 1102.5 919.235C1102.49 917.992 1101.48 916.991 1100.24 916.994C1099 917 1098 918.009 1098 919.251V919.251ZM1090.1 915.584C1089.61 916.73 1089.55 919.427 1090.69 919.917C1091.84 920.403 1093.75 918.497 1094.23 917.353C1094.72 916.211 1094.19 914.89 1093.05 914.4C1091.91 913.913 1090.59 914.441 1090.1 915.584V915.584ZM1082.56 899.033C1081.34 899.291 1079.1 900.792 1079.35 902.006C1079.61 903.221 1082.26 903.691 1083.48 903.435C1084.7 903.179 1085.47 901.985 1085.22 900.771C1084.96 899.557 1083.77 898.777 1082.56 899.033ZM1079.5 891.537C1078.28 891.795 1076.04 893.296 1076.3 894.51C1076.55 895.725 1079.21 896.195 1080.43 895.939C1081.64 895.683 1082.42 894.489 1082.17 893.275C1081.91 892.061 1080.72 891.281 1079.5 891.537V891.537Z" fill="#744EAA"/>
<path d="M1102.6 919.994C1106.85 919.994 1109.99 918.679 1110.5 918.454C1113.9 916.94 1115.44 912.953 1113.92 909.55C1112.42 906.177 1108.5 904.64 1105.12 906.081C1104.92 906.156 1102.43 907.054 1100.11 905.973C1097.33 904.682 1095.62 901.012 1094.67 898.164C1094.45 897.519 1094.09 896.254 1093.64 894.692C1090.84 884.99 1089.39 882.271 1087.67 879.97C1082.11 872.547 1073.29 872.03 1068.95 872.9C1065.3 873.63 1062.93 877.184 1063.66 880.838C1064.39 884.493 1067.95 886.864 1071.6 886.13C1071.84 886.091 1074.91 885.671 1076.74 887.882C1077.7 889.812 1079.85 895.57 1080.68 898.428C1081.2 900.225 1081.62 901.682 1081.87 902.426C1084.53 910.397 1088.86 915.758 1094.77 918.361C1097.54 919.587 1100.24 919.994 1102.6 919.994Z" fill="#9266CC"/>
<path d="M1071.78 878.016C1072.61 878.016 1073.28 877.345 1073.28 876.517C1073.28 875.689 1072.61 875.018 1071.78 875.018C1070.95 875.018 1070.28 875.689 1070.28 876.517C1070.28 877.345 1070.95 878.016 1071.78 878.016Z" fill="#202024"/>
<path d="M1108.12 918.44C1107.99 918.44 1107.85 918.422 1107.72 918.386C1106.92 918.165 1106.45 917.338 1106.67 916.541C1107.81 912.46 1105.52 909.732 1105.5 909.705C1104.96 909.076 1105.03 908.129 1105.66 907.591C1106.28 907.053 1107.23 907.123 1107.77 907.751C1107.91 907.912 1111.12 911.739 1109.56 917.341C1109.38 918.006 1108.77 918.44 1108.12 918.44V918.44ZM1097.33 917.596C1096.96 917.596 1096.59 917.463 1096.3 917.192C1095.7 916.625 1095.67 915.676 1096.23 915.072C1098.46 912.692 1098.41 908.786 1098.41 908.745C1098.38 907.918 1099.04 907.228 1099.86 907.204C1100.68 907.196 1101.38 907.832 1101.41 908.661C1101.41 908.87 1101.52 913.814 1098.42 917.123C1098.13 917.437 1097.73 917.596 1097.33 917.596V917.596ZM1084.52 904.559C1083.8 904.559 1083.17 904.039 1083.04 903.305C1082.91 902.489 1083.46 901.715 1084.28 901.582C1088.89 900.817 1091.43 898.018 1091.46 897.99C1092.01 897.375 1092.96 897.317 1093.57 897.864C1094.19 898.411 1094.25 899.353 1093.71 899.972C1093.58 900.12 1090.48 903.592 1084.77 904.538C1084.68 904.553 1084.6 904.559 1084.52 904.559V904.559ZM1088.9 911.841C1088.26 911.841 1087.67 911.433 1087.47 910.794C1087.22 910.006 1087.66 909.162 1088.45 908.913C1092.48 907.634 1094.26 904.67 1094.28 904.64C1094.7 903.925 1095.62 903.685 1096.33 904.105C1097.05 904.523 1097.29 905.444 1096.87 906.156C1096.77 906.318 1094.48 910.148 1089.35 911.769C1089.2 911.818 1089.05 911.841 1088.9 911.841V911.841ZM1081.97 895.845C1081.23 895.845 1080.59 895.291 1080.49 894.533C1080.39 893.711 1080.97 892.962 1081.79 892.857C1085.82 892.347 1088.77 889.902 1088.8 889.876C1089.43 889.346 1090.38 889.422 1090.91 890.055C1091.44 890.686 1091.37 891.629 1090.74 892.164C1090.59 892.289 1087.11 895.206 1082.17 895.831C1082.1 895.84 1082.04 895.845 1081.97 895.845V895.845ZM1079.24 888.698C1078.61 888.698 1078.02 888.289 1077.81 887.647C1077.57 886.857 1078.01 886.016 1078.8 885.767C1083.49 884.293 1085.17 881.731 1085.24 881.623C1085.68 880.931 1086.61 880.716 1087.3 881.156C1088 881.593 1088.22 882.503 1087.79 883.203C1087.7 883.349 1085.53 886.795 1079.69 888.629C1079.54 888.675 1079.39 888.698 1079.24 888.698V888.698Z" fill="#744EAA"/>
<path d="M1042.22 963.984V948.719H1047.66C1048.85 948.719 1049.83 948.935 1050.61 949.368C1051.39 949.8 1051.98 950.391 1052.36 951.142C1052.75 951.887 1052.95 952.727 1052.95 953.661C1052.95 954.6 1052.75 955.445 1052.36 956.195C1051.97 956.94 1051.38 957.532 1050.6 957.969C1049.82 958.401 1048.84 958.617 1047.65 958.617H1043.91V956.665H1047.45C1048.2 956.665 1048.8 956.535 1049.27 956.277C1049.74 956.014 1050.08 955.656 1050.3 955.204C1050.52 954.752 1050.63 954.237 1050.63 953.661C1050.63 953.084 1050.52 952.573 1050.3 952.125C1050.08 951.678 1049.74 951.328 1049.26 951.075C1048.8 950.821 1048.18 950.694 1047.42 950.694H1044.52V963.984H1042.22ZM1055.47 963.984V952.535H1057.62V954.354H1057.74C1057.95 953.738 1058.32 953.253 1058.84 952.901C1059.38 952.543 1059.98 952.364 1060.65 952.364C1060.79 952.364 1060.95 952.369 1061.14 952.379C1061.33 952.389 1061.48 952.401 1061.59 952.416V954.548C1061.5 954.523 1061.35 954.496 1061.12 954.466C1060.89 954.431 1060.66 954.414 1060.43 954.414C1059.9 954.414 1059.43 954.525 1059.02 954.749C1058.61 954.968 1058.29 955.273 1058.05 955.666C1057.81 956.053 1057.7 956.496 1057.7 956.993V963.984H1055.47ZM1067.93 964.215C1066.86 964.215 1065.92 963.969 1065.12 963.477C1064.32 962.985 1063.7 962.297 1063.26 961.412C1062.82 960.528 1062.6 959.494 1062.6 958.312C1062.6 957.124 1062.82 956.086 1063.26 955.196C1063.7 954.307 1064.32 953.616 1065.12 953.124C1065.92 952.632 1066.86 952.386 1067.93 952.386C1069.01 952.386 1069.94 952.632 1070.74 953.124C1071.54 953.616 1072.17 954.307 1072.61 955.196C1073.05 956.086 1073.27 957.124 1073.27 958.312C1073.27 959.494 1073.05 960.528 1072.61 961.412C1072.17 962.297 1071.54 962.985 1070.74 963.477C1069.94 963.969 1069.01 964.215 1067.93 964.215ZM1067.94 962.344C1068.64 962.344 1069.21 962.16 1069.67 961.792C1070.13 961.425 1070.47 960.935 1070.68 960.324C1070.91 959.713 1071.02 959.04 1071.02 958.304C1071.02 957.574 1070.91 956.903 1070.68 956.292C1070.47 955.676 1070.13 955.181 1069.67 954.809C1069.21 954.436 1068.64 954.25 1067.94 954.25C1067.24 954.25 1066.66 954.436 1066.2 954.809C1065.74 955.181 1065.4 955.676 1065.18 956.292C1064.96 956.903 1064.85 957.574 1064.85 958.304C1064.85 959.04 1064.96 959.713 1065.18 960.324C1065.4 960.935 1065.74 961.425 1066.2 961.792C1066.66 962.16 1067.24 962.344 1067.94 962.344ZM1075.94 963.984V948.719H1078.17V954.391H1078.3C1078.43 954.153 1078.62 953.877 1078.86 953.564C1079.1 953.251 1079.44 952.978 1079.87 952.744C1080.31 952.506 1080.88 952.386 1081.59 952.386C1082.51 952.386 1083.34 952.62 1084.06 953.087C1084.79 953.554 1085.36 954.227 1085.77 955.107C1086.19 955.986 1086.39 957.045 1086.39 958.282C1086.39 959.519 1086.19 960.58 1085.78 961.465C1085.36 962.344 1084.8 963.022 1084.08 963.499C1083.36 963.971 1082.53 964.207 1081.61 964.207C1080.91 964.207 1080.35 964.091 1079.9 963.857C1079.47 963.624 1079.12 963.35 1078.87 963.037C1078.63 962.724 1078.43 962.446 1078.3 962.202H1078.11V963.984H1075.94ZM1078.12 958.26C1078.12 959.065 1078.24 959.77 1078.47 960.376C1078.71 960.983 1079.04 961.457 1079.49 961.8C1079.93 962.138 1080.47 962.307 1081.11 962.307C1081.78 962.307 1082.33 962.13 1082.78 961.778C1083.23 961.42 1083.56 960.935 1083.79 960.324C1084.03 959.713 1084.14 959.025 1084.14 958.26C1084.14 957.504 1084.03 956.826 1083.8 956.225C1083.58 955.624 1083.24 955.149 1082.79 954.801C1082.34 954.453 1081.78 954.28 1081.11 954.28C1080.46 954.28 1079.92 954.446 1079.47 954.779C1079.03 955.112 1078.69 955.576 1078.46 956.173C1078.24 956.769 1078.12 957.465 1078.12 958.26ZM1091.13 948.719V963.984H1088.9V948.719H1091.13ZM1099.06 964.215C1097.93 964.215 1096.96 963.974 1096.14 963.492C1095.33 963.005 1094.71 962.322 1094.27 961.442C1093.83 960.558 1093.61 959.522 1093.61 958.334C1093.61 957.161 1093.83 956.128 1094.27 955.234C1094.71 954.339 1095.32 953.641 1096.11 953.139C1096.91 952.637 1097.84 952.386 1098.9 952.386C1099.55 952.386 1100.17 952.493 1100.78 952.707C1101.39 952.921 1101.93 953.256 1102.41 953.713C1102.89 954.17 1103.27 954.764 1103.55 955.494C1103.83 956.22 1103.97 957.102 1103.97 958.14V958.93H1094.87V957.261H1101.79C1101.79 956.675 1101.67 956.155 1101.43 955.703C1101.19 955.246 1100.85 954.886 1100.42 954.622C1099.99 954.359 1099.49 954.227 1098.92 954.227C1098.29 954.227 1097.74 954.381 1097.28 954.689C1096.81 954.993 1096.46 955.39 1096.2 955.882C1095.95 956.369 1095.83 956.898 1095.83 957.47V958.774C1095.83 959.539 1095.96 960.19 1096.23 960.727C1096.51 961.263 1096.89 961.673 1097.37 961.956C1097.86 962.235 1098.43 962.374 1099.08 962.374C1099.5 962.374 1099.89 962.314 1100.24 962.195C1100.58 962.071 1100.88 961.887 1101.14 961.643C1101.39 961.4 1101.58 961.099 1101.72 960.742L1103.83 961.122C1103.66 961.743 1103.36 962.287 1102.92 962.754C1102.49 963.216 1101.94 963.576 1101.29 963.835C1100.64 964.088 1099.89 964.215 1099.06 964.215ZM1106.44 963.984V952.535H1108.58V954.399H1108.72C1108.96 953.768 1109.35 953.276 1109.89 952.923C1110.43 952.565 1111.08 952.386 1111.84 952.386C1112.6 952.386 1113.24 952.565 1113.76 952.923C1114.28 953.281 1114.67 953.773 1114.92 954.399H1115.04C1115.31 953.788 1115.74 953.301 1116.34 952.938C1116.94 952.57 1117.65 952.386 1118.47 952.386C1119.51 952.386 1120.36 952.712 1121.01 953.363C1121.67 954.014 1122 954.995 1122 956.307V963.984H1119.78V956.516C1119.78 955.74 1119.57 955.179 1119.14 954.831C1118.72 954.483 1118.22 954.309 1117.63 954.309C1116.9 954.309 1116.34 954.533 1115.94 954.98C1115.54 955.422 1115.33 955.991 1115.33 956.687V963.984H1113.11V956.374C1113.11 955.753 1112.92 955.253 1112.53 954.876C1112.14 954.498 1111.64 954.309 1111.02 954.309C1110.6 954.309 1110.21 954.421 1109.85 954.645C1109.5 954.863 1109.21 955.169 1108.99 955.561C1108.78 955.954 1108.67 956.409 1108.67 956.925V963.984H1106.44ZM1128.32 964.237C1127.6 964.237 1126.94 964.103 1126.36 963.835C1125.77 963.561 1125.3 963.166 1124.96 962.65C1124.62 962.133 1124.46 961.499 1124.46 960.749C1124.46 960.103 1124.58 959.571 1124.83 959.154C1125.08 958.737 1125.41 958.406 1125.83 958.163C1126.26 957.919 1126.73 957.735 1127.25 957.611C1127.77 957.487 1128.3 957.393 1128.85 957.328C1129.53 957.248 1130.09 957.184 1130.51 957.134C1130.94 957.079 1131.25 956.993 1131.45 956.873C1131.64 956.754 1131.74 956.56 1131.74 956.292V956.24C1131.74 955.589 1131.55 955.084 1131.19 954.727C1130.82 954.369 1130.28 954.19 1129.56 954.19C1128.81 954.19 1128.22 954.357 1127.79 954.689C1127.36 955.017 1127.06 955.383 1126.9 955.785L1124.81 955.308C1125.05 954.612 1125.42 954.051 1125.89 953.624C1126.38 953.191 1126.93 952.878 1127.56 952.684C1128.18 952.486 1128.84 952.386 1129.53 952.386C1129.99 952.386 1130.47 952.441 1130.98 952.55C1131.5 952.655 1131.98 952.848 1132.43 953.132C1132.88 953.415 1133.25 953.82 1133.54 954.347C1133.83 954.868 1133.97 955.547 1133.97 956.381V963.984H1131.8V962.419H1131.71C1131.56 962.707 1131.35 962.99 1131.06 963.268C1130.77 963.547 1130.4 963.778 1129.95 963.961C1129.5 964.145 1128.95 964.237 1128.32 964.237ZM1128.81 962.448C1129.42 962.448 1129.95 962.327 1130.39 962.083C1130.83 961.84 1131.17 961.522 1131.39 961.129C1131.63 960.732 1131.74 960.307 1131.74 959.855V958.379C1131.67 958.458 1131.51 958.533 1131.28 958.602C1131.06 958.667 1130.8 958.724 1130.51 958.774C1130.23 958.819 1129.95 958.861 1129.67 958.901C1129.4 958.935 1129.17 958.965 1128.99 958.99C1128.55 959.045 1128.16 959.137 1127.8 959.266C1127.45 959.395 1127.17 959.581 1126.95 959.825C1126.74 960.063 1126.64 960.381 1126.64 960.779C1126.64 961.33 1126.84 961.748 1127.25 962.031C1127.66 962.309 1128.18 962.448 1128.81 962.448Z" fill="#F4F4F5"/>
<path d="M1171.99 848.042C1171.99 841.418 1177.36 836.049 1183.99 836.049H1304.01C1310.64 836.049 1316.01 841.418 1316.01 848.042V991.964C1316.01 998.588 1310.64 1003.96 1304.01 1003.96H1183.99C1177.36 1003.96 1171.99 998.588 1171.99 991.964V848.042Z" fill="#27272A"/>
<path d="M1260.49 886.891C1260.49 896.545 1252.99 898.044 1252.99 907.041C1252.99 911.685 1248.31 912.076 1244.75 912.076C1241.67 912.076 1234.88 910.908 1234.88 907.038C1234.88 898.045 1227.51 896.546 1227.51 886.891C1227.51 877.85 1235.43 870.52 1244.12 870.52C1252.82 870.52 1260.49 877.85 1260.49 886.891Z" fill="#FFD983"/>
<path d="M1250.25 919.034C1250.25 920.275 1246.9 922.782 1244 922.782C1241.1 922.782 1237.75 920.275 1237.75 919.034C1237.75 917.793 1241.1 918.284 1244 918.284C1246.9 918.284 1250.25 917.793 1250.25 919.034Z" fill="#CCD6DD"/>
<path d="M1251.06 885.742C1250.47 885.155 1249.52 885.155 1248.94 885.742L1244 890.678L1239.06 885.742C1238.48 885.155 1237.53 885.155 1236.94 885.742C1236.36 886.328 1236.36 887.275 1236.94 887.861L1242.5 893.419V909.289C1242.5 910.118 1243.17 910.789 1244 910.789C1244.83 910.789 1245.5 910.118 1245.5 909.289V893.419L1251.06 887.861C1251.64 887.275 1251.64 886.328 1251.06 885.742V885.742Z" fill="#FFCC4D"/>
<path d="M1253 916.785C1253 918.44 1251.65 919.784 1250 919.784H1238C1236.35 919.784 1235 918.44 1235 916.785V907.79H1253V916.785Z" fill="#99AAB5"/>
<path d="M1235 918.284C1234.28 918.284 1233.65 917.764 1233.53 917.031C1233.39 916.216 1233.94 915.442 1234.76 915.307L1252.75 912.309C1253.56 912.162 1254.34 912.724 1254.47 913.541C1254.61 914.357 1254.06 915.13 1253.24 915.265L1235.25 918.263C1235.17 918.278 1235.08 918.284 1235 918.284V918.284ZM1235 912.288C1234.28 912.288 1233.65 911.767 1233.53 911.034C1233.39 910.219 1233.94 909.445 1234.76 909.31L1252.75 906.312C1253.56 906.166 1254.34 906.727 1254.47 907.544C1254.61 908.36 1254.06 909.133 1253.24 909.268L1235.25 912.267C1235.17 912.282 1235.08 912.288 1235 912.288V912.288Z" fill="#CCD6DD"/>
<path d="M1223.83 948.719V963.984H1221.53V948.719H1223.83ZM1231.3 964.207C1230.37 964.207 1229.55 963.971 1228.82 963.499C1228.1 963.022 1227.53 962.344 1227.12 961.465C1226.71 960.58 1226.51 959.519 1226.51 958.282C1226.51 957.045 1226.72 955.986 1227.13 955.107C1227.55 954.227 1228.12 953.554 1228.84 953.087C1229.57 952.62 1230.39 952.386 1231.31 952.386C1232.02 952.386 1232.59 952.506 1233.02 952.744C1233.46 952.978 1233.8 953.251 1234.04 953.564C1234.28 953.877 1234.47 954.153 1234.6 954.391H1234.74V948.719H1236.97V963.984H1234.79V962.202H1234.6C1234.47 962.446 1234.28 962.724 1234.02 963.037C1233.78 963.35 1233.43 963.624 1232.99 963.857C1232.56 964.091 1231.99 964.207 1231.3 964.207ZM1231.79 962.307C1232.43 962.307 1232.97 962.138 1233.41 961.8C1233.86 961.457 1234.2 960.983 1234.43 960.376C1234.66 959.77 1234.78 959.065 1234.78 958.26C1234.78 957.465 1234.66 956.769 1234.43 956.173C1234.2 955.576 1233.87 955.112 1233.43 954.779C1232.98 954.446 1232.44 954.28 1231.79 954.28C1231.12 954.28 1230.56 954.453 1230.11 954.801C1229.66 955.149 1229.33 955.624 1229.1 956.225C1228.87 956.826 1228.76 957.504 1228.76 958.26C1228.76 959.025 1228.88 959.713 1229.1 960.324C1229.33 960.935 1229.67 961.42 1230.12 961.778C1230.57 962.13 1231.13 962.307 1231.79 962.307ZM1245.08 964.215C1243.95 964.215 1242.98 963.974 1242.17 963.492C1241.36 963.005 1240.73 962.322 1240.29 961.442C1239.85 960.558 1239.63 959.522 1239.63 958.334C1239.63 957.161 1239.85 956.128 1240.29 955.234C1240.73 954.339 1241.35 953.641 1242.14 953.139C1242.93 952.637 1243.86 952.386 1244.93 952.386C1245.57 952.386 1246.2 952.493 1246.8 952.707C1247.41 952.921 1247.95 953.256 1248.44 953.713C1248.92 954.17 1249.3 954.764 1249.58 955.494C1249.86 956.22 1249.99 957.102 1249.99 958.14V958.93H1240.89V957.261H1247.81C1247.81 956.675 1247.69 956.155 1247.45 955.703C1247.21 955.246 1246.88 954.886 1246.45 954.622C1246.02 954.359 1245.52 954.227 1244.94 954.227C1244.31 954.227 1243.77 954.381 1243.3 954.689C1242.84 954.993 1242.48 955.39 1242.23 955.882C1241.98 956.369 1241.86 956.898 1241.86 957.47V958.774C1241.86 959.539 1241.99 960.19 1242.26 960.727C1242.53 961.263 1242.91 961.673 1243.4 961.956C1243.88 962.235 1244.45 962.374 1245.1 962.374C1245.53 962.374 1245.91 962.314 1246.26 962.195C1246.61 962.071 1246.91 961.887 1247.16 961.643C1247.42 961.4 1247.61 961.099 1247.74 960.742L1249.85 961.122C1249.68 961.743 1249.38 962.287 1248.94 962.754C1248.51 963.216 1247.97 963.576 1247.31 963.835C1246.66 964.088 1245.92 964.215 1245.08 964.215ZM1252.47 963.984V952.535H1254.7V963.984H1252.47ZM1253.59 950.769C1253.2 950.769 1252.87 950.64 1252.59 950.381C1252.32 950.118 1252.18 949.805 1252.18 949.442C1252.18 949.075 1252.32 948.762 1252.59 948.503C1252.87 948.24 1253.2 948.108 1253.59 948.108C1253.98 948.108 1254.31 948.24 1254.58 948.503C1254.86 948.762 1255 949.075 1255 949.442C1255 949.805 1254.86 950.118 1254.58 950.381C1254.31 950.64 1253.98 950.769 1253.59 950.769ZM1261.03 964.237C1260.3 964.237 1259.64 964.103 1259.06 963.835C1258.47 963.561 1258.01 963.166 1257.66 962.65C1257.33 962.133 1257.16 961.499 1257.16 960.749C1257.16 960.103 1257.28 959.571 1257.53 959.154C1257.78 958.737 1258.11 958.406 1258.54 958.163C1258.96 957.919 1259.43 957.735 1259.95 957.611C1260.47 957.487 1261.01 957.393 1261.55 957.328C1262.23 957.248 1262.79 957.184 1263.22 957.134C1263.64 957.079 1263.95 956.993 1264.15 956.873C1264.34 956.754 1264.44 956.56 1264.44 956.292V956.24C1264.44 955.589 1264.25 955.084 1263.89 954.727C1263.52 954.369 1262.98 954.19 1262.26 954.19C1261.51 954.19 1260.92 954.357 1260.49 954.689C1260.06 955.017 1259.77 955.383 1259.6 955.785L1257.51 955.308C1257.76 954.612 1258.12 954.051 1258.6 953.624C1259.08 953.191 1259.63 952.878 1260.26 952.684C1260.88 952.486 1261.54 952.386 1262.23 952.386C1262.69 952.386 1263.17 952.441 1263.69 952.55C1264.2 952.655 1264.68 952.848 1265.13 953.132C1265.58 953.415 1265.95 953.82 1266.24 954.347C1266.53 954.868 1266.67 955.547 1266.67 956.381V963.984H1264.5V962.419H1264.41C1264.26 962.707 1264.05 962.99 1263.76 963.268C1263.47 963.547 1263.1 963.778 1262.65 963.961C1262.2 964.145 1261.66 964.237 1261.03 964.237ZM1261.51 962.448C1262.13 962.448 1262.65 962.327 1263.09 962.083C1263.53 961.84 1263.87 961.522 1264.1 961.129C1264.33 960.732 1264.45 960.307 1264.45 959.855V958.379C1264.37 958.458 1264.21 958.533 1263.98 958.602C1263.76 958.667 1263.5 958.724 1263.22 958.774C1262.93 958.819 1262.65 958.861 1262.37 958.901C1262.1 958.935 1261.87 958.965 1261.69 958.99C1261.26 959.045 1260.86 959.137 1260.5 959.266C1260.15 959.395 1259.87 959.581 1259.65 959.825C1259.45 960.063 1259.34 960.381 1259.34 960.779C1259.34 961.33 1259.54 961.748 1259.95 962.031C1260.36 962.309 1260.88 962.448 1261.51 962.448Z" fill="#F4F4F5"/>
<path d="M1328 848.042C1328 841.418 1333.37 836.049 1339.99 836.049H1460.02C1466.64 836.049 1472.01 841.418 1472.01 848.042V991.964C1472.01 998.588 1466.64 1003.96 1460.02 1003.96H1339.99C1333.37 1003.96 1328 998.588 1328 991.964V848.042Z" fill="#27272A"/>
<path d="M1426.99 888.323C1426.99 882.527 1422.29 877.829 1416.5 877.829C1414.75 877.829 1413.1 878.264 1411.65 879.019C1408.53 874.781 1403.52 872.019 1397.85 872.019C1390.16 872.019 1383.65 877.087 1381.48 884.067C1377.49 884.992 1374.52 888.556 1374.52 892.821C1374.52 897.287 1377.78 900.984 1382.05 901.685C1382.37 907.606 1387.26 912.31 1393.26 912.31C1396.52 912.31 1399.45 910.911 1401.51 908.693C1403.56 910.911 1406.49 912.31 1409.75 912.31C1415.96 912.31 1421 907.277 1421 901.066C1421 900.002 1420.84 898.976 1420.56 898C1424.34 896.413 1426.99 892.678 1426.99 888.323Z" fill="#85C8F8"/>
<path d="M1380.52 921.305C1383 921.305 1385.01 919.292 1385.01 916.808C1385.01 914.324 1383 912.31 1380.52 912.31C1378.03 912.31 1376.02 914.324 1376.02 916.808C1376.02 919.292 1378.03 921.305 1380.52 921.305Z" fill="#85C8F8"/>
<path d="M1386.59 956.352C1386.59 957.981 1386.29 959.383 1385.69 960.555C1385.1 961.723 1384.28 962.622 1383.24 963.253C1382.21 963.879 1381.03 964.192 1379.71 964.192C1378.39 964.192 1377.21 963.879 1376.17 963.253C1375.14 962.622 1374.33 961.72 1373.73 960.548C1373.13 959.375 1372.83 957.976 1372.83 956.352C1372.83 954.722 1373.13 953.323 1373.73 952.155C1374.33 950.983 1375.14 950.083 1376.17 949.457C1377.21 948.826 1378.39 948.511 1379.71 948.511C1381.03 948.511 1382.21 948.826 1383.24 949.457C1384.28 950.083 1385.1 950.983 1385.69 952.155C1386.29 953.323 1386.59 954.722 1386.59 956.352ZM1384.31 956.352C1384.31 955.109 1384.1 954.063 1383.7 953.214C1383.3 952.359 1382.76 951.713 1382.06 951.276C1381.37 950.834 1380.59 950.612 1379.71 950.612C1378.83 950.612 1378.05 950.834 1377.36 951.276C1376.67 951.713 1376.12 952.359 1375.72 953.214C1375.32 954.063 1375.12 955.109 1375.12 956.352C1375.12 957.594 1375.32 958.642 1375.72 959.497C1376.12 960.347 1376.67 960.992 1377.36 961.435C1378.05 961.872 1378.83 962.091 1379.71 962.091C1380.59 962.091 1381.37 961.872 1382.06 961.435C1382.76 960.992 1383.3 960.347 1383.7 959.497C1384.1 958.642 1384.31 957.594 1384.31 956.352ZM1396.53 959.236V952.535H1398.77V963.984H1396.58V962.001H1396.46C1396.19 962.612 1395.77 963.122 1395.19 963.529C1394.61 963.932 1393.89 964.133 1393.03 964.133C1392.3 964.133 1391.65 963.971 1391.08 963.648C1390.52 963.32 1390.08 962.836 1389.76 962.195C1389.44 961.554 1389.28 960.761 1389.28 959.817V952.535H1391.51V959.549C1391.51 960.329 1391.72 960.95 1392.16 961.412C1392.59 961.874 1393.15 962.106 1393.84 962.106C1394.26 962.106 1394.67 962.001 1395.08 961.792C1395.5 961.584 1395.85 961.268 1396.12 960.846C1396.4 960.424 1396.54 959.887 1396.53 959.236ZM1407.11 952.535V954.324H1400.85V952.535H1407.11ZM1402.53 949.793H1404.76V960.622C1404.76 961.055 1404.82 961.38 1404.95 961.599C1405.08 961.812 1405.25 961.959 1405.45 962.038C1405.66 962.113 1405.89 962.15 1406.13 962.15C1406.31 962.15 1406.46 962.138 1406.6 962.113C1406.73 962.088 1406.84 962.068 1406.91 962.053L1407.31 963.894C1407.18 963.944 1407 963.994 1406.76 964.043C1406.52 964.098 1406.23 964.128 1405.87 964.133C1405.28 964.143 1404.73 964.038 1404.23 963.82C1403.72 963.601 1403.31 963.263 1403 962.806C1402.69 962.349 1402.53 961.775 1402.53 961.084V949.793ZM1409.57 963.984V952.535H1411.72V954.354H1411.84C1412.05 953.738 1412.42 953.253 1412.95 952.901C1413.48 952.543 1414.08 952.364 1414.75 952.364C1414.89 952.364 1415.05 952.369 1415.24 952.379C1415.44 952.389 1415.59 952.401 1415.7 952.416V954.548C1415.61 954.523 1415.45 954.496 1415.22 954.466C1414.99 954.431 1414.76 954.414 1414.53 954.414C1414.01 954.414 1413.54 954.525 1413.13 954.749C1412.72 954.968 1412.4 955.273 1412.16 955.666C1411.92 956.053 1411.8 956.496 1411.8 956.993V963.984H1409.57ZM1422.04 964.215C1420.96 964.215 1420.03 963.969 1419.23 963.477C1418.43 962.985 1417.81 962.297 1417.36 961.412C1416.92 960.528 1416.7 959.494 1416.7 958.312C1416.7 957.124 1416.92 956.086 1417.36 955.196C1417.81 954.307 1418.43 953.616 1419.23 953.124C1420.03 952.632 1420.96 952.386 1422.04 952.386C1423.11 952.386 1424.05 952.632 1424.85 953.124C1425.65 953.616 1426.27 954.307 1426.71 955.196C1427.15 956.086 1427.37 957.124 1427.37 958.312C1427.37 959.494 1427.15 960.528 1426.71 961.412C1426.27 962.297 1425.65 962.985 1424.85 963.477C1424.05 963.969 1423.11 964.215 1422.04 964.215ZM1422.05 962.344C1422.74 962.344 1423.32 962.16 1423.77 961.792C1424.23 961.425 1424.57 960.935 1424.79 960.324C1425.01 959.713 1425.12 959.04 1425.12 958.304C1425.12 957.574 1425.01 956.903 1424.79 956.292C1424.57 955.676 1424.23 955.181 1423.77 954.809C1423.32 954.436 1422.74 954.25 1422.05 954.25C1421.34 954.25 1420.76 954.436 1420.3 954.809C1419.84 955.181 1419.5 955.676 1419.28 956.292C1419.06 956.903 1418.95 957.574 1418.95 958.304C1418.95 959.04 1419.06 959.713 1419.28 960.324C1419.5 960.935 1419.84 961.425 1420.3 961.792C1420.76 962.16 1421.34 962.344 1422.05 962.344Z" fill="#F4F4F5"/>
</g>
<path d="M1120.25 1095.03V1081.94H1128.37V1083.64H1122.23V1087.63H1127.79V1089.32H1122.23V1095.03H1120.25ZM1134.15 1095.22C1133.18 1095.22 1132.35 1095.02 1131.65 1094.6C1130.96 1094.19 1130.42 1093.6 1130.04 1092.85C1129.67 1092.09 1129.48 1091.2 1129.48 1090.18C1129.48 1089.18 1129.67 1088.29 1130.04 1087.53C1130.42 1086.76 1130.95 1086.16 1131.63 1085.73C1132.31 1085.3 1133.11 1085.09 1134.02 1085.09C1134.57 1085.09 1135.11 1085.18 1135.63 1085.36C1136.15 1085.54 1136.61 1085.83 1137.03 1086.22C1137.44 1086.61 1137.77 1087.12 1138 1087.75C1138.24 1088.37 1138.36 1089.13 1138.36 1090.02V1090.69H1130.56V1089.26H1136.49C1136.49 1088.76 1136.39 1088.32 1136.18 1087.93C1135.98 1087.54 1135.69 1087.23 1135.32 1087C1134.95 1086.78 1134.52 1086.66 1134.03 1086.66C1133.49 1086.66 1133.03 1086.8 1132.62 1087.06C1132.23 1087.32 1131.92 1087.66 1131.7 1088.08C1131.49 1088.5 1131.39 1088.95 1131.39 1089.44V1090.56C1131.39 1091.22 1131.5 1091.77 1131.73 1092.23C1131.96 1092.69 1132.29 1093.05 1132.71 1093.29C1133.13 1093.53 1133.61 1093.65 1134.17 1093.65C1134.53 1093.65 1134.86 1093.59 1135.16 1093.49C1135.46 1093.39 1135.72 1093.23 1135.93 1093.02C1136.15 1092.81 1136.32 1092.55 1136.43 1092.25L1138.24 1092.57C1138.1 1093.11 1137.84 1093.57 1137.46 1093.97C1137.09 1094.37 1136.62 1094.68 1136.06 1094.9C1135.5 1095.12 1134.87 1095.22 1134.15 1095.22ZM1140.48 1095.03V1085.21H1142.39V1095.03H1140.48ZM1141.45 1083.7C1141.11 1083.7 1140.83 1083.59 1140.59 1083.37C1140.36 1083.14 1140.24 1082.87 1140.24 1082.56C1140.24 1082.25 1140.36 1081.98 1140.59 1081.76C1140.83 1081.53 1141.11 1081.42 1141.45 1081.42C1141.78 1081.42 1142.06 1081.53 1142.3 1081.76C1142.53 1081.98 1142.65 1082.25 1142.65 1082.56C1142.65 1082.87 1142.53 1083.14 1142.3 1083.37C1142.06 1083.59 1141.78 1083.7 1141.45 1083.7ZM1149.54 1085.21V1086.75H1144.18V1085.21H1149.54ZM1145.62 1082.86H1147.53V1092.14C1147.53 1092.52 1147.58 1092.79 1147.7 1092.98C1147.81 1093.16 1147.95 1093.29 1148.12 1093.36C1148.3 1093.42 1148.5 1093.45 1148.7 1093.45C1148.86 1093.45 1148.99 1093.44 1149.11 1093.42C1149.22 1093.4 1149.31 1093.38 1149.38 1093.37L1149.72 1094.95C1149.61 1094.99 1149.45 1095.03 1149.25 1095.08C1149.04 1095.12 1148.79 1095.15 1148.48 1095.15C1147.98 1095.16 1147.51 1095.07 1147.08 1094.89C1146.64 1094.7 1146.29 1094.41 1146.02 1094.02C1145.75 1093.62 1145.62 1093.13 1145.62 1092.54V1082.86ZM1155.68 1095.22C1154.76 1095.22 1153.96 1095.01 1153.27 1094.59C1152.59 1094.17 1152.06 1093.58 1151.68 1092.82C1151.3 1092.06 1151.11 1091.18 1151.11 1090.16C1151.11 1089.15 1151.3 1088.26 1151.68 1087.49C1152.06 1086.73 1152.59 1086.14 1153.27 1085.72C1153.96 1085.3 1154.76 1085.09 1155.68 1085.09C1156.6 1085.09 1157.41 1085.3 1158.09 1085.72C1158.78 1086.14 1159.31 1086.73 1159.69 1087.49C1160.07 1088.26 1160.26 1089.15 1160.26 1090.16C1160.26 1091.18 1160.07 1092.06 1159.69 1092.82C1159.31 1093.58 1158.78 1094.17 1158.09 1094.59C1157.41 1095.01 1156.6 1095.22 1155.68 1095.22ZM1155.69 1093.62C1156.29 1093.62 1156.78 1093.46 1157.17 1093.15C1157.56 1092.83 1157.85 1092.41 1158.04 1091.89C1158.23 1091.37 1158.33 1090.79 1158.33 1090.16C1158.33 1089.53 1158.23 1088.96 1158.04 1088.43C1157.85 1087.9 1157.56 1087.48 1157.17 1087.16C1156.78 1086.84 1156.29 1086.68 1155.69 1086.68C1155.09 1086.68 1154.59 1086.84 1154.19 1087.16C1153.8 1087.48 1153.51 1087.9 1153.32 1088.43C1153.13 1088.96 1153.04 1089.53 1153.04 1090.16C1153.04 1090.79 1153.13 1091.37 1153.32 1091.89C1153.51 1092.41 1153.8 1092.83 1154.19 1093.15C1154.59 1093.46 1155.09 1093.62 1155.69 1093.62ZM1171.28 1095.22C1170.33 1095.22 1169.52 1095.01 1168.83 1094.58C1168.15 1094.14 1167.63 1093.55 1167.26 1092.78C1166.89 1092.02 1166.71 1091.15 1166.71 1090.16C1166.71 1089.17 1166.9 1088.29 1167.27 1087.53C1167.65 1086.76 1168.17 1086.16 1168.86 1085.73C1169.54 1085.3 1170.34 1085.09 1171.26 1085.09C1172.01 1085.09 1172.67 1085.22 1173.26 1085.5C1173.84 1085.77 1174.31 1086.16 1174.67 1086.65C1175.03 1087.14 1175.25 1087.72 1175.31 1088.38H1173.46C1173.35 1087.92 1173.12 1087.53 1172.75 1087.19C1172.39 1086.86 1171.91 1086.7 1171.3 1086.7C1170.76 1086.7 1170.3 1086.84 1169.9 1087.12C1169.5 1087.39 1169.19 1087.79 1168.97 1088.31C1168.75 1088.82 1168.64 1089.42 1168.64 1090.12C1168.64 1090.84 1168.75 1091.45 1168.96 1091.97C1169.18 1092.49 1169.49 1092.89 1169.88 1093.18C1170.28 1093.47 1170.76 1093.61 1171.3 1093.61C1171.66 1093.61 1171.99 1093.54 1172.28 1093.41C1172.58 1093.27 1172.83 1093.08 1173.03 1092.83C1173.23 1092.58 1173.37 1092.27 1173.46 1091.92H1175.31C1175.25 1092.56 1175.04 1093.12 1174.7 1093.62C1174.35 1094.12 1173.89 1094.51 1173.31 1094.8C1172.73 1095.08 1172.06 1095.22 1171.28 1095.22ZM1181.49 1095.22C1180.57 1095.22 1179.77 1095.01 1179.08 1094.59C1178.4 1094.17 1177.86 1093.58 1177.49 1092.82C1177.11 1092.06 1176.92 1091.18 1176.92 1090.16C1176.92 1089.15 1177.11 1088.26 1177.49 1087.49C1177.86 1086.73 1178.4 1086.14 1179.08 1085.72C1179.77 1085.3 1180.57 1085.09 1181.49 1085.09C1182.41 1085.09 1183.21 1085.3 1183.9 1085.72C1184.59 1086.14 1185.12 1086.73 1185.5 1087.49C1185.88 1088.26 1186.07 1089.15 1186.07 1090.16C1186.07 1091.18 1185.88 1092.06 1185.5 1092.82C1185.12 1093.58 1184.59 1094.17 1183.9 1094.59C1183.21 1095.01 1182.41 1095.22 1181.49 1095.22ZM1181.5 1093.62C1182.09 1093.62 1182.59 1093.46 1182.98 1093.15C1183.37 1092.83 1183.66 1092.41 1183.85 1091.89C1184.04 1091.37 1184.14 1090.79 1184.14 1090.16C1184.14 1089.53 1184.04 1088.96 1183.85 1088.43C1183.66 1087.9 1183.37 1087.48 1182.98 1087.16C1182.59 1086.84 1182.09 1086.68 1181.5 1086.68C1180.9 1086.68 1180.4 1086.84 1180 1087.16C1179.61 1087.48 1179.32 1087.9 1179.13 1088.43C1178.94 1088.96 1178.85 1089.53 1178.85 1090.16C1178.85 1090.79 1178.94 1091.37 1179.13 1091.89C1179.32 1092.41 1179.61 1092.83 1180 1093.15C1180.4 1093.46 1180.9 1093.62 1181.5 1093.62ZM1188.2 1095.03V1085.21H1190.03V1086.81H1190.15C1190.36 1086.27 1190.69 1085.85 1191.16 1085.55C1191.62 1085.24 1192.18 1085.09 1192.82 1085.09C1193.48 1085.09 1194.03 1085.24 1194.47 1085.55C1194.92 1085.85 1195.25 1086.27 1195.46 1086.81H1195.56C1195.8 1086.29 1196.17 1085.87 1196.68 1085.56C1197.19 1085.24 1197.8 1085.09 1198.51 1085.09C1199.4 1085.09 1200.12 1085.36 1200.69 1085.92C1201.25 1086.48 1201.54 1087.32 1201.54 1088.45V1095.03H1199.63V1088.62C1199.63 1087.96 1199.45 1087.48 1199.08 1087.18C1198.72 1086.88 1198.29 1086.73 1197.79 1086.73C1197.16 1086.73 1196.68 1086.93 1196.34 1087.31C1195.99 1087.69 1195.82 1088.18 1195.82 1088.77V1095.03H1193.92V1088.5C1193.92 1087.97 1193.75 1087.54 1193.42 1087.22C1193.08 1086.9 1192.65 1086.73 1192.12 1086.73C1191.76 1086.73 1191.42 1086.83 1191.12 1087.02C1190.81 1087.21 1190.57 1087.47 1190.38 1087.81C1190.2 1088.14 1190.11 1088.53 1190.11 1088.98V1095.03H1188.2ZM1216.77 1095.23L1210.21 1088.66C1209.68 1088.14 1209.33 1087.53 1209.16 1086.84C1208.99 1086.14 1208.99 1085.45 1209.16 1084.77C1209.34 1084.08 1209.69 1083.48 1210.21 1082.96C1210.74 1082.44 1211.35 1082.09 1212.03 1081.92C1212.71 1081.75 1213.4 1081.75 1214.08 1081.92C1214.76 1082.1 1215.37 1082.44 1215.9 1082.96L1216.77 1083.81L1217.64 1082.96C1218.18 1082.44 1218.79 1082.1 1219.47 1081.92C1220.15 1081.75 1220.83 1081.75 1221.51 1081.92C1222.2 1082.09 1222.81 1082.44 1223.34 1082.96C1223.86 1083.48 1224.21 1084.08 1224.38 1084.77C1224.56 1085.45 1224.56 1086.14 1224.38 1086.84C1224.21 1087.53 1223.86 1088.14 1223.34 1088.66L1216.77 1095.23ZM1232.01 1098.71V1085.21H1233.88V1086.8H1234.04C1234.15 1086.6 1234.31 1086.36 1234.52 1086.09C1234.73 1085.83 1235.02 1085.59 1235.39 1085.39C1235.76 1085.19 1236.25 1085.09 1236.86 1085.09C1237.65 1085.09 1238.36 1085.29 1238.98 1085.69C1239.6 1086.09 1240.09 1086.66 1240.44 1087.42C1240.8 1088.17 1240.98 1089.08 1240.98 1090.14C1240.98 1091.2 1240.8 1092.11 1240.45 1092.87C1240.09 1093.62 1239.61 1094.2 1238.99 1094.61C1238.37 1095.02 1237.67 1095.22 1236.88 1095.22C1236.28 1095.22 1235.79 1095.12 1235.41 1094.92C1235.04 1094.72 1234.74 1094.48 1234.53 1094.21C1234.32 1093.95 1234.15 1093.71 1234.04 1093.5H1233.92V1098.71H1232.01ZM1233.89 1090.12C1233.89 1090.81 1233.99 1091.41 1234.19 1091.93C1234.39 1092.45 1234.68 1092.86 1235.05 1093.15C1235.43 1093.44 1235.9 1093.59 1236.45 1093.59C1237.02 1093.59 1237.49 1093.44 1237.88 1093.13C1238.26 1092.83 1238.55 1092.41 1238.75 1091.89C1238.95 1091.37 1239.05 1090.78 1239.05 1090.12C1239.05 1089.47 1238.95 1088.89 1238.75 1088.38C1238.56 1087.86 1238.27 1087.45 1237.88 1087.16C1237.5 1086.86 1237.02 1086.71 1236.45 1086.71C1235.89 1086.71 1235.43 1086.85 1235.04 1087.14C1234.66 1087.42 1234.38 1087.82 1234.18 1088.33C1233.98 1088.84 1233.89 1089.44 1233.89 1090.12ZM1247.35 1095.22C1246.38 1095.22 1245.55 1095.02 1244.85 1094.6C1244.15 1094.19 1243.62 1093.6 1243.24 1092.85C1242.86 1092.09 1242.68 1091.2 1242.68 1090.18C1242.68 1089.18 1242.86 1088.29 1243.24 1087.53C1243.62 1086.76 1244.15 1086.16 1244.82 1085.73C1245.5 1085.3 1246.3 1085.09 1247.21 1085.09C1247.77 1085.09 1248.3 1085.18 1248.82 1085.36C1249.34 1085.54 1249.81 1085.83 1250.22 1086.22C1250.63 1086.61 1250.96 1087.12 1251.2 1087.75C1251.44 1088.37 1251.56 1089.13 1251.56 1090.02V1090.69H1243.76V1089.26H1249.68C1249.68 1088.76 1249.58 1088.32 1249.38 1087.93C1249.17 1087.54 1248.89 1087.23 1248.52 1087C1248.15 1086.78 1247.72 1086.66 1247.22 1086.66C1246.69 1086.66 1246.22 1086.8 1245.82 1087.06C1245.42 1087.32 1245.12 1087.66 1244.9 1088.08C1244.69 1088.5 1244.58 1088.95 1244.58 1089.44V1090.56C1244.58 1091.22 1244.69 1091.77 1244.92 1092.23C1245.16 1092.69 1245.48 1093.05 1245.9 1093.29C1246.32 1093.53 1246.81 1093.65 1247.37 1093.65C1247.73 1093.65 1248.06 1093.59 1248.36 1093.49C1248.65 1093.39 1248.91 1093.23 1249.13 1093.02C1249.35 1092.81 1249.51 1092.55 1249.63 1092.25L1251.43 1092.57C1251.29 1093.11 1251.03 1093.57 1250.66 1093.97C1250.28 1094.37 1249.82 1094.68 1249.26 1094.9C1248.7 1095.12 1248.06 1095.22 1247.35 1095.22ZM1255.59 1081.94V1095.03H1253.68V1081.94H1255.59ZM1261.01 1095.24C1260.39 1095.24 1259.83 1095.13 1259.32 1094.9C1258.82 1094.66 1258.42 1094.33 1258.13 1093.88C1257.84 1093.44 1257.7 1092.9 1257.7 1092.25C1257.7 1091.7 1257.8 1091.24 1258.02 1090.89C1258.23 1090.53 1258.52 1090.25 1258.88 1090.04C1259.24 1089.83 1259.64 1089.67 1260.09 1089.56C1260.54 1089.46 1260.99 1089.38 1261.46 1089.32C1262.05 1089.25 1262.52 1089.2 1262.89 1089.15C1263.26 1089.11 1263.52 1089.03 1263.69 1088.93C1263.85 1088.83 1263.94 1088.66 1263.94 1088.43V1088.39C1263.94 1087.83 1263.78 1087.4 1263.46 1087.09C1263.15 1086.78 1262.69 1086.63 1262.07 1086.63C1261.43 1086.63 1260.92 1086.77 1260.55 1087.06C1260.19 1087.34 1259.93 1087.65 1259.79 1088L1258 1087.59C1258.21 1086.99 1258.52 1086.51 1258.93 1086.15C1259.34 1085.78 1259.82 1085.51 1260.35 1085.34C1260.89 1085.17 1261.45 1085.09 1262.05 1085.09C1262.44 1085.09 1262.85 1085.13 1263.29 1085.23C1263.74 1085.32 1264.15 1085.48 1264.53 1085.72C1264.92 1085.97 1265.24 1086.31 1265.48 1086.77C1265.73 1087.21 1265.85 1087.79 1265.85 1088.51V1095.03H1263.99V1093.68H1263.91C1263.79 1093.93 1263.6 1094.17 1263.36 1094.41C1263.11 1094.65 1262.79 1094.85 1262.4 1095.01C1262.02 1095.16 1261.55 1095.24 1261.01 1095.24ZM1261.43 1093.71C1261.95 1093.71 1262.41 1093.61 1262.78 1093.4C1263.16 1093.19 1263.45 1092.92 1263.64 1092.58C1263.84 1092.24 1263.94 1091.87 1263.94 1091.49V1090.22C1263.88 1090.29 1263.74 1090.35 1263.55 1090.41C1263.36 1090.47 1263.14 1090.52 1262.89 1090.56C1262.64 1090.6 1262.4 1090.63 1262.17 1090.67C1261.93 1090.7 1261.74 1090.72 1261.58 1090.75C1261.21 1090.79 1260.87 1090.87 1260.56 1090.98C1260.26 1091.09 1260.02 1091.25 1259.84 1091.46C1259.66 1091.67 1259.57 1091.94 1259.57 1092.28C1259.57 1092.75 1259.74 1093.11 1260.09 1093.35C1260.44 1093.59 1260.89 1093.71 1261.43 1093.71ZM1273.31 1095.03V1081.94H1277.98C1278.99 1081.94 1279.83 1082.12 1280.5 1082.47C1281.17 1082.82 1281.68 1083.3 1282.01 1083.92C1282.34 1084.53 1282.51 1085.24 1282.51 1086.04C1282.51 1086.84 1282.34 1087.55 1282 1088.16C1281.67 1088.76 1281.17 1089.23 1280.49 1089.57C1279.82 1089.91 1278.98 1090.07 1277.97 1090.07H1274.44V1088.38H1277.79C1278.43 1088.38 1278.95 1088.28 1279.35 1088.1C1279.75 1087.92 1280.05 1087.65 1280.24 1087.3C1280.43 1086.95 1280.52 1086.53 1280.52 1086.04C1280.52 1085.55 1280.42 1085.12 1280.23 1084.76C1280.04 1084.4 1279.75 1084.12 1279.34 1083.93C1278.94 1083.73 1278.42 1083.64 1277.77 1083.64H1275.29V1095.03H1273.31ZM1279.77 1089.12L1283 1095.03H1280.76L1277.59 1089.12H1279.77ZM1288.76 1095.22C1287.85 1095.22 1287.04 1095.01 1286.36 1094.59C1285.67 1094.17 1285.14 1093.58 1284.76 1092.82C1284.38 1092.06 1284.19 1091.18 1284.19 1090.16C1284.19 1089.15 1284.38 1088.26 1284.76 1087.49C1285.14 1086.73 1285.67 1086.14 1286.36 1085.72C1287.04 1085.3 1287.85 1085.09 1288.76 1085.09C1289.68 1085.09 1290.49 1085.3 1291.17 1085.72C1291.86 1086.14 1292.39 1086.73 1292.77 1087.49C1293.15 1088.26 1293.34 1089.15 1293.34 1090.16C1293.34 1091.18 1293.15 1092.06 1292.77 1092.82C1292.39 1093.58 1291.86 1094.17 1291.17 1094.59C1290.49 1095.01 1289.68 1095.22 1288.76 1095.22ZM1288.77 1093.62C1289.37 1093.62 1289.86 1093.46 1290.25 1093.15C1290.65 1092.83 1290.93 1092.41 1291.12 1091.89C1291.31 1091.37 1291.41 1090.79 1291.41 1090.16C1291.41 1089.53 1291.31 1088.96 1291.12 1088.43C1290.93 1087.9 1290.65 1087.48 1290.25 1087.16C1289.86 1086.84 1289.37 1086.68 1288.77 1086.68C1288.17 1086.68 1287.67 1086.84 1287.28 1087.16C1286.88 1087.48 1286.59 1087.9 1286.4 1088.43C1286.21 1088.96 1286.12 1089.53 1286.12 1090.16C1286.12 1090.79 1286.21 1091.37 1286.4 1091.89C1286.59 1092.41 1286.88 1092.83 1287.28 1093.15C1287.67 1093.46 1288.17 1093.62 1288.77 1093.62ZM1299.6 1095.22C1298.66 1095.22 1297.84 1095.01 1297.15 1094.58C1296.47 1094.14 1295.95 1093.55 1295.58 1092.78C1295.21 1092.02 1295.03 1091.15 1295.03 1090.16C1295.03 1089.17 1295.22 1088.29 1295.59 1087.53C1295.97 1086.76 1296.5 1086.16 1297.18 1085.73C1297.86 1085.3 1298.66 1085.09 1299.59 1085.09C1300.33 1085.09 1301 1085.22 1301.58 1085.5C1302.16 1085.77 1302.63 1086.16 1302.99 1086.65C1303.35 1087.14 1303.57 1087.72 1303.64 1088.38H1301.78C1301.67 1087.92 1301.44 1087.53 1301.07 1087.19C1300.71 1086.86 1300.23 1086.7 1299.62 1086.7C1299.09 1086.7 1298.62 1086.84 1298.22 1087.12C1297.82 1087.39 1297.51 1087.79 1297.29 1088.31C1297.07 1088.82 1296.96 1089.42 1296.96 1090.12C1296.96 1090.84 1297.07 1091.45 1297.29 1091.97C1297.5 1092.49 1297.81 1092.89 1298.21 1093.18C1298.61 1093.47 1299.08 1093.61 1299.62 1093.61C1299.98 1093.61 1300.31 1093.54 1300.6 1093.41C1300.9 1093.27 1301.15 1093.08 1301.35 1092.83C1301.55 1092.58 1301.7 1092.27 1301.78 1091.92H1303.64C1303.57 1092.56 1303.36 1093.12 1303.02 1093.62C1302.67 1094.12 1302.21 1094.51 1301.63 1094.8C1301.06 1095.08 1300.38 1095.22 1299.6 1095.22ZM1307.44 1091.7L1307.42 1089.37H1307.76L1311.66 1085.21H1313.95L1309.49 1089.94H1309.19L1307.44 1091.7ZM1305.68 1095.03V1081.94H1307.59V1095.03H1305.68ZM1311.88 1095.03L1308.36 1090.36L1309.68 1089.03L1314.22 1095.03H1311.88ZM1319.52 1095.22C1318.55 1095.22 1317.72 1095.02 1317.02 1094.6C1316.33 1094.19 1315.79 1093.6 1315.41 1092.85C1315.04 1092.09 1314.85 1091.2 1314.85 1090.18C1314.85 1089.18 1315.04 1088.29 1315.41 1087.53C1315.79 1086.76 1316.32 1086.16 1316.99 1085.73C1317.68 1085.3 1318.47 1085.09 1319.38 1085.09C1319.94 1085.09 1320.47 1085.18 1320.99 1085.36C1321.51 1085.54 1321.98 1085.83 1322.39 1086.22C1322.81 1086.61 1323.13 1087.12 1323.37 1087.75C1323.61 1088.37 1323.73 1089.13 1323.73 1090.02V1090.69H1315.93V1089.26H1321.86C1321.86 1088.76 1321.75 1088.32 1321.55 1087.93C1321.35 1087.54 1321.06 1087.23 1320.69 1087C1320.32 1086.78 1319.89 1086.66 1319.4 1086.66C1318.86 1086.66 1318.39 1086.8 1317.99 1087.06C1317.6 1087.32 1317.29 1087.66 1317.07 1088.08C1316.86 1088.5 1316.75 1088.95 1316.75 1089.44V1090.56C1316.75 1091.22 1316.87 1091.77 1317.1 1092.23C1317.33 1092.69 1317.66 1093.05 1318.07 1093.29C1318.49 1093.53 1318.98 1093.65 1319.54 1093.65C1319.9 1093.65 1320.23 1093.59 1320.53 1093.49C1320.83 1093.39 1321.08 1093.23 1321.3 1093.02C1321.52 1092.81 1321.68 1092.55 1321.8 1092.25L1323.61 1092.57C1323.46 1093.11 1323.2 1093.57 1322.83 1093.97C1322.46 1094.37 1321.99 1094.68 1321.43 1094.9C1320.87 1095.12 1320.23 1095.22 1319.52 1095.22ZM1330.43 1085.21V1086.75H1325.07V1085.21H1330.43ZM1326.51 1082.86H1328.42V1092.14C1328.42 1092.52 1328.47 1092.79 1328.58 1092.98C1328.69 1093.16 1328.84 1093.29 1329.01 1093.36C1329.19 1093.42 1329.38 1093.45 1329.59 1093.45C1329.74 1093.45 1329.88 1093.44 1329.99 1093.42C1330.11 1093.4 1330.2 1093.38 1330.26 1093.37L1330.61 1094.95C1330.5 1094.99 1330.34 1095.03 1330.13 1095.08C1329.93 1095.12 1329.67 1095.15 1329.37 1095.15C1328.87 1095.16 1328.4 1095.07 1327.96 1094.89C1327.53 1094.7 1327.18 1094.41 1326.91 1094.02C1326.64 1093.62 1326.51 1093.13 1326.51 1092.54V1082.86ZM1339.74 1087.61L1338 1087.92C1337.93 1087.69 1337.82 1087.48 1337.66 1087.28C1337.51 1087.08 1337.3 1086.92 1337.03 1086.79C1336.77 1086.66 1336.44 1086.6 1336.04 1086.6C1335.5 1086.6 1335.05 1086.72 1334.69 1086.96C1334.33 1087.2 1334.15 1087.51 1334.15 1087.89C1334.15 1088.22 1334.27 1088.48 1334.51 1088.68C1334.75 1088.88 1335.15 1089.05 1335.69 1089.17L1337.24 1089.53C1338.15 1089.74 1338.82 1090.06 1339.26 1090.5C1339.71 1090.93 1339.93 1091.5 1339.93 1092.19C1339.93 1092.78 1339.76 1093.3 1339.42 1093.76C1339.08 1094.22 1338.61 1094.57 1338 1094.83C1337.4 1095.09 1336.71 1095.22 1335.92 1095.22C1334.82 1095.22 1333.92 1094.99 1333.23 1094.52C1332.53 1094.05 1332.11 1093.38 1331.95 1092.51L1333.79 1092.23C1333.91 1092.71 1334.15 1093.07 1334.5 1093.32C1334.86 1093.56 1335.33 1093.68 1335.9 1093.68C1336.53 1093.68 1337.03 1093.55 1337.4 1093.29C1337.78 1093.03 1337.97 1092.71 1337.97 1092.33C1337.97 1092.02 1337.85 1091.77 1337.62 1091.56C1337.4 1091.35 1337.05 1091.19 1336.58 1091.08L1334.92 1090.72C1334 1090.51 1333.33 1090.18 1332.89 1089.72C1332.45 1089.27 1332.24 1088.69 1332.24 1087.99C1332.24 1087.41 1332.4 1086.91 1332.72 1086.47C1333.05 1086.04 1333.49 1085.7 1334.06 1085.46C1334.63 1085.21 1335.29 1085.09 1336.02 1085.09C1337.09 1085.09 1337.92 1085.32 1338.53 1085.78C1339.14 1086.23 1339.54 1086.84 1339.74 1087.61ZM1346.26 1095.22C1345.29 1095.22 1344.46 1095.02 1343.76 1094.6C1343.07 1094.19 1342.53 1093.6 1342.15 1092.85C1341.77 1092.09 1341.59 1091.2 1341.59 1090.18C1341.59 1089.18 1341.77 1088.29 1342.15 1087.53C1342.53 1086.76 1343.06 1086.16 1343.73 1085.73C1344.42 1085.3 1345.21 1085.09 1346.12 1085.09C1346.68 1085.09 1347.21 1085.18 1347.73 1085.36C1348.25 1085.54 1348.72 1085.83 1349.13 1086.22C1349.55 1086.61 1349.87 1087.12 1350.11 1087.75C1350.35 1088.37 1350.47 1089.13 1350.47 1090.02V1090.69H1342.67V1089.26H1348.6C1348.6 1088.76 1348.49 1088.32 1348.29 1087.93C1348.08 1087.54 1347.8 1087.23 1347.43 1087C1347.06 1086.78 1346.63 1086.66 1346.14 1086.66C1345.6 1086.66 1345.13 1086.8 1344.73 1087.06C1344.33 1087.32 1344.03 1087.66 1343.81 1088.08C1343.6 1088.5 1343.49 1088.95 1343.49 1089.44V1090.56C1343.49 1091.22 1343.61 1091.77 1343.84 1092.23C1344.07 1092.69 1344.4 1093.05 1344.81 1093.29C1345.23 1093.53 1345.72 1093.65 1346.28 1093.65C1346.64 1093.65 1346.97 1093.59 1347.27 1093.49C1347.56 1093.39 1347.82 1093.23 1348.04 1093.02C1348.26 1092.81 1348.42 1092.55 1348.54 1092.25L1350.35 1092.57C1350.2 1093.11 1349.94 1093.57 1349.57 1093.97C1349.2 1094.37 1348.73 1094.68 1348.17 1094.9C1347.61 1095.12 1346.97 1095.22 1346.26 1095.22ZM1355.44 1095.24C1354.82 1095.24 1354.26 1095.13 1353.76 1094.9C1353.25 1094.66 1352.86 1094.33 1352.56 1093.88C1352.27 1093.44 1352.13 1092.9 1352.13 1092.25C1352.13 1091.7 1352.23 1091.24 1352.45 1090.89C1352.66 1090.53 1352.95 1090.25 1353.31 1090.04C1353.67 1089.83 1354.08 1089.67 1354.52 1089.56C1354.97 1089.46 1355.43 1089.38 1355.89 1089.32C1356.48 1089.25 1356.95 1089.2 1357.32 1089.15C1357.69 1089.11 1357.95 1089.03 1358.12 1088.93C1358.29 1088.83 1358.37 1088.66 1358.37 1088.43V1088.39C1358.37 1087.83 1358.21 1087.4 1357.9 1087.09C1357.58 1086.78 1357.12 1086.63 1356.5 1086.63C1355.86 1086.63 1355.35 1086.77 1354.98 1087.06C1354.62 1087.34 1354.36 1087.65 1354.22 1088L1352.43 1087.59C1352.64 1086.99 1352.95 1086.51 1353.36 1086.15C1353.77 1085.78 1354.25 1085.51 1354.78 1085.34C1355.32 1085.17 1355.89 1085.09 1356.48 1085.09C1356.87 1085.09 1357.28 1085.13 1357.72 1085.23C1358.17 1085.32 1358.58 1085.48 1358.96 1085.72C1359.35 1085.97 1359.67 1086.31 1359.91 1086.77C1360.16 1087.21 1360.29 1087.79 1360.29 1088.51V1095.03H1358.42V1093.68H1358.34C1358.22 1093.93 1358.03 1094.17 1357.79 1094.41C1357.54 1094.65 1357.22 1094.85 1356.84 1095.01C1356.45 1095.16 1355.98 1095.24 1355.44 1095.24ZM1355.86 1093.71C1356.39 1093.71 1356.84 1093.61 1357.21 1093.4C1357.59 1093.19 1357.88 1092.92 1358.07 1092.58C1358.27 1092.24 1358.37 1091.87 1358.37 1091.49V1090.22C1358.31 1090.29 1358.17 1090.35 1357.98 1090.41C1357.79 1090.47 1357.57 1090.52 1357.32 1090.56C1357.07 1090.6 1356.83 1090.63 1356.6 1090.67C1356.36 1090.7 1356.17 1090.72 1356.01 1090.75C1355.64 1090.79 1355.3 1090.87 1355 1090.98C1354.69 1091.09 1354.45 1091.25 1354.27 1091.46C1354.09 1091.67 1354 1091.94 1354 1092.28C1354 1092.75 1354.17 1093.11 1354.52 1093.35C1354.87 1093.59 1355.32 1093.71 1355.86 1093.71ZM1367.41 1085.21V1086.75H1362.05V1085.21H1367.41ZM1363.49 1082.86H1365.4V1092.14C1365.4 1092.52 1365.45 1092.79 1365.56 1092.98C1365.67 1093.16 1365.82 1093.29 1365.99 1093.36C1366.17 1093.42 1366.36 1093.45 1366.57 1093.45C1366.73 1093.45 1366.86 1093.44 1366.98 1093.42C1367.09 1093.4 1367.18 1093.38 1367.24 1093.37L1367.59 1094.95C1367.48 1094.99 1367.32 1095.03 1367.12 1095.08C1366.91 1095.12 1366.66 1095.15 1366.35 1095.15C1365.85 1095.16 1365.38 1095.07 1364.94 1094.89C1364.51 1094.7 1364.16 1094.41 1363.89 1094.02C1363.62 1093.62 1363.49 1093.13 1363.49 1092.54V1082.86Z" fill="#A1A1AA"/>
<path d="M1271.88 1098.6H1368.23V1099.83H1271.88V1098.6Z" fill="#A1A1AA"/>
<a href="https://www.rocketseat.com.br/">
<rect fill="black" fill-opacity="0" x="153.058" y="1.10736" width="96.3591" height="21.7723"/>
</a>
<path d="M1460.77 763.231L1447.28 776.724" stroke="#A1A1AA" stroke-width="2.24878" stroke-linecap="round" stroke-linejoin="round"/>
<path d="M1460.77 776.724L1447.28 763.231" stroke="#A1A1AA" stroke-width="2.24878" stroke-linecap="round" stroke-linejoin="round"/>
</g>
<g clip-path="url(#clip3_348_1195)">
<rect x="1235.6" y="600" width="260" height="80" rx="16" fill="#8257E5"/>
<path d="M1297.29 653.75H1284.12C1283.96 653.752 1283.8 653.722 1283.66 653.663C1283.51 653.603 1283.38 653.514 1283.26 653.402C1283.15 653.29 1283.06 653.157 1283 653.01C1282.94 652.863 1282.91 652.705 1282.92 652.547V639.375C1282.92 635.563 1284.43 631.906 1287.13 629.21C1289.82 626.515 1293.48 625 1297.29 625C1299.18 625 1301.05 625.372 1302.79 626.094C1304.54 626.817 1306.12 627.875 1307.46 629.21C1308.79 630.545 1309.85 632.13 1310.57 633.874C1311.3 635.618 1311.67 637.487 1311.67 639.375C1311.67 641.263 1311.3 643.132 1310.57 644.876C1309.85 646.62 1308.79 648.205 1307.46 649.54C1306.12 650.874 1304.54 651.933 1302.79 652.656C1301.05 653.378 1299.18 653.75 1297.29 653.75Z" stroke="white" stroke-width="2.5" stroke-linecap="round" stroke-linejoin="round"/>
<path d="M1299.09 640C1299.09 640.992 1298.28 641.797 1297.29 641.797C1296.3 641.797 1295.5 640.992 1295.5 640C1295.5 639.008 1296.3 638.203 1297.29 638.203C1298.28 638.203 1299.09 639.008 1299.09 640Z" fill="white" stroke="white" stroke-width="0.15625"/>
<path d="M1291.59 640C1291.59 640.992 1290.78 641.797 1289.79 641.797C1288.8 641.797 1288 640.992 1288 640C1288 639.008 1288.8 638.203 1289.79 638.203C1290.78 638.203 1291.59 639.008 1291.59 640Z" fill="white" stroke="white" stroke-width="0.15625"/>
<path d="M1306.59 640C1306.59 640.992 1305.78 641.797 1304.79 641.797C1303.8 641.797 1303 640.992 1303 640C1303 639.008 1303.8 638.203 1304.79 638.203C1305.78 638.203 1306.59 639.008 1306.59 640Z" fill="white" stroke="white" stroke-width="0.15625"/>
<path d="M1332.13 650V630.606H1344.16V633.125H1335.06V639.034H1343.3V641.544H1335.06V650H1332.13ZM1352.73 650.294C1351.3 650.294 1350.06 649.987 1349.03 649.375C1348 648.756 1347.2 647.888 1346.64 646.771C1346.09 645.647 1345.81 644.331 1345.81 642.822C1345.81 641.332 1346.09 640.019 1346.64 638.883C1347.2 637.746 1347.99 636.859 1348.99 636.222C1350 635.584 1351.18 635.265 1352.53 635.265C1353.35 635.265 1354.15 635.401 1354.92 635.672C1355.69 635.944 1356.38 636.37 1356.99 636.951C1357.6 637.532 1358.09 638.286 1358.44 639.214C1358.79 640.136 1358.97 641.256 1358.97 642.576V643.58H1347.41V641.458H1356.2C1356.2 640.713 1356.04 640.054 1355.74 639.479C1355.44 638.898 1355.01 638.441 1354.46 638.106C1353.92 637.771 1353.28 637.604 1352.55 637.604C1351.75 637.604 1351.06 637.8 1350.47 638.191C1349.88 638.576 1349.42 639.081 1349.1 639.706C1348.79 640.325 1348.63 640.997 1348.63 641.723V643.381C1348.63 644.353 1348.8 645.18 1349.14 645.862C1349.49 646.544 1349.97 647.064 1350.59 647.424C1351.21 647.778 1351.93 647.955 1352.76 647.955C1353.29 647.955 1353.78 647.879 1354.23 647.727C1354.67 647.569 1355.05 647.336 1355.37 647.027C1355.69 646.717 1355.94 646.335 1356.11 645.881L1358.79 646.364C1358.58 647.153 1358.19 647.844 1357.63 648.438C1357.09 649.025 1356.39 649.482 1355.56 649.811C1354.73 650.133 1353.79 650.294 1352.73 650.294ZM1368.38 650.294C1366.95 650.294 1365.71 649.987 1364.68 649.375C1363.65 648.756 1362.85 647.888 1362.29 646.771C1361.74 645.647 1361.46 644.331 1361.46 642.822C1361.46 641.332 1361.74 640.019 1362.29 638.883C1362.85 637.746 1363.64 636.859 1364.64 636.222C1365.65 635.584 1366.83 635.265 1368.18 635.265C1369 635.265 1369.8 635.401 1370.57 635.672C1371.34 635.944 1372.03 636.37 1372.64 636.951C1373.25 637.532 1373.74 638.286 1374.09 639.214C1374.44 640.136 1374.62 641.256 1374.62 642.576V643.58H1363.06V641.458H1371.85C1371.85 640.713 1371.7 640.054 1371.39 639.479C1371.09 638.898 1370.66 638.441 1370.11 638.106C1369.57 637.771 1368.93 637.604 1368.2 637.604C1367.41 637.604 1366.71 637.8 1366.12 638.191C1365.53 638.576 1365.08 639.081 1364.75 639.706C1364.44 640.325 1364.28 640.997 1364.28 641.723V643.381C1364.28 644.353 1364.45 645.18 1364.79 645.862C1365.14 646.544 1365.62 647.064 1366.24 647.424C1366.86 647.778 1367.58 647.955 1368.41 647.955C1368.95 647.955 1369.43 647.879 1369.88 647.727C1370.32 647.569 1370.7 647.336 1371.02 647.027C1371.34 646.717 1371.59 646.335 1371.76 645.881L1374.44 646.364C1374.23 647.153 1373.84 647.844 1373.29 648.438C1372.74 649.025 1372.05 649.482 1371.21 649.811C1370.39 650.133 1369.44 650.294 1368.38 650.294ZM1383.21 650.284C1382.03 650.284 1380.99 649.984 1380.06 649.384C1379.15 648.778 1378.43 647.917 1377.9 646.799C1377.39 645.676 1377.13 644.328 1377.13 642.756C1377.13 641.184 1377.39 639.839 1377.91 638.722C1378.44 637.604 1379.17 636.749 1380.09 636.155C1381.01 635.562 1382.06 635.265 1383.23 635.265C1384.13 635.265 1384.86 635.417 1385.4 635.72C1385.96 636.016 1386.39 636.364 1386.69 636.761C1387 637.159 1387.24 637.509 1387.41 637.813H1387.58V630.606H1390.41V650H1387.65V647.737H1387.41C1387.24 648.046 1387 648.4 1386.67 648.797C1386.36 649.195 1385.92 649.542 1385.37 649.839C1384.81 650.136 1384.09 650.284 1383.21 650.284ZM1383.83 647.869C1384.65 647.869 1385.34 647.655 1385.9 647.225C1386.47 646.79 1386.89 646.187 1387.19 645.417C1387.48 644.646 1387.63 643.75 1387.63 642.727C1387.63 641.717 1387.49 640.833 1387.19 640.076C1386.9 639.318 1386.48 638.728 1385.92 638.305C1385.35 637.882 1384.66 637.67 1383.83 637.67C1382.98 637.67 1382.27 637.891 1381.7 638.333C1381.13 638.775 1380.7 639.378 1380.41 640.142C1380.13 640.906 1379.99 641.768 1379.99 642.727C1379.99 643.699 1380.13 644.574 1380.42 645.35C1380.71 646.127 1381.14 646.742 1381.71 647.197C1382.29 647.645 1382.99 647.869 1383.83 647.869ZM1394.68 650V630.606H1397.51V637.813H1397.68C1397.85 637.509 1398.09 637.159 1398.39 636.761C1398.7 636.364 1399.13 636.016 1399.68 635.72C1400.23 635.417 1400.96 635.265 1401.86 635.265C1403.04 635.265 1404.08 635.562 1405 636.155C1405.93 636.749 1406.65 637.604 1407.17 638.722C1407.7 639.839 1407.97 641.184 1407.97 642.756C1407.97 644.328 1407.71 645.676 1407.18 646.799C1406.66 647.917 1405.94 648.778 1405.02 649.384C1404.11 649.984 1403.06 650.284 1401.89 650.284C1401.01 650.284 1400.28 650.136 1399.72 649.839C1399.17 649.542 1398.73 649.195 1398.41 648.797C1398.1 648.4 1397.86 648.046 1397.68 647.737H1397.45V650H1394.68ZM1397.46 642.727C1397.46 643.75 1397.61 644.646 1397.9 645.417C1398.2 646.187 1398.63 646.79 1399.19 647.225C1399.75 647.655 1400.44 647.869 1401.25 647.869C1402.1 647.869 1402.81 647.645 1403.38 647.197C1403.94 646.742 1404.37 646.127 1404.66 645.35C1404.96 644.574 1405.11 643.699 1405.11 642.727C1405.11 641.768 1404.96 640.906 1404.67 640.142C1404.39 639.378 1403.96 638.775 1403.39 638.333C1402.82 637.891 1402.11 637.67 1401.25 637.67C1400.43 637.67 1399.74 637.882 1399.17 638.305C1398.61 638.728 1398.18 639.318 1397.89 640.076C1397.6 640.833 1397.46 641.717 1397.46 642.727ZM1415.38 650.322C1414.46 650.322 1413.63 650.152 1412.88 649.811C1412.14 649.463 1411.55 648.961 1411.11 648.305C1410.68 647.648 1410.47 646.843 1410.47 645.89C1410.47 645.069 1410.62 644.394 1410.94 643.864C1411.26 643.333 1411.68 642.914 1412.22 642.604C1412.75 642.295 1413.35 642.061 1414.02 641.903C1414.68 641.746 1415.36 641.626 1416.04 641.544C1416.92 641.443 1417.62 641.36 1418.17 641.297C1418.71 641.228 1419.1 641.117 1419.35 640.966C1419.6 640.814 1419.72 640.568 1419.72 640.227V640.161C1419.72 639.334 1419.48 638.693 1419.02 638.239C1418.56 637.784 1417.87 637.557 1416.95 637.557C1416 637.557 1415.25 637.768 1414.7 638.191C1414.16 638.608 1413.78 639.072 1413.57 639.583L1410.91 638.977C1411.23 638.093 1411.69 637.38 1412.29 636.837C1412.91 636.288 1413.61 635.89 1414.41 635.644C1415.2 635.391 1416.04 635.265 1416.92 635.265C1417.5 635.265 1418.11 635.335 1418.76 635.473C1419.42 635.606 1420.03 635.852 1420.6 636.212C1421.17 636.572 1421.64 637.086 1422.01 637.756C1422.38 638.419 1422.56 639.28 1422.56 640.341V650H1419.79V648.011H1419.68C1419.5 648.378 1419.22 648.737 1418.86 649.091C1418.49 649.444 1418.02 649.738 1417.45 649.972C1416.87 650.205 1416.18 650.322 1415.38 650.322ZM1416 648.049C1416.78 648.049 1417.45 647.895 1418 647.585C1418.57 647.276 1418.99 646.872 1419.28 646.373C1419.58 645.868 1419.73 645.328 1419.73 644.754V642.879C1419.63 642.98 1419.43 643.074 1419.14 643.163C1418.86 643.245 1418.53 643.318 1418.17 643.381C1417.8 643.437 1417.44 643.491 1417.1 643.542C1416.75 643.586 1416.46 643.624 1416.22 643.655C1415.67 643.725 1415.17 643.842 1414.72 644.006C1414.27 644.17 1413.91 644.407 1413.64 644.716C1413.37 645.019 1413.24 645.423 1413.24 645.928C1413.24 646.629 1413.5 647.159 1414.02 647.519C1414.54 647.872 1415.19 648.049 1416 648.049ZM1432.46 650.294C1431.05 650.294 1429.84 649.975 1428.82 649.337C1427.81 648.693 1427.03 647.806 1426.49 646.676C1425.95 645.546 1425.68 644.252 1425.68 642.794C1425.68 641.316 1425.95 640.013 1426.51 638.883C1427.07 637.746 1427.85 636.859 1428.86 636.222C1429.87 635.584 1431.06 635.265 1432.43 635.265C1433.53 635.265 1434.52 635.47 1435.38 635.881C1436.25 636.285 1436.95 636.853 1437.48 637.585C1438.01 638.318 1438.33 639.173 1438.43 640.152H1435.68C1435.53 639.47 1435.18 638.883 1434.64 638.39C1434.1 637.898 1433.38 637.652 1432.48 637.652C1431.69 637.652 1431 637.86 1430.4 638.277C1429.82 638.687 1429.36 639.274 1429.03 640.038C1428.7 640.795 1428.54 641.692 1428.54 642.727C1428.54 643.788 1428.7 644.703 1429.02 645.473C1429.34 646.244 1429.8 646.84 1430.38 647.263C1430.98 647.686 1431.67 647.898 1432.48 647.898C1433.01 647.898 1433.5 647.8 1433.93 647.604C1434.38 647.402 1434.75 647.115 1435.04 646.742C1435.35 646.37 1435.56 645.922 1435.68 645.398H1438.43C1438.33 646.338 1438.03 647.178 1437.51 647.917C1437 648.655 1436.32 649.236 1435.46 649.659C1434.61 650.082 1433.61 650.294 1432.46 650.294ZM1444.06 645.066L1444.05 641.61H1444.54L1450.33 635.455H1453.72L1447.11 642.462H1446.67L1444.06 645.066ZM1441.46 650V630.606H1444.29V650H1441.46ZM1450.65 650L1445.44 643.087L1447.39 641.108L1454.12 650H1450.65Z" fill="white"/>
</g>
</g>
</g>
<defs>
<filter id="filter0_f_348_1195" x="-1200" y="-1050" width="4320" height="4320" filterUnits="userSpaceOnUse" color-interpolation-filters="sRGB">
<feFlood flood-opacity="0" result="BackgroundImageFix"/>
<feBlend mode="normal" in="SourceGraphic" in2="BackgroundImageFix" result="shape"/>
<feGaussianBlur stdDeviation="600" result="effect1_foregroundBlur_348_1195"/>
</filter>
<filter id="filter1_b_348_1195" x="232" y="562" width="1456" height="916" filterUnits="userSpaceOnUse" color-interpolation-filters="sRGB">
<feFlood flood-opacity="0" result="BackgroundImageFix"/>
<feGaussianBlur in="BackgroundImage" stdDeviation="4"/>
<feComposite in2="SourceAlpha" operator="in" result="effect1_backgroundBlur_348_1195"/>
<feBlend mode="normal" in="SourceGraphic" in2="effect1_backgroundBlur_348_1195" result="shape"/>
</filter>
<filter id="filter2_d_348_1195" x="944.026" y="692.019" width="599.675" height="491.734" filterUnits="userSpaceOnUse" color-interpolation-filters="sRGB">
<feFlood flood-opacity="0" result="BackgroundImageFix"/>
<feColorMatrix in="SourceAlpha" type="matrix" values="0 0 0 0 0 0 0 0 0 0 0 0 0 0 0 0 0 0 127 0" result="hardAlpha"/>
<feOffset dy="11.9935"/>
<feGaussianBlur stdDeviation="23.987"/>
<feComposite in2="hardAlpha" operator="out"/>
<feColorMatrix type="matrix" values="0 0 0 0 0 0 0 0 0 0 0 0 0 0 0 0 0 0 0.15 0"/>
<feBlend mode="normal" in2="BackgroundImageFix" result="effect1_dropShadow_348_1195"/>
<feBlend mode="normal" in="SourceGraphic" in2="effect1_dropShadow_348_1195" result="shape"/>
</filter>
<clipPath id="clip0_348_1195">
<rect width="1920" height="1348" fill="white"/>
</clipPath>
<clipPath id="clip1_348_1195">
<rect width="1440" height="900" fill="white" transform="translate(240 570)"/>
</clipPath>
<clipPath id="clip2_348_1195">
<rect width="456.026" height="167.909" fill="white" transform="translate(1015.99 836.049)"/>
</clipPath>
<clipPath id="clip3_348_1195">
<rect width="260" height="80" fill="white" transform="translate(1236 600)"/>
</clipPath>
</defs>
</svg>
