<svg width="407" height="420" viewBox="0 0 407 420" fill="none" xmlns="http://www.w3.org/2000/svg">
<g opacity="0.15">
<path d="M221.48 163.094L91.1377 87.9713V83.5394L221.48 158.662V163.094ZM221.48 163.094L91.1377 87.9713V83.5394L221.48 158.662V163.094Z" fill="#6088FF"/>
<path d="M123.578 77.1113L83.2961 53.8486V49.4167L123.578 72.6794V77.1113ZM123.578 77.1113L83.2961 53.8486V49.4167L123.578 72.6794V77.1113Z" fill="#6088FF"/>
<path d="M360.934 182.123L230.592 107V102.568L360.934 177.691V182.123ZM360.934 182.123L230.592 107V102.568L360.934 177.691V182.123Z" fill="#6088FF"/>
<path d="M200.071 79.8157L150.357 51.1441V46.7123L200.071 75.3839V79.8157ZM200.071 79.8157L150.357 51.1441V46.7123L200.071 75.3839V79.8157Z" fill="#6088FF"/>
<path d="M335.671 140.231L172.718 46.1495V41.7177L335.671 135.799V140.231ZM335.671 140.231L172.718 46.1495V41.7177L335.671 135.799V140.231Z" fill="#6088FF"/>
<path d="M316.539 241.853L266.826 213.181V208.749L316.539 237.421V241.853ZM316.539 241.853L266.826 213.181V208.749L316.539 237.421V241.853Z" fill="#6088FF"/>
<path d="M406.512 284.533L266.826 203.949V199.517L406.512 280.101V284.533ZM406.512 284.533L266.826 203.949V199.517L406.512 280.101V284.533Z" fill="#6088FF"/>
</g>
<path d="M259.414 284.533L264.229 381.027C264.266 381.771 264.66 382.449 265.288 382.849C266.81 383.82 268.804 382.737 268.819 380.933L269.642 285.142C269.652 283.975 268.787 282.988 267.63 282.843L261.992 282.14C260.576 281.963 259.343 283.107 259.414 284.533ZM259.414 284.533L264.229 381.027C264.266 381.771 264.66 382.449 265.288 382.849C266.81 383.82 268.804 382.737 268.819 380.933L269.642 285.142C269.652 283.975 268.787 282.988 267.63 282.843L261.992 282.14C260.576 281.963 259.343 283.107 259.414 284.533Z" fill="#36E7F7"/>
<path d="M268.784 282.85L266.733 381.929C266.733 383.902 271.022 383.45 272.619 382.289L272.939 382.056C273.53 381.627 273.893 380.953 273.931 380.225L278.807 284.196C278.866 283.032 278.084 281.991 276.949 281.724L271.753 280.499C270.237 280.143 268.784 281.292 268.784 282.85ZM268.784 282.85L266.733 381.929C266.733 383.902 271.022 383.45 272.619 382.289L272.939 382.056C273.53 381.627 273.893 380.953 273.931 380.225L278.807 284.196C278.866 283.032 278.084 281.991 276.949 281.724L271.753 280.499C270.237 280.143 268.784 281.292 268.784 282.85Z" fill="#88F7FF"/>
<path d="M318.343 256.891L321.874 258.232V262.468H318.343V256.891ZM318.343 256.891L321.874 258.232V262.468H318.343V256.891Z" fill="#0B246E"/>
<path d="M215.687 310.58L58.2697 219.212L149.165 171.123C155.338 167.857 162.757 168.003 168.797 171.508L319.854 259.185C322.624 260.793 322.544 264.818 319.714 266.316L235.319 310.966C229.146 314.231 221.727 314.085 215.687 310.58ZM215.687 310.58L58.2697 219.212L149.165 171.123C155.338 167.857 162.757 168.003 168.797 171.508L319.854 259.185C322.624 260.793 322.544 264.818 319.714 266.316L235.319 310.966C229.146 314.231 221.727 314.085 215.687 310.58Z" fill="#0B246E"/>
<path d="M215.677 305.847L58.2601 214.479L149.156 166.39C155.328 163.125 162.748 163.27 168.787 166.776L319.845 254.452C322.614 256.06 322.536 260.085 319.705 261.583L235.309 306.233C229.137 309.498 221.717 309.353 215.677 305.847ZM215.677 305.847L58.2601 214.479L149.156 166.39C155.328 163.125 162.748 163.27 168.787 166.776L319.845 254.452C322.614 256.06 322.536 260.085 319.705 261.583L235.309 306.233C229.137 309.498 221.717 309.353 215.677 305.847Z" fill="#88F7FF"/>
<path d="M214.964 245.62L214.958 247.645L187.985 263.319L187.991 261.294L214.964 245.62ZM214.964 245.62L214.958 247.645L187.985 263.319L187.991 261.294L214.964 245.62Z" fill="#D7ECFA"/>
<path d="M187.991 261.294L187.985 263.319L128.284 228.851L128.29 226.826L187.991 261.294ZM187.991 261.294L187.985 263.319L128.284 228.851L128.29 226.826L187.991 261.294Z" fill="#D7ECFA"/>
<path d="M214.965 245.62L187.992 261.294L128.29 226.826L155.263 211.152L214.965 245.62ZM214.965 245.62L187.992 261.294L128.29 226.826L155.263 211.152L214.965 245.62Z" fill="#EEF8FC"/>
<path d="M158.909 215.096L158.906 216.283L155.174 218.453L155.178 217.265L158.909 215.096ZM158.909 215.096L158.906 216.283L155.174 218.453L155.178 217.265L158.909 215.096Z" fill="#D7ECFA"/>
<path d="M155.178 217.265L155.174 218.453L151.493 216.326L151.495 215.14L155.178 217.265ZM155.178 217.265L155.174 218.453L151.493 216.326L151.495 215.14L155.178 217.265Z" fill="#D7ECFA"/>
<path d="M158.909 215.096L155.178 217.265L151.496 215.14L155.227 212.971L158.909 215.096ZM158.909 215.096L155.178 217.265L151.496 215.14L155.227 212.971L158.909 215.096Z" fill="white"/>
<path d="M163.633 217.824L163.629 219.01L159.897 221.179L159.901 219.992L163.633 217.824ZM163.633 217.824L163.629 219.01L159.897 221.179L159.901 219.992L163.633 217.824Z" fill="#D7ECFA"/>
<path d="M159.901 219.992L159.897 221.179L156.215 219.053L156.219 217.867L159.901 219.992ZM159.901 219.992L159.897 221.179L156.215 219.053L156.219 217.867L159.901 219.992Z" fill="#D7ECFA"/>
<path d="M163.633 217.824L159.901 219.992L156.219 217.867L159.951 215.697L163.633 217.824ZM163.633 217.824L159.901 219.992L156.219 217.867L159.951 215.697L163.633 217.824Z" fill="white"/>
<path d="M168.346 220.545L168.343 221.732L164.611 223.901L164.615 222.714L168.346 220.545ZM168.346 220.545L168.343 221.732L164.611 223.901L164.615 222.714L168.346 220.545Z" fill="#D7ECFA"/>
<path d="M164.615 222.714L164.611 223.901L160.93 221.775L160.932 220.588L164.615 222.714ZM164.615 222.714L164.611 223.901L160.93 221.775L160.932 220.588L164.615 222.714Z" fill="#D7ECFA"/>
<path d="M168.346 220.545L164.615 222.714L160.932 220.588L164.665 218.419L168.346 220.545ZM168.346 220.545L164.615 222.714L160.932 220.588L164.665 218.419L168.346 220.545Z" fill="white"/>
<path d="M173.06 223.266L173.058 224.454L169.325 226.623L169.328 225.436L173.06 223.266ZM173.06 223.266L173.058 224.454L169.325 226.623L169.328 225.436L173.06 223.266Z" fill="#D7ECFA"/>
<path d="M169.328 225.436L169.325 226.622L165.644 224.497L165.647 223.309L169.328 225.436ZM169.328 225.436L169.325 226.622L165.644 224.497L165.647 223.309L169.328 225.436Z" fill="#D7ECFA"/>
<path d="M173.06 223.266L169.328 225.436L165.647 223.309L169.379 221.141L173.06 223.266ZM173.06 223.266L169.328 225.436L165.647 223.309L169.379 221.141L173.06 223.266Z" fill="white"/>
<path d="M177.783 225.994L177.78 227.18L174.049 229.35L174.052 228.162L177.783 225.994ZM177.783 225.994L177.78 227.18L174.049 229.35L174.052 228.162L177.783 225.994Z" fill="#D7ECFA"/>
<path d="M174.052 228.162L174.049 229.35L170.366 227.223L170.37 226.037L174.052 228.162ZM174.052 228.162L174.049 229.35L170.366 227.223L170.37 226.037L174.052 228.162Z" fill="#D7ECFA"/>
<path d="M177.783 225.994L174.052 228.162L170.37 226.037L174.102 223.868L177.783 225.994ZM177.783 225.994L174.052 228.162L170.37 226.037L174.102 223.868L177.783 225.994Z" fill="white"/>
<path d="M182.498 228.715L182.495 229.902L178.762 232.071L178.766 230.884L182.498 228.715ZM182.498 228.715L182.495 229.902L178.762 232.071L178.766 230.884L182.498 228.715Z" fill="#D7ECFA"/>
<path d="M178.766 230.884L178.762 232.071L175.081 229.945L175.084 228.759L178.766 230.884ZM178.766 230.884L178.762 232.071L175.081 229.945L175.084 228.759L178.766 230.884Z" fill="#D7ECFA"/>
<path d="M182.498 228.715L178.766 230.884L175.084 228.758L178.816 226.589L182.498 228.715ZM182.498 228.715L178.766 230.884L175.084 228.758L178.816 226.589L182.498 228.715Z" fill="white"/>
<path d="M187.212 231.437L187.209 232.624L183.476 234.793L183.48 233.606L187.212 231.437ZM187.212 231.437L187.209 232.624L183.476 234.793L183.48 233.606L187.212 231.437Z" fill="#D7ECFA"/>
<path d="M183.48 233.605L183.476 234.793L179.795 232.667L179.798 231.48L183.48 233.605ZM183.48 233.605L183.476 234.793L179.795 232.667L179.798 231.48L183.48 233.605Z" fill="#D7ECFA"/>
<path d="M187.212 231.437L183.48 233.606L179.798 231.48L183.53 229.312L187.212 231.437ZM187.212 231.437L183.48 233.606L179.798 231.48L183.53 229.312L187.212 231.437Z" fill="white"/>
<path d="M191.935 234.164L191.931 235.351L188.2 237.52L188.203 236.332L191.935 234.164ZM191.935 234.164L191.931 235.351L188.2 237.52L188.203 236.332L191.935 234.164Z" fill="#D7ECFA"/>
<path d="M188.203 236.332L188.2 237.52L184.509 235.389L184.512 234.202L188.203 236.332ZM188.203 236.332L188.2 237.52L184.509 235.389L184.512 234.202L188.203 236.332Z" fill="#D7ECFA"/>
<path d="M191.935 234.164L188.203 236.332L184.512 234.202L188.244 232.032L191.935 234.164ZM191.935 234.164L188.203 236.332L184.512 234.202L188.244 232.032L191.935 234.164Z" fill="white"/>
<path d="M196.649 236.885L196.646 238.073L192.913 240.241L192.917 239.054L196.649 236.885ZM196.649 236.885L196.646 238.073L192.913 240.241L192.917 239.054L196.649 236.885Z" fill="#D7ECFA"/>
<path d="M192.917 239.054L192.913 240.242L189.232 238.116L189.236 236.928L192.917 239.054ZM192.917 239.054L192.913 240.242L189.232 238.116L189.236 236.928L192.917 239.054Z" fill="#D7ECFA"/>
<path d="M196.65 236.885L192.917 239.054L189.236 236.928L192.967 234.76L196.65 236.885ZM196.65 236.885L192.917 239.054L189.236 236.928L192.967 234.76L196.65 236.885Z" fill="white"/>
<path d="M201.363 239.607L201.36 240.795L197.627 242.963L197.631 241.776L201.363 239.607ZM201.363 239.607L201.36 240.795L197.627 242.963L197.631 241.776L201.363 239.607Z" fill="#D7ECFA"/>
<path d="M197.631 241.776L197.627 242.964L193.946 240.837L193.949 239.65L197.631 241.776ZM197.631 241.776L197.627 242.964L193.946 240.837L193.949 239.65L197.631 241.776Z" fill="#D7ECFA"/>
<path d="M201.363 239.607L197.631 241.776L193.949 239.65L197.681 237.482L201.363 239.607ZM201.363 239.607L197.631 241.776L193.949 239.65L197.681 237.482L201.363 239.607Z" fill="white"/>
<path d="M210.801 245.056L210.797 246.243L207.064 248.411L207.068 247.225L210.801 245.056ZM210.801 245.056L210.797 246.243L207.064 248.411L207.068 247.225L210.801 245.056Z" fill="#D7ECFA"/>
<path d="M207.068 247.225L207.064 248.411L198.66 243.559L198.663 242.372L207.068 247.225ZM207.068 247.225L207.064 248.411L198.66 243.559L198.663 242.372L207.068 247.225Z" fill="#D7ECFA"/>
<path d="M210.8 245.056L207.068 247.225L198.663 242.372L202.395 240.203L210.8 245.056ZM210.8 245.056L207.068 247.225L198.663 242.372L202.395 240.203L210.8 245.056Z" fill="white"/>
<path d="M158.876 220.589L158.872 221.775L155.141 223.944L155.144 222.757L158.876 220.589ZM158.876 220.589L158.872 221.775L155.141 223.944L155.144 222.757L158.876 220.589Z" fill="#D7ECFA"/>
<path d="M155.144 222.757L155.141 223.944L146.735 219.091L146.738 217.904L155.144 222.757ZM155.144 222.757L155.141 223.944L146.735 219.091L146.738 217.904L155.144 222.757Z" fill="#D7ECFA"/>
<path d="M158.876 220.589L155.143 222.757L146.738 217.904L150.47 215.736L158.876 220.589ZM158.876 220.589L155.143 222.757L146.738 217.904L150.47 215.736L158.876 220.589Z" fill="white"/>
<path d="M163.589 223.309L163.586 224.497L159.854 226.666L159.858 225.479L163.589 223.309ZM163.589 223.309L163.586 224.497L159.854 226.666L159.858 225.479L163.589 223.309Z" fill="#D7ECFA"/>
<path d="M159.858 225.479L159.854 226.665L156.172 224.54L156.176 223.352L159.858 225.479ZM159.858 225.479L159.854 226.665L156.172 224.54L156.176 223.352L159.858 225.479Z" fill="#D7ECFA"/>
<path d="M163.589 223.309L159.858 225.479L156.176 223.352L159.908 221.184L163.589 223.309ZM163.589 223.309L159.858 225.479L156.176 223.352L159.908 221.184L163.589 223.309Z" fill="white"/>
<path d="M168.303 226.031L168.3 227.219L164.568 229.387L164.572 228.2L168.303 226.031ZM168.303 226.031L168.3 227.219L164.568 229.387L164.572 228.2L168.303 226.031Z" fill="#D7ECFA"/>
<path d="M164.572 228.199L164.568 229.387L160.886 227.262L160.889 226.074L164.572 228.199ZM164.572 228.199L164.568 229.387L160.886 227.262L160.889 226.074L164.572 228.199Z" fill="#D7ECFA"/>
<path d="M168.303 226.031L164.572 228.2L160.889 226.074L164.622 223.906L168.303 226.031ZM168.303 226.031L164.572 228.2L160.889 226.074L164.622 223.906L168.303 226.031Z" fill="white"/>
<path d="M173.027 228.759L173.023 229.945L169.292 232.115L169.295 230.927L173.027 228.759ZM173.027 228.759L173.023 229.945L169.292 232.115L169.295 230.927L173.027 228.759Z" fill="#D7ECFA"/>
<path d="M169.295 230.927L169.292 232.115L165.609 229.988L165.613 228.802L169.295 230.927ZM169.295 230.927L169.292 232.115L165.609 229.988L165.613 228.802L169.295 230.927Z" fill="#D7ECFA"/>
<path d="M173.027 228.759L169.295 230.927L165.613 228.802L169.344 226.632L173.027 228.759ZM173.027 228.759L169.295 230.927L165.613 228.802L169.344 226.632L173.027 228.759Z" fill="white"/>
<path d="M177.74 231.48L177.737 232.667L174.005 234.835L174.009 233.649L177.74 231.48ZM177.74 231.48L177.737 232.667L174.005 234.835L174.009 233.649L177.74 231.48Z" fill="#D7ECFA"/>
<path d="M174.009 233.649L174.005 234.835L170.323 232.71L170.326 231.523L174.009 233.649ZM174.009 233.649L174.005 234.835L170.323 232.71L170.326 231.523L174.009 233.649Z" fill="#D7ECFA"/>
<path d="M177.74 231.48L174.009 233.649L170.326 231.523L174.059 229.355L177.74 231.48ZM177.74 231.48L174.009 233.649L170.326 231.523L174.059 229.355L177.74 231.48Z" fill="white"/>
<path d="M182.454 234.202L182.451 235.389L178.719 237.557L178.723 236.37L182.454 234.202ZM182.454 234.202L182.451 235.389L178.719 237.557L178.723 236.37L182.454 234.202Z" fill="#D7ECFA"/>
<path d="M178.723 236.37L178.719 237.557L175.038 235.432L175.04 234.245L178.723 236.37ZM178.723 236.37L178.719 237.557L175.038 235.432L175.04 234.245L178.723 236.37Z" fill="#D7ECFA"/>
<path d="M182.454 234.202L178.723 236.37L175.041 234.245L178.773 232.075L182.454 234.202ZM182.454 234.202L178.723 236.37L175.041 234.245L178.773 232.075L182.454 234.202Z" fill="white"/>
<path d="M187.178 236.928L187.174 238.116L183.443 240.285L183.446 239.097L187.178 236.928ZM187.178 236.928L187.174 238.116L183.443 240.285L183.446 239.097L187.178 236.928Z" fill="#D7ECFA"/>
<path d="M183.446 239.097L183.443 240.284L179.752 238.153L179.755 236.966L183.446 239.097ZM183.446 239.097L183.443 240.284L179.752 238.153L179.755 236.966L183.446 239.097Z" fill="#D7ECFA"/>
<path d="M187.178 236.928L183.446 239.097L179.755 236.966L183.487 234.797L187.178 236.928ZM187.178 236.928L183.446 239.097L179.755 236.966L183.487 234.797L187.178 236.928Z" fill="white"/>
<path d="M191.892 239.65L191.888 240.837L188.156 243.006L188.16 241.819L191.892 239.65ZM191.892 239.65L191.888 240.837L188.156 243.006L188.16 241.819L191.892 239.65Z" fill="#D7ECFA"/>
<path d="M188.16 241.819L188.156 243.006L184.475 240.88L184.478 239.693L188.16 241.819ZM188.16 241.819L188.156 243.006L184.475 240.88L184.478 239.693L188.16 241.819Z" fill="#D7ECFA"/>
<path d="M191.892 239.65L188.16 241.819L184.478 239.693L188.21 237.525L191.892 239.65ZM191.892 239.65L188.16 241.819L184.478 239.693L188.21 237.525L191.892 239.65Z" fill="white"/>
<path d="M196.605 242.372L196.602 243.559L192.87 245.728L192.874 244.54L196.605 242.372ZM196.605 242.372L196.602 243.559L192.87 245.728L192.874 244.54L196.605 242.372Z" fill="#D7ECFA"/>
<path d="M192.874 244.541L192.87 245.728L189.189 243.602L189.192 242.415L192.874 244.541ZM192.874 244.541L192.87 245.728L189.189 243.602L189.192 242.415L192.874 244.541Z" fill="#D7ECFA"/>
<path d="M196.605 242.372L192.874 244.54L189.192 242.415L192.924 240.246L196.605 242.372ZM196.605 242.372L192.874 244.54L189.192 242.415L192.924 240.246L196.605 242.372Z" fill="white"/>
<path d="M201.329 245.098L201.325 246.286L197.594 248.454L197.597 247.268L201.329 245.098ZM201.329 245.098L201.325 246.286L197.594 248.454L197.597 247.268L201.329 245.098Z" fill="#D7ECFA"/>
<path d="M197.597 247.268L197.594 248.454L193.903 246.323L193.906 245.136L197.597 247.268ZM197.597 247.268L197.594 248.454L193.903 246.323L193.906 245.136L197.597 247.268Z" fill="#D7ECFA"/>
<path d="M201.329 245.098L197.597 247.268L193.906 245.137L197.638 242.968L201.329 245.098ZM201.329 245.098L197.597 247.268L193.906 245.137L197.638 242.968L201.329 245.098Z" fill="white"/>
<path d="M206.043 247.82L206.039 249.008L202.308 251.176L202.311 249.99L206.043 247.82ZM206.043 247.82L206.039 249.008L202.308 251.176L202.311 249.99L206.043 247.82Z" fill="#D7ECFA"/>
<path d="M202.311 249.989L202.308 251.176L198.626 249.051L198.629 247.863L202.311 249.989ZM202.311 249.989L202.308 251.176L198.626 249.051L198.629 247.863L202.311 249.989Z" fill="#D7ECFA"/>
<path d="M206.043 247.82L202.311 249.99L198.629 247.863L202.361 245.695L206.043 247.82ZM206.043 247.82L202.311 249.99L198.629 247.863L202.361 245.695L206.043 247.82Z" fill="white"/>
<path d="M154.118 223.353L154.115 224.54L150.383 226.709L150.386 225.521L154.118 223.353ZM154.118 223.353L154.115 224.54L150.383 226.709L150.386 225.521L154.118 223.353Z" fill="#D7ECFA"/>
<path d="M150.386 225.521L150.383 226.709L141.978 221.856L141.981 220.669L150.386 225.521ZM150.386 225.521L150.383 226.709L141.978 221.856L141.981 220.669L150.386 225.521Z" fill="#D7ECFA"/>
<path d="M154.118 223.352L150.386 225.521L141.981 220.669L145.713 218.5L154.118 223.352ZM154.118 223.352L150.386 225.521L141.981 220.669L145.713 218.5L154.118 223.352Z" fill="white"/>
<path d="M158.832 226.074L158.829 227.262L155.097 229.43L155.1 228.243L158.832 226.074ZM158.832 226.074L158.829 227.262L155.097 229.43L155.1 228.243L158.832 226.074Z" fill="#D7ECFA"/>
<path d="M155.1 228.243L155.097 229.43L151.415 227.305L151.418 226.117L155.1 228.243ZM155.1 228.243L155.097 229.43L151.415 227.305L151.418 226.117L155.1 228.243Z" fill="#D7ECFA"/>
<path d="M158.832 226.074L155.1 228.243L151.418 226.117L155.15 223.949L158.832 226.074ZM158.832 226.074L155.1 228.243L151.418 226.117L155.15 223.949L158.832 226.074Z" fill="white"/>
<path d="M163.546 228.796L163.543 229.984L159.811 232.152L159.814 230.964L163.546 228.796ZM163.546 228.796L163.543 229.984L159.811 232.152L159.814 230.964L163.546 228.796Z" fill="#D7ECFA"/>
<path d="M159.814 230.964L159.811 232.152L156.129 230.026L156.132 228.839L159.814 230.964ZM159.814 230.964L159.811 232.152L156.129 230.026L156.132 228.839L159.814 230.964Z" fill="#D7ECFA"/>
<path d="M163.546 228.796L159.814 230.964L156.132 228.839L159.864 226.67L163.546 228.796ZM163.546 228.796L159.814 230.964L156.132 228.839L159.864 226.67L163.546 228.796Z" fill="white"/>
<path d="M168.27 231.523L168.266 232.71L164.535 234.878L164.537 233.692L168.27 231.523ZM168.27 231.523L168.266 232.71L164.535 234.878L164.537 233.692L168.27 231.523Z" fill="#D7ECFA"/>
<path d="M164.537 233.692L164.535 234.878L160.852 232.753L160.856 231.565L164.537 233.692ZM164.537 233.692L164.535 234.878L160.852 232.753L160.856 231.565L164.537 233.692Z" fill="#D7ECFA"/>
<path d="M168.27 231.523L164.537 233.692L160.856 231.565L164.587 229.397L168.27 231.523ZM168.27 231.523L164.537 233.692L160.856 231.565L164.587 229.397L168.27 231.523Z" fill="white"/>
<path d="M172.983 234.245L172.98 235.432L169.248 237.6L169.252 236.413L172.983 234.245ZM172.983 234.245L172.98 235.432L169.248 237.6L169.252 236.413L172.983 234.245Z" fill="#D7ECFA"/>
<path d="M169.252 236.413L169.248 237.6L165.566 235.474L165.57 234.287L169.252 236.413ZM169.252 236.413L169.248 237.6L165.566 235.474L165.57 234.287L169.252 236.413Z" fill="#D7ECFA"/>
<path d="M172.983 234.245L169.252 236.413L165.57 234.287L169.301 232.118L172.983 234.245ZM172.983 234.245L169.252 236.413L165.57 234.287L169.301 232.118L172.983 234.245Z" fill="white"/>
<path d="M177.697 236.966L177.694 238.153L173.962 240.322L173.966 239.135L177.697 236.966ZM177.697 236.966L177.694 238.153L173.962 240.322L173.966 239.135L177.697 236.966Z" fill="#D7ECFA"/>
<path d="M173.966 239.135L173.962 240.322L170.28 238.196L170.283 237.009L173.966 239.135ZM173.966 239.135L173.962 240.322L170.28 238.196L170.283 237.009L173.966 239.135Z" fill="#D7ECFA"/>
<path d="M177.697 236.966L173.966 239.135L170.283 237.009L174.016 234.84L177.697 236.966ZM177.697 236.966L173.966 239.135L170.283 237.009L174.016 234.84L177.697 236.966Z" fill="white"/>
<path d="M182.421 239.693L182.417 240.88L178.686 243.049L178.689 241.862L182.421 239.693ZM182.421 239.693L182.417 240.88L178.686 243.049L178.689 241.862L182.421 239.693Z" fill="#D7ECFA"/>
<path d="M178.689 241.861L178.686 243.049L174.995 240.918L174.997 239.73L178.689 241.861ZM178.689 241.861L178.686 243.049L174.995 240.918L174.997 239.73L178.689 241.861Z" fill="#D7ECFA"/>
<path d="M182.421 239.693L178.689 241.862L174.997 239.73L178.73 237.562L182.421 239.693ZM182.421 239.693L178.689 241.862L174.997 239.73L178.73 237.562L182.421 239.693Z" fill="white"/>
<path d="M187.135 242.415L187.131 243.602L183.4 245.77L183.403 244.583L187.135 242.415ZM187.135 242.415L187.131 243.602L183.4 245.77L183.403 244.583L187.135 242.415Z" fill="#D7ECFA"/>
<path d="M183.403 244.583L183.4 245.77L179.717 243.644L179.721 242.458L183.403 244.583ZM183.403 244.583L183.4 245.77L179.717 243.644L179.721 242.458L183.403 244.583Z" fill="#D7ECFA"/>
<path d="M187.135 242.415L183.403 244.583L179.721 242.458L183.453 240.289L187.135 242.415ZM187.135 242.415L183.403 244.583L179.721 242.458L183.453 240.289L187.135 242.415Z" fill="white"/>
<path d="M191.848 245.136L191.845 246.323L188.113 248.492L188.117 247.305L191.848 245.136ZM191.848 245.136L191.845 246.323L188.113 248.492L188.117 247.305L191.848 245.136Z" fill="#D7ECFA"/>
<path d="M188.117 247.305L188.113 248.492L184.431 246.366L184.434 245.18L188.117 247.305ZM188.117 247.305L188.113 248.492L184.431 246.366L184.434 245.18L188.117 247.305Z" fill="#D7ECFA"/>
<path d="M191.848 245.136L188.117 247.305L184.434 245.18L188.167 243.01L191.848 245.136ZM191.848 245.136L188.117 247.305L184.434 245.18L188.167 243.01L191.848 245.136Z" fill="white"/>
<path d="M201.286 250.585L201.282 251.772L197.551 253.941L197.554 252.753L201.286 250.585ZM201.286 250.585L201.282 251.772L197.551 253.941L197.554 252.753L201.286 250.585Z" fill="#D7ECFA"/>
<path d="M197.554 252.753L197.551 253.941L189.146 249.088L189.149 247.901L197.554 252.753ZM197.554 252.753L197.551 253.941L189.146 249.088L189.149 247.901L197.554 252.753Z" fill="#D7ECFA"/>
<path d="M201.286 250.585L197.554 252.753L189.149 247.901L192.881 245.732L201.286 250.585ZM201.286 250.585L197.554 252.753L189.149 247.901L192.881 245.732L201.286 250.585Z" fill="white"/>
<path d="M154.066 228.844L154.062 230.031L150.331 232.2L150.334 231.013L154.066 228.844ZM154.066 228.844L154.062 230.031L150.331 232.2L150.334 231.013L154.066 228.844Z" fill="#D7ECFA"/>
<path d="M150.334 231.013L150.331 232.2L137.211 224.625L137.214 223.438L150.334 231.013ZM150.334 231.013L150.331 232.2L137.211 224.625L137.214 223.438L150.334 231.013Z" fill="#D7ECFA"/>
<path d="M154.066 228.845L150.334 231.013L137.214 223.439L140.947 221.27L154.066 228.845ZM154.066 228.845L150.334 231.013L137.214 223.439L140.947 221.27L154.066 228.845Z" fill="white"/>
<path d="M158.779 231.565L158.776 232.753L155.044 234.922L155.048 233.735L158.779 231.565ZM158.779 231.565L158.776 232.753L155.044 234.922L155.048 233.735L158.779 231.565Z" fill="#D7ECFA"/>
<path d="M155.048 233.735L155.044 234.922L151.362 232.796L151.366 231.609L155.048 233.735ZM155.048 233.735L155.044 234.922L151.362 232.796L151.366 231.609L155.048 233.735Z" fill="#D7ECFA"/>
<path d="M158.779 231.565L155.048 233.735L151.366 231.609L155.098 229.44L158.779 231.565ZM158.779 231.565L155.048 233.735L151.366 231.609L155.098 229.44L158.779 231.565Z" fill="white"/>
<path d="M163.503 234.293L163.5 235.48L159.768 237.649L159.772 236.461L163.503 234.293ZM163.503 234.293L163.5 235.48L159.768 237.649L159.772 236.461L163.503 234.293Z" fill="#D7ECFA"/>
<path d="M159.772 236.461L159.768 237.649L156.086 235.522L156.089 234.336L159.772 236.461ZM159.772 236.461L159.768 237.649L156.086 235.522L156.089 234.336L159.772 236.461Z" fill="#D7ECFA"/>
<path d="M163.503 234.293L159.772 236.461L156.089 234.336L159.821 232.167L163.503 234.293ZM163.503 234.293L159.772 236.461L156.089 234.336L159.821 232.167L163.503 234.293Z" fill="white"/>
<path d="M168.217 237.014L168.213 238.201L164.482 240.371L164.485 239.183L168.217 237.014ZM168.217 237.014L168.213 238.201L164.482 240.371L164.485 239.183L168.217 237.014Z" fill="#D7ECFA"/>
<path d="M164.485 239.183L164.482 240.37L160.799 238.244L160.803 237.057L164.485 239.183ZM164.485 239.183L164.482 240.37L160.799 238.244L160.803 237.057L164.485 239.183Z" fill="#D7ECFA"/>
<path d="M168.217 237.014L164.485 239.183L160.803 237.057L164.536 234.889L168.217 237.014ZM168.217 237.014L164.485 239.183L160.803 237.057L164.536 234.889L168.217 237.014Z" fill="white"/>
<path d="M172.931 239.736L172.927 240.923L169.196 243.092L169.199 241.905L172.931 239.736ZM172.931 239.736L172.927 240.923L169.196 243.092L169.199 241.905L172.931 239.736Z" fill="#D7ECFA"/>
<path d="M169.199 241.905L169.196 243.092L165.514 240.966L165.517 239.779L169.199 241.905ZM169.199 241.905L169.196 243.092L165.514 240.966L165.517 239.779L169.199 241.905Z" fill="#D7ECFA"/>
<path d="M172.931 239.736L169.199 241.905L165.517 239.779L169.249 237.611L172.931 239.736ZM172.931 239.736L169.199 241.905L165.517 239.779L169.249 237.611L172.931 239.736Z" fill="white"/>
<path d="M177.654 242.464L177.651 243.65L173.919 245.819L173.922 244.632L177.654 242.464ZM177.654 242.464L177.651 243.65L173.919 245.819L173.922 244.632L177.654 242.464Z" fill="#D7ECFA"/>
<path d="M173.922 244.632L173.919 245.819L170.228 243.688L170.232 242.501L173.922 244.632ZM173.922 244.632L173.919 245.819L170.228 243.688L170.232 242.501L173.922 244.632Z" fill="#D7ECFA"/>
<path d="M177.654 242.464L173.922 244.632L170.232 242.501L173.963 240.332L177.654 242.464ZM177.654 242.464L173.922 244.632L170.232 242.501L173.963 240.332L177.654 242.464Z" fill="white"/>
<path d="M182.368 245.184L182.364 246.372L178.633 248.54L178.636 247.354L182.368 245.184ZM182.368 245.184L182.364 246.372L178.633 248.54L178.636 247.354L182.368 245.184Z" fill="#D7ECFA"/>
<path d="M178.636 247.354L178.633 248.54L174.951 246.415L174.954 245.227L178.636 247.354ZM178.636 247.354L178.633 248.54L174.951 246.415L174.954 245.227L178.636 247.354Z" fill="#D7ECFA"/>
<path d="M182.368 245.184L178.636 247.354L174.954 245.227L178.687 243.059L182.368 245.184ZM182.368 245.184L178.636 247.354L174.954 245.227L178.687 243.059L182.368 245.184Z" fill="white"/>
<path d="M187.082 247.906L187.078 249.094L183.347 251.262L183.35 250.075L187.082 247.906ZM187.082 247.906L187.078 249.094L183.347 251.262L183.35 250.075L187.082 247.906Z" fill="#D7ECFA"/>
<path d="M183.35 250.075L183.347 251.262L179.665 249.136L179.668 247.949L183.35 250.075ZM183.35 250.075L183.347 251.262L179.665 249.136L179.668 247.949L183.35 250.075Z" fill="#D7ECFA"/>
<path d="M187.082 247.906L183.35 250.075L179.668 247.949L183.4 245.781L187.082 247.906ZM187.082 247.906L183.35 250.075L179.668 247.949L183.4 245.781L187.082 247.906Z" fill="white"/>
<path d="M196.519 253.355L196.516 254.542L192.784 256.71L192.787 255.524L196.519 253.355ZM196.519 253.355L196.516 254.542L192.784 256.71L192.787 255.524L196.519 253.355Z" fill="#D7ECFA"/>
<path d="M192.787 255.524L192.784 256.711L184.379 251.859L184.383 250.671L192.787 255.524ZM192.787 255.524L192.784 256.711L184.379 251.859L184.383 250.671L192.787 255.524Z" fill="#D7ECFA"/>
<path d="M196.519 253.355L192.787 255.524L184.383 250.671L188.114 248.502L196.519 253.355ZM196.519 253.355L192.787 255.524L184.383 250.671L188.114 248.502L196.519 253.355Z" fill="white"/>
<path d="M139.871 226.16L139.868 227.348L136.136 229.516L136.14 228.329L139.871 226.16ZM139.871 226.16L139.868 227.348L136.136 229.516L136.14 228.329L139.871 226.16Z" fill="#D7ECFA"/>
<path d="M136.14 228.329L136.136 229.516L132.454 227.39L132.458 226.203L136.14 228.329ZM136.14 228.329L136.136 229.516L132.454 227.39L132.458 226.203L136.14 228.329Z" fill="#D7ECFA"/>
<path d="M139.871 226.16L136.14 228.329L132.458 226.203L136.189 224.035L139.871 226.16ZM139.871 226.16L136.14 228.329L132.458 226.203L136.189 224.035L139.871 226.16Z" fill="white"/>
<path d="M144.595 228.887L144.591 230.074L140.859 232.243L140.862 231.056L144.595 228.887ZM144.595 228.887L144.591 230.074L140.859 232.243L140.862 231.056L144.595 228.887Z" fill="#D7ECFA"/>
<path d="M140.862 231.056L140.859 232.243L137.177 230.117L137.181 228.93L140.862 231.056ZM140.862 231.056L140.859 232.243L137.177 230.117L137.181 228.93L140.862 231.056Z" fill="#D7ECFA"/>
<path d="M144.595 228.887L140.862 231.056L137.181 228.93L140.913 226.761L144.595 228.887ZM144.595 228.887L140.862 231.056L137.181 228.93L140.913 226.761L144.595 228.887Z" fill="white"/>
<path d="M149.309 231.609L149.305 232.796L145.574 234.965L145.576 233.778L149.309 231.609ZM149.309 231.609L149.305 232.796L145.574 234.965L145.576 233.778L149.309 231.609Z" fill="#D7ECFA"/>
<path d="M145.576 233.778L145.574 234.964L141.891 232.839L141.895 231.651L145.576 233.778ZM145.576 233.778L145.574 234.964L141.891 232.839L141.895 231.651L145.576 233.778Z" fill="#D7ECFA"/>
<path d="M149.309 231.609L145.577 233.778L141.895 231.651L145.626 229.483L149.309 231.609ZM149.309 231.609L145.577 233.778L141.895 231.651L145.626 229.483L149.309 231.609Z" fill="white"/>
<path d="M172.897 245.228L172.894 246.415L169.162 248.584L169.165 247.396L172.897 245.228ZM172.897 245.228L172.894 246.415L169.162 248.584L169.165 247.396L172.897 245.228Z" fill="#D7ECFA"/>
<path d="M169.165 247.396L169.162 248.583L146.605 235.561L146.608 234.373L169.165 247.396ZM169.165 247.396L169.162 248.583L146.605 235.561L146.608 234.373L169.165 247.396Z" fill="#D7ECFA"/>
<path d="M172.897 245.227L169.165 247.396L146.608 234.373L150.34 232.205L172.897 245.227ZM172.897 245.227L169.165 247.396L146.608 234.373L150.34 232.205L172.897 245.227Z" fill="white"/>
<path d="M177.611 247.949L177.608 249.136L173.876 251.305L173.879 250.118L177.611 247.949ZM177.611 247.949L177.608 249.136L173.876 251.305L173.879 250.118L177.611 247.949Z" fill="#D7ECFA"/>
<path d="M173.879 250.118L173.876 251.305L170.193 249.18L170.197 247.992L173.879 250.118ZM173.879 250.118L173.876 251.305L170.193 249.18L170.197 247.992L173.879 250.118Z" fill="#D7ECFA"/>
<path d="M177.611 247.949L173.879 250.118L170.197 247.992L173.929 245.824L177.611 247.949ZM177.611 247.949L173.879 250.118L170.197 247.992L173.929 245.824L177.611 247.949Z" fill="white"/>
<path d="M182.325 250.671L182.321 251.859L178.59 254.027L178.593 252.839L182.325 250.671ZM182.325 250.671L182.321 251.859L178.59 254.027L178.593 252.839L182.325 250.671Z" fill="#D7ECFA"/>
<path d="M178.593 252.839L178.59 254.027L174.907 251.901L174.911 250.714L178.593 252.839ZM178.593 252.839L178.59 254.027L174.907 251.901L174.911 250.714L178.593 252.839Z" fill="#D7ECFA"/>
<path d="M182.325 250.671L178.593 252.839L174.911 250.714L178.643 248.545L182.325 250.671ZM182.325 250.671L178.593 252.839L174.911 250.714L178.643 248.545L182.325 250.671Z" fill="white"/>
<path d="M191.762 256.12L191.758 257.307L188.027 259.475L188.03 258.288L191.762 256.12ZM191.762 256.12L191.758 257.307L188.027 259.475L188.03 258.288L191.762 256.12Z" fill="#D7ECFA"/>
<path d="M188.03 258.288L188.027 259.475L179.622 254.622L179.625 253.436L188.03 258.288ZM188.03 258.288L188.027 259.475L179.622 254.622L179.625 253.436L188.03 258.288Z" fill="#D7ECFA"/>
<path d="M191.762 256.12L188.03 258.289L179.625 253.436L183.357 251.267L191.762 256.12ZM191.762 256.12L188.03 258.289L179.625 253.436L183.357 251.267L191.762 256.12Z" fill="white"/>
<path d="M247.086 277.646C242.112 280.517 234.051 280.517 229.077 277.646C224.104 274.775 224.104 270.119 229.077 267.248C234.051 264.377 242.112 264.377 247.086 267.248C252.059 270.119 252.059 274.775 247.086 277.646ZM247.086 277.646C242.112 280.517 234.051 280.517 229.077 277.646C224.104 274.775 224.104 270.119 229.077 267.248C234.051 264.377 242.112 264.377 247.086 267.248C252.059 270.119 252.059 274.775 247.086 277.646Z" fill="#FF4A57"/>
<path d="M250.816 272.446H225.348V251.155H250.816V272.446ZM250.816 272.446H225.348V251.155H250.816V272.446Z" fill="#FF4A57"/>
<path d="M247.087 256.353C242.113 259.224 234.051 259.224 229.077 256.353C224.104 253.483 224.104 248.827 229.077 245.956C234.051 243.085 242.113 243.085 247.087 245.956C252.06 248.827 252.059 253.483 247.087 256.353ZM247.087 256.353C242.113 259.224 234.051 259.224 229.077 256.353C224.104 253.483 224.104 248.827 229.077 245.956C234.051 243.085 242.113 243.085 247.087 245.956C252.06 248.827 252.059 253.483 247.087 256.353Z" fill="white"/>
<path d="M247.767 252.737C247.27 253.426 246.485 254.077 245.404 254.632C241.442 256.661 235.03 256.661 231.068 254.632C229.986 254.077 229.202 253.426 228.714 252.737C227.402 250.9 228.187 248.756 231.068 247.282C235.03 245.253 241.442 245.253 245.404 247.282C248.284 248.756 249.069 250.9 247.767 252.737ZM247.767 252.737C247.27 253.426 246.485 254.077 245.404 254.632C241.442 256.661 235.03 256.661 231.068 254.632C229.986 254.077 229.202 253.426 228.714 252.737C227.402 250.9 228.187 248.756 231.068 247.282C235.03 245.253 241.442 245.253 245.404 247.282C248.284 248.756 249.069 250.9 247.767 252.737Z" fill="#EBEBEB"/>
<path d="M247.767 252.737C247.27 253.426 246.485 254.077 245.404 254.632C241.442 256.661 235.03 256.661 231.068 254.632C229.986 254.077 229.202 253.426 228.714 252.737C229.202 252.048 229.986 251.397 231.068 250.842C235.03 248.813 241.442 248.813 245.404 250.842C246.485 251.397 247.27 252.048 247.767 252.737ZM247.767 252.737C247.27 253.426 246.485 254.077 245.404 254.632C241.442 256.661 235.03 256.661 231.068 254.632C229.986 254.077 229.202 253.426 228.714 252.737C229.202 252.048 229.986 251.397 231.068 250.842C235.03 248.813 241.442 248.813 245.404 250.842C246.485 251.397 247.27 252.048 247.767 252.737Z" fill="#544438"/>
<path d="M143.008 213.4L111.948 195.468L155.875 170.106L186.935 188.038L143.008 213.4ZM143.008 213.4L111.948 195.468L155.875 170.106L186.935 188.038L143.008 213.4Z" fill="white"/>
<path d="M143.632 207.326L115.585 191.133L155.251 168.232L183.297 184.425L143.632 207.326ZM143.632 207.326L115.585 191.133L155.251 168.232L183.297 184.425L143.632 207.326Z" fill="#4661AD"/>
<path d="M209.267 232.895L189.006 221.197C187.702 220.443 187.702 218.562 189.006 217.809L212.076 204.489L238.083 219.504L214.888 232.895C213.149 233.899 211.006 233.899 209.267 232.895ZM209.267 232.895L189.006 221.197C187.702 220.443 187.702 218.562 189.006 217.809L212.076 204.489L238.083 219.504L214.888 232.895C213.149 233.899 211.006 233.899 209.267 232.895Z" fill="#051622"/>
<path d="M176.283 113.16L173.319 115.164L176.2 188.478L270.243 245.994L272.935 244.187C273.354 243.907 273.604 243.435 273.604 242.932V170.178C273.604 169.352 273.164 168.589 272.449 168.177L177.13 113.13C176.864 112.977 176.536 112.989 176.283 113.16ZM176.283 113.16L173.319 115.164L176.2 188.478L270.243 245.994L272.935 244.187C273.354 243.907 273.604 243.435 273.604 242.932V170.178C273.604 169.352 273.164 168.589 272.449 168.177L177.13 113.13C176.864 112.977 176.536 112.989 176.283 113.16Z" fill="#051622"/>
<path d="M269.088 170.01C269.979 170.525 270.528 171.476 270.528 172.504V245.24C270.528 245.897 269.817 246.308 269.247 245.98L175.396 191.788C173.99 190.976 173.124 189.475 173.124 187.851V115.646C173.124 115.181 173.628 114.889 174.031 115.122L269.088 170.01ZM269.088 170.01C269.979 170.525 270.528 171.476 270.528 172.504V245.24C270.528 245.897 269.817 246.308 269.247 245.98L175.396 191.788C173.99 190.976 173.124 189.475 173.124 187.851V115.646C173.124 115.181 173.628 114.889 174.031 115.122" fill="#FF4A57"/>
<path d="M173.124 176.583V118.267L270.403 174.452L270.528 232.828L173.124 176.583ZM173.124 176.583V118.267L270.403 174.452L270.528 232.828L173.124 176.583Z" fill="white"/>
<path d="M183.767 175.45L260.378 219.681" stroke="#FF4A57" stroke-width="4.28302"/>
<path d="M183.767 170.666L260.378 214.897" stroke="#FF4A57" stroke-width="4.28302"/>
<path d="M208.432 180.121C230.828 193.051 260.378 210.112 260.378 210.112" stroke="#FF4A57" stroke-width="4.28302"/>
<path d="M183.767 161.095C183.767 161.095 192.654 166.226 204.374 172.993" stroke="#FF4A57" stroke-width="4.28302"/>
<path d="M183.767 156.311L260.378 200.542" stroke="#FF4A57" stroke-width="4.28302"/>
<path d="M183.767 151.526L260.378 195.757" stroke="#FF4A57" stroke-width="4.28302"/>
<path d="M183.767 146.74L260.378 190.972" stroke="#FF4A57" stroke-width="4.28302"/>
<path d="M183.767 141.956L260.378 186.187" stroke="#FF4A57" stroke-width="4.28302"/>
<path d="M183.767 137.171L260.378 181.402" stroke="#FF4A57" stroke-width="4.28302"/>
<path d="M183.767 132.386C183.767 132.386 201.661 142.717 220.153 153.393M256.18 174.193C258.832 175.724 260.378 176.617 260.378 176.617L256.18 174.193Z" stroke="#FF4A57" stroke-width="4.28302"/>
<path d="M277.867 140.824L203.352 98.419V61.566L277.867 103.971V140.824ZM277.867 140.824L203.352 98.419V61.566L277.867 103.971V140.824Z" fill="#FF4A57"/>
<path d="M223.157 82.2046V100.572L220.798 99.2104V90.9343L212.501 86.1446V94.4197L210.13 93.0512V74.6836L212.501 76.0521V84.1617L220.798 88.9524V80.8428L223.157 82.2046ZM223.157 82.2046V100.572L220.798 99.2104V90.9343L212.501 86.1446V94.4197L210.13 93.0512V74.6836L212.501 76.0521V84.1617L220.798 88.9524V80.8428L223.157 82.2046Z" fill="#0B246E"/>
<path d="M237.935 93.014L232.884 90.097V106.188L230.535 104.832V88.741L225.462 85.8126V83.5349L237.935 90.7373V93.014ZM237.935 93.014L232.884 90.097V106.188L230.535 104.832V88.741L225.462 85.8126V83.5349L237.935 90.7373V93.014Z" fill="#0B246E"/>
<path d="M256.954 101.718V120.085L254.894 118.896V105.823C254.894 105.627 254.899 105.421 254.91 105.206C254.922 104.991 254.935 104.773 254.95 104.551L249.654 112.712C249.47 113.023 249.186 113.068 248.801 112.846L248.469 112.653C248.085 112.431 247.805 112.061 247.628 111.541L242.232 97.1702C242.277 97.6736 242.299 98.1349 242.299 98.5521V111.624L240.227 110.428V92.0608L241.977 93.0704C242.184 93.1901 242.344 93.3068 242.459 93.4197C242.574 93.5327 242.683 93.725 242.786 93.9978L248.103 108.068C248.207 108.35 248.302 108.64 248.391 108.938C248.48 109.237 248.564 109.533 248.646 109.826C248.801 109.413 248.983 109.031 249.189 108.682L254.406 100.707C254.503 100.549 254.607 100.48 254.722 100.5C254.837 100.519 254.997 100.588 255.204 100.707L256.954 101.718ZM256.954 101.718V120.085L254.894 118.896V105.823C254.894 105.627 254.899 105.421 254.91 105.206C254.922 104.991 254.935 104.773 254.95 104.551L249.654 112.712C249.47 113.023 249.186 113.068 248.801 112.846L248.469 112.653C248.085 112.431 247.805 112.061 247.628 111.541L242.232 97.1702C242.277 97.6736 242.299 98.1349 242.299 98.5521V111.624L240.227 110.428V92.0608L241.977 93.0704C242.184 93.1901 242.344 93.3068 242.459 93.4197C242.574 93.5327 242.683 93.725 242.786 93.9978L248.103 108.068C248.207 108.35 248.302 108.64 248.391 108.938C248.48 109.237 248.564 109.533 248.646 109.826C248.801 109.413 248.983 109.031 249.189 108.682L254.406 100.707C254.503 100.549 254.607 100.48 254.722 100.5C254.837 100.519 254.997 100.588 255.204 100.707L256.954 101.718Z" fill="#0B246E"/>
<path d="M269.993 125.324V127.613L260.888 122.356V103.988L263.247 105.351V121.429L269.993 125.324ZM269.993 125.324V127.613L260.888 122.356V103.988L263.247 105.351V121.429L269.993 125.324Z" fill="#0B246E"/>
<path d="M145.34 151.705L87.6296 119.466V82.6121L145.34 114.852V151.705ZM145.34 151.705L87.6296 119.466V82.6121L145.34 114.852V151.705Z" fill="#051622"/>
<path d="M108.903 118.15C109.036 118.227 109.15 118.352 109.246 118.527L110.177 120.242C109.527 120.754 108.735 120.983 107.801 120.929C106.867 120.876 105.743 120.47 104.428 119.711C103.276 119.046 102.232 118.213 101.298 117.213C100.364 116.213 99.5672 115.109 98.9059 113.9C98.2446 112.691 97.7336 111.407 97.3718 110.047C97.0101 108.687 96.8282 107.316 96.8282 105.935C96.8282 104.554 97.0187 103.398 97.3986 102.466C97.7785 101.535 98.3135 100.852 98.9997 100.422C99.6868 99.9911 100.507 99.8218 101.464 99.9136C102.421 100.006 103.478 100.385 104.638 101.055C105.768 101.708 106.771 102.5 107.651 103.434C108.529 104.367 109.294 105.377 109.944 106.459L109.169 107.279C109.117 107.343 109.053 107.381 108.975 107.396C108.897 107.412 108.796 107.382 108.671 107.31C108.53 107.229 108.365 107.054 108.177 106.783C107.989 106.512 107.742 106.188 107.436 105.811C107.129 105.434 106.75 105.033 106.3 104.611C105.849 104.189 105.288 103.784 104.616 103.396C103.826 102.94 103.101 102.681 102.445 102.622C101.786 102.562 101.221 102.696 100.744 103.022C100.269 103.348 99.8983 103.872 99.637 104.595C99.3748 105.318 99.2437 106.229 99.2437 107.329C99.2437 108.446 99.3796 109.518 99.6533 110.546C99.926 111.574 100.302 112.529 100.783 113.411C101.263 114.293 101.829 115.08 102.478 115.771C103.128 116.462 103.83 117.025 104.583 117.46C105.04 117.724 105.453 117.929 105.818 118.076C106.184 118.224 106.519 118.322 106.826 118.371C107.132 118.42 107.422 118.424 107.695 118.381C107.969 118.339 108.238 118.252 108.504 118.124C108.563 118.098 108.626 118.086 108.692 118.086C108.759 118.086 108.829 118.107 108.903 118.15ZM108.903 118.15C109.036 118.227 109.15 118.352 109.246 118.527L110.177 120.242C109.527 120.754 108.735 120.983 107.801 120.929C106.867 120.876 105.743 120.47 104.428 119.711C103.276 119.046 102.232 118.213 101.298 117.213C100.364 116.213 99.5672 115.109 98.9059 113.9C98.2446 112.691 97.7336 111.407 97.3718 110.047C97.0101 108.687 96.8282 107.316 96.8282 105.935C96.8282 104.554 97.0187 103.398 97.3986 102.466C97.7785 101.535 98.3135 100.852 98.9997 100.422C99.6868 99.9911 100.507 99.8218 101.464 99.9136C102.421 100.006 103.478 100.385 104.638 101.055C105.768 101.708 106.771 102.5 107.651 103.434C108.529 104.367 109.294 105.377 109.944 106.459L109.169 107.279C109.117 107.343 109.053 107.381 108.975 107.396C108.897 107.412 108.796 107.382 108.671 107.31C108.53 107.229 108.365 107.054 108.177 106.783C107.989 106.512 107.742 106.188 107.436 105.811C107.129 105.434 106.75 105.033 106.3 104.611C105.849 104.189 105.288 103.784 104.616 103.396C103.826 102.94 103.101 102.681 102.445 102.622C101.786 102.562 101.221 102.696 100.744 103.022C100.269 103.348 99.8983 103.872 99.637 104.595C99.3748 105.318 99.2437 106.229 99.2437 107.329C99.2437 108.446 99.3796 109.518 99.6533 110.546C99.926 111.574 100.302 112.529 100.783 113.411C101.263 114.293 101.829 115.08 102.478 115.771C103.128 116.462 103.83 117.025 104.583 117.46C105.04 117.724 105.453 117.929 105.818 118.076C106.184 118.224 106.519 118.322 106.826 118.371C107.132 118.42 107.422 118.424 107.695 118.381C107.969 118.339 108.238 118.252 108.504 118.124C108.563 118.098 108.626 118.086 108.692 118.086C108.759 118.086 108.829 118.107 108.903 118.15Z" fill="#36E7F7"/>
<path d="M120.789 113.578C120.715 113.68 120.637 113.742 120.556 113.763C120.475 113.784 120.371 113.759 120.246 113.686C120.113 113.609 119.962 113.451 119.792 113.213C119.622 112.974 119.41 112.693 119.155 112.372C118.9 112.05 118.595 111.716 118.241 111.371C117.887 111.025 117.461 110.71 116.966 110.424C116.501 110.156 116.094 109.99 115.743 109.929C115.392 109.866 115.098 109.889 114.862 109.996C114.626 110.102 114.447 110.285 114.325 110.543C114.203 110.8 114.142 111.122 114.142 111.506C114.142 112.001 114.251 112.472 114.469 112.922C114.687 113.372 114.974 113.815 115.328 114.249C115.682 114.685 116.084 115.116 116.535 115.547C116.985 115.978 117.447 116.421 117.92 116.877C118.392 117.334 118.854 117.811 119.304 118.31C119.754 118.809 120.158 119.343 120.512 119.909C120.866 120.477 121.153 121.085 121.37 121.735C121.589 122.385 121.697 123.09 121.697 123.849C121.697 124.66 121.576 125.348 121.337 125.917C121.097 126.487 120.747 126.904 120.29 127.168C119.833 127.433 119.27 127.523 118.601 127.44C117.932 127.356 117.174 127.069 116.325 126.579C115.815 126.285 115.32 125.942 114.84 125.55C114.359 125.157 113.906 124.733 113.478 124.277C113.049 123.82 112.648 123.338 112.276 122.829C111.903 122.319 111.569 121.796 111.273 121.258L111.949 120.344C112.015 120.279 112.094 120.241 112.187 120.226C112.279 120.211 112.384 120.236 112.503 120.305C112.658 120.394 112.837 120.592 113.04 120.897C113.243 121.202 113.494 121.553 113.794 121.952C114.092 122.35 114.45 122.764 114.868 123.193C115.285 123.621 115.793 124.008 116.391 124.353C116.878 124.635 117.315 124.812 117.698 124.885C118.082 124.957 118.406 124.93 118.668 124.805C118.929 124.679 119.131 124.461 119.271 124.15C119.411 123.839 119.481 123.443 119.481 122.966C119.481 122.429 119.374 121.927 119.161 121.463C118.946 120.998 118.661 120.549 118.307 120.114C117.953 119.679 117.55 119.251 117.1 118.829C116.65 118.407 116.187 117.971 115.715 117.523C115.242 117.075 114.781 116.607 114.331 116.117C113.88 115.626 113.477 115.094 113.123 114.517C112.769 113.941 112.485 113.314 112.27 112.631C112.056 111.949 111.949 111.199 111.949 110.38C111.949 109.724 112.06 109.152 112.281 108.665C112.503 108.179 112.825 107.822 113.25 107.594C113.674 107.367 114.197 107.288 114.818 107.361C115.438 107.434 116.148 107.701 116.945 108.161C117.838 108.677 118.66 109.315 119.41 110.076C120.159 110.838 120.811 111.685 121.365 112.619L120.789 113.578ZM120.789 113.578C120.715 113.68 120.637 113.742 120.556 113.763C120.475 113.784 120.371 113.759 120.246 113.686C120.113 113.609 119.962 113.451 119.792 113.213C119.622 112.974 119.41 112.693 119.155 112.372C118.9 112.05 118.595 111.716 118.241 111.371C117.887 111.025 117.461 110.71 116.966 110.424C116.501 110.156 116.094 109.99 115.743 109.929C115.392 109.866 115.098 109.889 114.862 109.996C114.626 110.102 114.447 110.285 114.325 110.543C114.203 110.8 114.142 111.122 114.142 111.506C114.142 112.001 114.251 112.472 114.469 112.922C114.687 113.372 114.974 113.815 115.328 114.249C115.682 114.685 116.084 115.116 116.535 115.547C116.985 115.978 117.447 116.421 117.92 116.877C118.392 117.334 118.854 117.811 119.304 118.31C119.754 118.809 120.158 119.343 120.512 119.909C120.866 120.477 121.153 121.085 121.37 121.735C121.589 122.385 121.697 123.09 121.697 123.849C121.697 124.66 121.576 125.348 121.337 125.917C121.097 126.487 120.747 126.904 120.29 127.168C119.833 127.433 119.27 127.523 118.601 127.44C117.932 127.356 117.174 127.069 116.325 126.579C115.815 126.285 115.32 125.942 114.84 125.55C114.359 125.157 113.906 124.733 113.478 124.277C113.049 123.82 112.648 123.338 112.276 122.829C111.903 122.319 111.569 121.796 111.273 121.258L111.949 120.344C112.015 120.279 112.094 120.241 112.187 120.226C112.279 120.211 112.384 120.236 112.503 120.305C112.658 120.394 112.837 120.592 113.04 120.897C113.243 121.202 113.494 121.553 113.794 121.952C114.092 122.35 114.45 122.764 114.868 123.193C115.285 123.621 115.793 124.008 116.391 124.353C116.878 124.635 117.315 124.812 117.698 124.885C118.082 124.957 118.406 124.93 118.668 124.805C118.929 124.679 119.131 124.461 119.271 124.15C119.411 123.839 119.481 123.443 119.481 122.966C119.481 122.429 119.374 121.927 119.161 121.463C118.946 120.998 118.661 120.549 118.307 120.114C117.953 119.679 117.55 119.251 117.1 118.829C116.65 118.407 116.187 117.971 115.715 117.523C115.242 117.075 114.781 116.607 114.331 116.117C113.88 115.626 113.477 115.094 113.123 114.517C112.769 113.941 112.485 113.314 112.27 112.631C112.056 111.949 111.949 111.199 111.949 110.38C111.949 109.724 112.06 109.152 112.281 108.665C112.503 108.179 112.825 107.822 113.25 107.594C113.674 107.367 114.197 107.288 114.818 107.361C115.438 107.434 116.148 107.701 116.945 108.161C117.838 108.677 118.66 109.315 119.41 110.076C120.159 110.838 120.811 111.685 121.365 112.619L120.789 113.578Z" fill="#36E7F7"/>
<path d="M132.841 120.536C132.767 120.638 132.69 120.7 132.608 120.722C132.527 120.743 132.423 120.717 132.297 120.644C132.164 120.567 132.013 120.41 131.844 120.171C131.673 119.932 131.461 119.652 131.206 119.33C130.952 119.009 130.648 118.675 130.293 118.329C129.939 117.984 129.514 117.668 129.019 117.383C128.554 117.115 128.146 116.948 127.796 116.887C127.444 116.825 127.151 116.849 126.914 116.955C126.678 117.061 126.499 117.244 126.377 117.501C126.255 117.76 126.195 118.079 126.195 118.463C126.195 118.958 126.304 119.431 126.521 119.88C126.739 120.33 127.025 120.773 127.379 121.208C127.733 121.643 128.136 122.075 128.587 122.505C129.038 122.936 129.499 123.379 129.972 123.836C130.445 124.292 130.906 124.769 131.357 125.268C131.806 125.767 132.209 126.301 132.563 126.867C132.918 127.435 133.204 128.044 133.422 128.693C133.64 129.343 133.749 130.048 133.749 130.807C133.749 131.617 133.629 132.306 133.389 132.875C133.149 133.445 132.8 133.862 132.342 134.126C131.885 134.391 131.321 134.481 130.652 134.398C129.984 134.315 129.225 134.028 128.377 133.538C127.867 133.243 127.373 132.9 126.892 132.508C126.412 132.116 125.957 131.692 125.53 131.235C125.101 130.779 124.7 130.296 124.328 129.787C123.954 129.277 123.62 128.754 123.325 128.217L124.001 127.302C124.067 127.238 124.147 127.199 124.239 127.184C124.331 127.169 124.437 127.195 124.555 127.264C124.71 127.354 124.889 127.551 125.092 127.855C125.295 128.16 125.546 128.511 125.845 128.911C126.144 129.309 126.503 129.722 126.92 130.151C127.337 130.58 127.845 130.966 128.444 131.312C128.931 131.593 129.366 131.77 129.75 131.843C130.134 131.915 130.457 131.889 130.719 131.763C130.981 131.637 131.183 131.419 131.323 131.108C131.463 130.797 131.534 130.402 131.534 129.924C131.534 129.386 131.427 128.886 131.213 128.422C130.999 127.956 130.714 127.507 130.359 127.071C130.005 126.637 129.602 126.209 129.152 125.787C128.701 125.365 128.24 124.929 127.767 124.482C127.294 124.034 126.832 123.565 126.382 123.075C125.931 122.584 125.53 122.052 125.175 121.476C124.821 120.9 124.536 120.272 124.322 119.589C124.107 118.907 124.001 118.157 124.001 117.339C124.001 116.682 124.112 116.111 124.333 115.625C124.555 115.138 124.878 114.781 125.303 114.553C125.727 114.325 126.249 114.247 126.87 114.319C127.49 114.392 128.2 114.659 128.997 115.119C129.89 115.635 130.713 116.273 131.462 117.034C132.211 117.796 132.863 118.643 133.417 119.577L132.841 120.536ZM132.841 120.536C132.767 120.638 132.69 120.7 132.608 120.722C132.527 120.743 132.423 120.717 132.297 120.644C132.164 120.567 132.013 120.41 131.844 120.171C131.673 119.932 131.461 119.652 131.206 119.33C130.952 119.009 130.648 118.675 130.293 118.329C129.939 117.984 129.514 117.668 129.019 117.383C128.554 117.115 128.146 116.948 127.796 116.887C127.444 116.825 127.151 116.849 126.914 116.955C126.678 117.061 126.499 117.244 126.377 117.501C126.255 117.76 126.195 118.079 126.195 118.463C126.195 118.958 126.304 119.431 126.521 119.88C126.739 120.33 127.025 120.773 127.379 121.208C127.733 121.643 128.136 122.075 128.587 122.505C129.038 122.936 129.499 123.379 129.972 123.836C130.445 124.292 130.906 124.769 131.357 125.268C131.806 125.767 132.209 126.301 132.563 126.867C132.918 127.435 133.204 128.044 133.422 128.693C133.64 129.343 133.749 130.048 133.749 130.807C133.749 131.617 133.629 132.306 133.389 132.875C133.149 133.445 132.8 133.862 132.342 134.126C131.885 134.391 131.321 134.481 130.652 134.398C129.984 134.315 129.225 134.028 128.377 133.538C127.867 133.243 127.373 132.9 126.892 132.508C126.412 132.116 125.957 131.692 125.53 131.235C125.101 130.779 124.7 130.296 124.328 129.787C123.954 129.277 123.62 128.754 123.325 128.217L124.001 127.302C124.067 127.238 124.147 127.199 124.239 127.184C124.331 127.169 124.437 127.195 124.555 127.264C124.71 127.354 124.889 127.551 125.092 127.855C125.295 128.16 125.546 128.511 125.845 128.911C126.144 129.309 126.503 129.722 126.92 130.151C127.337 130.58 127.845 130.966 128.444 131.312C128.931 131.593 129.366 131.77 129.75 131.843C130.134 131.915 130.457 131.889 130.719 131.763C130.981 131.637 131.183 131.419 131.323 131.108C131.463 130.797 131.534 130.402 131.534 129.924C131.534 129.386 131.427 128.886 131.213 128.422C130.999 127.956 130.714 127.507 130.359 127.071C130.005 126.637 129.602 126.209 129.152 125.787C128.701 125.365 128.24 124.929 127.767 124.482C127.294 124.034 126.832 123.565 126.382 123.075C125.931 122.584 125.53 122.052 125.175 121.476C124.821 120.9 124.536 120.272 124.322 119.589C124.107 118.907 124.001 118.157 124.001 117.339C124.001 116.682 124.112 116.111 124.333 115.625C124.555 115.138 124.878 114.781 125.303 114.553C125.727 114.325 126.249 114.247 126.87 114.319C127.49 114.392 128.2 114.659 128.997 115.119C129.89 115.635 130.713 116.273 131.462 117.034C132.211 117.796 132.863 118.643 133.417 119.577L132.841 120.536Z" fill="#36E7F7"/>
<path d="M388.212 132.377L348.546 110.173V73.3195L388.212 95.5237V132.377ZM388.212 132.377L348.546 110.173V73.3195L388.212 95.5237V132.377Z" fill="#051622"/>
<path d="M364.496 103.371C364.496 104.394 364.386 105.252 364.164 105.943C363.943 106.634 363.618 107.14 363.194 107.461C362.769 107.783 362.241 107.913 361.61 107.851C360.979 107.79 360.254 107.523 359.433 107.049C358.695 106.623 357.935 106.064 357.152 105.373L357.285 103.838C357.299 103.693 357.35 103.596 357.434 103.547C357.519 103.498 357.646 103.522 357.816 103.621C357.941 103.693 358.114 103.829 358.331 104.027C358.548 104.225 358.835 104.426 359.189 104.631C359.662 104.903 360.082 105.065 360.448 105.114C360.812 105.163 361.122 105.087 361.372 104.887C361.623 104.686 361.813 104.355 361.943 103.893C362.072 103.43 362.137 102.824 362.137 102.074V90.0374L364.496 91.3992V103.371ZM364.496 103.371C364.496 104.394 364.386 105.252 364.164 105.943C363.943 106.634 363.618 107.14 363.194 107.461C362.769 107.783 362.241 107.913 361.61 107.851C360.979 107.79 360.254 107.523 359.433 107.049C358.695 106.623 357.935 106.064 357.152 105.373L357.285 103.838C357.299 103.693 357.35 103.596 357.434 103.547C357.519 103.498 357.646 103.522 357.816 103.621C357.941 103.693 358.114 103.829 358.331 104.027C358.548 104.225 358.835 104.426 359.189 104.631C359.662 104.903 360.082 105.065 360.448 105.114C360.812 105.163 361.122 105.087 361.372 104.887C361.623 104.686 361.813 104.355 361.943 103.893C362.072 103.43 362.137 102.824 362.137 102.074V90.0374L364.496 91.3992V103.371Z" fill="white"/>
<path d="M376.493 101.318C376.419 101.421 376.342 101.483 376.26 101.504C376.179 101.525 376.076 101.5 375.95 101.427C375.817 101.351 375.666 101.193 375.497 100.955C375.326 100.715 375.114 100.435 374.859 100.113C374.605 99.7919 374.299 99.4579 373.945 99.1124C373.591 98.7669 373.165 98.4502 372.671 98.165C372.205 97.897 371.798 97.7314 371.448 97.6702C371.096 97.608 370.803 97.631 370.566 97.7372C370.33 97.8434 370.151 98.0252 370.029 98.2836C369.907 98.5411 369.846 98.8626 369.846 99.2464C369.846 99.7411 369.955 100.213 370.173 100.663C370.391 101.113 370.678 101.556 371.032 101.99C371.386 102.426 371.788 102.857 372.239 103.288C372.69 103.718 373.151 104.162 373.624 104.619C374.097 105.075 374.558 105.553 375.009 106.052C375.458 106.55 375.861 107.083 376.215 107.65C376.569 108.217 376.857 108.826 377.075 109.476C377.292 110.126 377.401 110.831 377.401 111.59C377.401 112.399 377.28 113.089 377.041 113.659C376.801 114.228 376.452 114.644 375.994 114.909C375.537 115.174 374.974 115.264 374.305 115.18C373.636 115.097 372.878 114.81 372.029 114.32C371.519 114.025 371.025 113.683 370.544 113.29C370.064 112.898 369.61 112.475 369.182 112.018C368.754 111.562 368.353 111.079 367.98 110.57C367.607 110.059 367.273 109.536 366.977 108.999L367.653 108.085C367.719 108.021 367.799 107.982 367.891 107.967C367.983 107.951 368.089 107.977 368.207 108.046C368.362 108.136 368.541 108.334 368.744 108.638C368.947 108.944 369.199 109.295 369.498 109.694C369.797 110.092 370.155 110.505 370.572 110.934C370.989 111.363 371.497 111.75 372.095 112.095C372.583 112.376 373.019 112.553 373.403 112.626C373.786 112.698 374.11 112.671 374.372 112.546C374.633 112.419 374.834 112.201 374.975 111.89C375.115 111.579 375.186 111.185 375.186 110.707C375.186 110.17 375.078 109.668 374.865 109.204C374.651 108.739 374.365 108.29 374.011 107.855C373.657 107.42 373.254 106.991 372.805 106.569C372.354 106.147 371.892 105.712 371.419 105.264C370.946 104.816 370.485 104.347 370.035 103.857C369.584 103.366 369.181 102.835 368.827 102.259C368.473 101.683 368.189 101.054 367.975 100.372C367.76 99.6895 367.653 98.9392 367.653 98.1209C367.653 97.4644 367.764 96.8931 367.985 96.407C368.207 95.9208 368.53 95.5629 368.955 95.3351C369.379 95.1074 369.901 95.0298 370.522 95.1026C371.142 95.1753 371.852 95.4414 372.65 95.9017C373.542 96.4175 374.364 97.0558 375.114 97.8166C375.863 98.5784 376.515 99.4253 377.069 100.359L376.493 101.318ZM376.493 101.318C376.419 101.421 376.342 101.483 376.26 101.504C376.179 101.525 376.076 101.5 375.95 101.427C375.817 101.351 375.666 101.193 375.497 100.955C375.326 100.715 375.114 100.435 374.859 100.113C374.605 99.7919 374.299 99.4579 373.945 99.1124C373.591 98.7669 373.165 98.4502 372.671 98.165C372.205 97.897 371.798 97.7314 371.448 97.6702C371.096 97.608 370.803 97.631 370.566 97.7372C370.33 97.8434 370.151 98.0252 370.029 98.2836C369.907 98.5411 369.846 98.8626 369.846 99.2464C369.846 99.7411 369.955 100.213 370.173 100.663C370.391 101.113 370.678 101.556 371.032 101.99C371.386 102.426 371.788 102.857 372.239 103.288C372.69 103.718 373.151 104.162 373.624 104.619C374.097 105.075 374.558 105.553 375.009 106.052C375.458 106.55 375.861 107.083 376.215 107.65C376.569 108.217 376.857 108.826 377.075 109.476C377.292 110.126 377.401 110.831 377.401 111.59C377.401 112.399 377.28 113.089 377.041 113.659C376.801 114.228 376.452 114.644 375.994 114.909C375.537 115.174 374.974 115.264 374.305 115.18C373.636 115.097 372.878 114.81 372.029 114.32C371.519 114.025 371.025 113.683 370.544 113.29C370.064 112.898 369.61 112.475 369.182 112.018C368.754 111.562 368.353 111.079 367.98 110.57C367.607 110.059 367.273 109.536 366.977 108.999L367.653 108.085C367.719 108.021 367.799 107.982 367.891 107.967C367.983 107.951 368.089 107.977 368.207 108.046C368.362 108.136 368.541 108.334 368.744 108.638C368.947 108.944 369.199 109.295 369.498 109.694C369.797 110.092 370.155 110.505 370.572 110.934C370.989 111.363 371.497 111.75 372.095 112.095C372.583 112.376 373.019 112.553 373.403 112.626C373.786 112.698 374.11 112.671 374.372 112.546C374.633 112.419 374.834 112.201 374.975 111.89C375.115 111.579 375.186 111.185 375.186 110.707C375.186 110.17 375.078 109.668 374.865 109.204C374.651 108.739 374.365 108.29 374.011 107.855C373.657 107.42 373.254 106.991 372.805 106.569C372.354 106.147 371.892 105.712 371.419 105.264C370.946 104.816 370.485 104.347 370.035 103.857C369.584 103.366 369.181 102.835 368.827 102.259C368.473 101.683 368.189 101.054 367.975 100.372C367.76 99.6895 367.653 98.9392 367.653 98.1209C367.653 97.4644 367.764 96.8931 367.985 96.407C368.207 95.9208 368.53 95.5629 368.955 95.3351C369.379 95.1074 369.901 95.0298 370.522 95.1026C371.142 95.1753 371.852 95.4414 372.65 95.9017C373.542 96.4175 374.364 97.0558 375.114 97.8166C375.863 98.5784 376.515 99.4253 377.069 100.359L376.493 101.318Z" fill="white"/>
<path d="M64.7724 413.362C64.7724 415.627 63.1828 418.382 61.221 419.515C59.2592 420.648 57.6686 419.729 57.6686 417.464C57.6686 415.199 59.2592 412.444 61.221 411.311C63.1828 410.178 64.7724 411.097 64.7724 413.362Z" fill="#051622"/>
<path d="M61.8555 411.546C62.5493 413.703 61.8785 416.812 60.3578 418.49C58.8371 420.169 57.0418 419.782 56.348 417.626C55.6542 415.47 56.325 412.36 57.8457 410.681C59.3663 409.003 61.1617 409.39 61.8555 411.546Z" fill="#051622"/>
<path d="M126.86 350.039C126.86 350.039 127.229 361.995 128.885 366.226C130.54 370.457 134.586 370.091 137.714 369.722C140.841 369.355 148.751 363.675 152.614 359.984C156.478 356.293 164.572 357 171.011 347.908C177.449 338.817 171.011 334.954 168.986 334.77C166.963 334.586 156.333 343.087 147.954 339.732L126.86 350.039Z" fill="#051622"/>
<path d="M46.8345 289.758C46.8345 289.758 115.27 267.232 128.273 276.533C140.439 285.236 138.463 311.406 147.954 339.732C148.199 340.464 148.17 341.257 147.859 341.964C146.398 345.282 141.04 354.311 126.687 351.963C126.687 351.963 118.73 331.243 113.323 309.614C113.323 309.614 60.0133 343.966 47.8623 335.061C35.7113 326.155 46.8345 289.758 46.8345 289.758Z" fill="#425CA3"/>
<path d="M18.8931 387.627L63.8738 379.704L59.7846 413.185L63.8738 414.207L71.7968 379.704L113.71 396.956L116.011 394.486L76.1416 375.616L106.299 361.814L102.977 360.281L69.5555 371.69L51.8616 360.281L47.3417 361.303L63.3628 374.593L19.9151 384.306L18.8931 387.627Z" fill="#051622"/>
<path d="M24.5901 383.031C24.5901 385.296 22.9995 388.05 21.0377 389.184C19.0759 390.317 17.4853 389.398 17.4853 387.133C17.4853 384.867 19.0759 382.114 21.0377 380.981C22.9995 379.848 24.5901 380.766 24.5901 383.031Z" fill="#051622"/>
<path d="M26.1911 383.956C26.1911 386.221 24.6006 388.975 22.6388 390.108C20.6769 391.241 19.0873 390.322 19.0873 388.057C19.0873 385.792 20.6769 383.039 22.6388 381.906C24.6006 380.773 26.1911 381.69 26.1911 383.956Z" fill="#051622"/>
<path d="M117.574 393.332C117.574 395.597 115.984 398.351 114.022 399.484C112.061 400.617 110.47 399.698 110.47 397.433C110.47 395.168 112.061 392.414 114.022 391.281C115.984 390.148 117.574 391.067 117.574 393.332Z" fill="#051622"/>
<path d="M115.595 392.026C115.595 394.291 114.005 397.045 112.043 398.178C110.081 399.311 108.491 398.393 108.491 396.128C108.491 393.862 110.081 391.109 112.043 389.976C114.005 388.843 115.595 389.761 115.595 392.026Z" fill="#051622"/>
<path d="M72.9557 356.469H64.8834V376.214H72.9557V356.469Z" fill="#051622"/>
<path d="M160.164 360.272C160.164 360.272 160.531 372.229 162.187 376.46C163.843 380.691 167.89 380.323 171.017 379.955C174.145 379.587 182.054 373.909 185.918 370.218C189.781 366.527 197.874 367.234 204.313 358.142C210.752 349.051 204.313 345.188 202.29 345.004C200.267 344.82 190.168 352.45 181.788 349.095L160.164 360.272Z" fill="#051622"/>
<path d="M80.3112 298.067C80.3112 298.067 148.746 275.541 161.749 284.842C174.065 293.652 171.888 320.367 181.788 349.095C181.788 349.095 177.659 363.134 160.164 360.272C160.164 360.272 152.206 339.552 146.799 317.923C146.799 317.923 93.49 352.275 81.339 343.369C69.188 334.464 80.3112 298.067 80.3112 298.067Z" fill="#4661AD"/>
<path d="M136.282 327.318C133.872 340.351 111.667 356.273 73.0476 362.064C71.7001 362.272 58.8639 364.796 47.5599 362.582C54.6599 348.966 73.3979 326.372 67.5286 304.114C81.3649 306.265 138.394 315.865 136.282 327.318Z" fill="#FF4A57"/>
<path d="M67.4521 307.034L75.6583 315.474C77.5914 327.117 84.6225 338.473 95.3571 339.33L150.332 320.542V301.429L67.4521 307.034Z" fill="#4661AD"/>
<path d="M86.0111 221.661L57.506 207.225C54.5728 205.74 51.3314 204.928 48.0432 204.97C42.0247 205.048 33.2844 207.058 29.8622 217.326C24.4178 233.659 42.0476 300.029 42.0476 300.029C42.0476 300.029 59.7568 321.935 73.7567 320.898C87.7566 319.861 107.899 308.066 107.899 298.214C107.899 291.186 102.451 258.108 99.3286 239.725C98.0051 231.931 93.0641 225.233 86.0111 221.661Z" fill="#051622"/>
<path d="M102.922 183.245C103.076 183.263 106.442 184.518 108.222 185.183C108.787 185.395 109.017 186.065 108.706 186.582L107.205 189.076C106.692 189.928 105.725 190.4 104.737 190.278L100.629 189.774" stroke="#0B246E" stroke-width="1.49468" stroke-miterlimit="10"/>
<path d="M63.0256 203.646L68.2675 185.054L107.615 168.282L105.852 182.638C105.751 183.459 105.499 184.253 105.109 184.982L104.177 186.724C103.665 187.679 103.423 188.755 103.475 189.837L103.552 191.467C103.612 192.724 103.311 193.974 102.684 195.066L98.4133 202.514C97.0514 204.889 94.2814 206.074 91.6223 205.421L86.4896 204.16L82.8711 215.553L63.0256 203.646Z" fill="#FF8B91"/>
<path d="M66.1244 195.214L72.4105 197.314C75.6115 198.382 79.1289 197.887 81.9092 195.974L91.5737 189.327L91.3148 191.435L92.7457 191.341C94.0297 191.257 95.1604 190.466 95.6808 189.29L100.411 178.595C100.411 178.595 109.9 178.954 114.091 167.786C114.091 167.786 105.024 156.334 90.0777 155.573C75.1318 154.812 68.1984 166.449 68.1984 166.449C68.1984 166.449 65.0718 165.662 63.1293 169.452C61.5597 172.514 63.1886 187.015 63.8715 192.47C64.0313 193.744 64.9064 194.807 66.1244 195.214Z" fill="#0B246E"/>
<path d="M90.5087 194.05L92.4195 188.147C92.4195 188.147 91.5617 185.05 88.5725 185.869C85.5832 186.688 85.8919 194.257 87.4931 194.66C89.0943 195.063 90.5087 194.05 90.5087 194.05Z" fill="#FF8B91"/>
<path d="M92.4195 188.147L107.821 189.115L109.083 186.809L91.4779 186.557L92.4195 188.147Z" fill="#36E7F7"/>
<path d="M78.1694 330.589C80.2882 352.356 58.2323 368.879 38.1373 360.249C19.4051 352.203 5.67217 334.342 1.59919 303.483C-2.94845 269.126 3.1926 247.387 7.70101 236.815C9.90306 231.685 15.3053 228.692 20.8243 229.457C63.9657 235.468 74.7444 306.347 74.7444 306.347C74.7444 306.347 76.9081 317.626 78.1694 330.589Z" fill="#FF4A57"/>
<path d="M161.238 245.954C161.238 245.954 165.486 235.223 167.052 234.157C170.991 231.472 170.351 234.451 173.606 233.434C176.002 232.686 177.431 229.641 179.305 228.953C180.011 228.694 184.645 228.465 184.69 229.913C184.734 231.314 178.806 231.78 183.778 232.572C188.338 232.431 187.548 235.199 187.548 235.199C191.94 234.35 195.22 236.941 193.613 238.326C191.049 236.42 186.358 241.254 184.635 243.895C182.916 246.529 178.042 249.11 176.841 249.216C175.641 249.322 167.383 251.66 167.383 251.66L161.238 245.954Z" fill="#FF8B91"/>
<path d="M90.6621 224.716C90.6621 224.716 77.8929 221.036 71.7164 231.166C64.8682 242.397 73.7567 251.523 73.7567 251.523L120.064 277.697C125.378 280.701 131.928 280.471 137.019 277.102L172.213 251.176C172.213 251.176 170.502 242.372 163.688 240.371C162.272 239.955 132.002 250.942 132.002 250.942C129.973 251.84 127.618 251.589 125.823 250.284L90.6621 224.716Z" fill="#051622"/>
<path d="M110.442 231.011C110.442 231.011 114.87 220.407 116.395 219.284C117.92 218.161 131.1 216.757 132.287 216.466C133.473 216.174 136.072 218.594 136.072 218.594C136.072 218.594 140.257 218.435 141.073 218.574C141.889 218.714 146.342 220.662 145.056 221.931C144.252 222.727 142.011 221.625 139.252 221.916C136.57 222.2 132.411 223.939 131.48 225.244C127.745 230.473 139.949 225.693 140.105 227.432C140.433 231.075 127.205 234.367 126.004 234.458C124.803 234.549 116.517 236.789 116.517 236.789L110.442 231.011Z" fill="#FF8B91"/>
<path d="M77.7317 235.307L111.585 226.688C118.563 226.536 119.807 236.482 119.807 236.482L96.7075 253.624L77.7317 235.307Z" fill="#051622"/>
<path d="M107.899 358.606C107.899 360.872 106.309 363.625 104.347 364.758C102.385 365.891 100.795 364.973 100.795 362.708C100.795 360.443 102.385 357.689 104.347 356.556C106.309 355.423 107.899 356.341 107.899 358.606Z" fill="#051622"/>
<path d="M106.266 357.664C106.266 359.929 104.675 362.682 102.714 363.815C100.752 364.949 99.1621 364.03 99.1621 361.765C99.1621 359.499 100.752 356.746 102.714 355.613C104.675 354.48 106.266 355.399 106.266 357.664Z" fill="#051622"/>
<path d="M136.282 327.318C94.2661 351.186 81.7256 333.791 78.3111 325.431C77.4029 323.209 77.1406 321.624 77.1406 321.624C77.1406 321.624 68.6119 277.405 57.192 257.006C47.5599 239.8 34.7141 228.357 14.6947 227.752" stroke="white" stroke-width="7.9716" stroke-miterlimit="10" stroke-linecap="round"/>
<path d="M62.624 201.754L57.506 207.225L86.0111 221.661L84.0205 211.152L62.624 201.754Z" fill="#4661AD"/>
<path d="M14.439 33.2628L16.4972 51.5628L27.9054 61.5376L39.4955 58.9512L41.7347 42.0471L27.9054 32.8896L14.439 33.2628Z" fill="#E23237"/>
<path d="M27.9059 61.5376L39.4956 58.9618L41.7347 42.0466L27.9059 32.8896V61.5376Z" fill="#B52E31"/>
<path d="M25.4539 47.2243L27.9485 42.1687L30.7846 48.9559L25.4539 47.2243ZM19.5363 51.9913L22.6711 52.957L24.3557 49.3358L31.8828 51.7824L33.7273 56.6022L36.7238 57.6289L27.9269 36.2416L19.5363 51.9913Z" fill="white"/>
<path d="M347.759 249.885L366.805 221.53L352.139 216.765L347.759 223.352L343.283 213.888L328.714 209.154L347.759 249.885Z" fill="#41B883"/>
<path d="M347.759 249.885L366.805 221.53L359.186 219.055L347.759 236.068L336.237 211.598L328.714 209.154L347.759 249.885Z" fill="#41B883"/>
<path d="M347.76 236.168L359.186 219.055L352.14 216.765L347.76 223.352L343.284 213.888L342.183 213.531L336.237 211.598L347.76 236.168Z" fill="#35495E"/>
<path d="M146.839 44.1839C146.837 45.7532 148.046 46.6333 149.539 46.1499C151.032 45.6666 152.243 44.003 152.245 42.4337C152.247 40.8644 151.038 39.9844 149.545 40.4676C148.052 40.9509 146.84 42.6146 146.839 44.1839Z" fill="#00D8FF"/>
<path d="M143.343 45.3154C143.268 41.9256 143.711 38.3774 144.652 34.8034C145.11 33.1446 145.829 31.5028 146.774 29.9612C147.096 29.3848 147.513 28.8579 147.993 28.4156C148.474 27.9728 149.008 27.6253 149.559 27.3976C151.346 26.819 153.096 28.3154 154.238 31.402C155.25 34.4314 155.738 37.7808 155.684 41.3203C155.727 44.7817 155.239 48.3999 154.241 52.0377C153.798 53.6357 153.114 55.218 152.219 56.712C151.911 57.2755 151.51 57.792 151.045 58.2253C150.579 58.6587 150.06 58.999 149.525 59.2212C147.666 59.8227 145.787 58.1245 144.621 54.7866C143.717 51.8731 143.286 48.6789 143.343 45.3154ZM154.391 41.7389C154.438 38.3542 153.973 35.1491 153.016 32.2439C151.963 29.404 150.52 28.4451 149.561 28.7555C148.557 29.0804 146.977 31.1243 145.879 34.8455C144.982 38.2636 144.564 41.6557 144.637 44.8966C144.579 48.1153 144.987 51.1726 145.849 53.9626C146.947 57.1009 148.524 58.1812 149.526 57.8571C149.869 57.6887 150.198 57.4506 150.491 57.1584C150.784 56.8662 151.035 56.5251 151.228 56.1582C152.021 54.8238 152.629 53.4122 153.021 51.9872C153.972 48.508 154.434 45.0483 154.391 41.7389Z" fill="#00D8FF"/>
<path d="M136.066 41.2175C136.055 40.6912 136.178 40.1274 136.422 39.5845C137.317 37.6676 139.894 36.2702 143.315 35.8455C146.59 35.538 149.726 35.8275 152.602 36.7018C155.489 37.4613 158.098 38.7846 160.331 40.6226C161.309 41.4343 162.088 42.4836 162.634 43.7218C162.861 44.16 162.979 44.6802 162.978 45.2451C162.978 45.8106 162.859 46.4073 162.63 46.9927C161.7 48.9855 158.858 50.4659 155.211 50.8565C152.115 51.0831 149.15 50.7718 146.421 49.9346C143.57 49.224 140.983 47.9611 138.759 46.1938C137.743 45.3532 136.942 44.2553 136.396 42.956C136.188 42.4324 136.076 41.8446 136.066 41.2175ZM151.959 38.0871C149.204 37.2567 146.206 36.9772 143.076 37.2589C139.925 37.6507 138.028 38.8678 137.545 39.9014C137.043 40.9728 137.516 43.0261 139.74 44.9851C141.871 46.6701 144.347 47.8729 147.076 48.5491C149.685 49.3531 152.519 49.6545 155.48 49.4426C158.913 49.0743 161.015 47.7517 161.516 46.6786C161.641 46.297 161.697 45.9134 161.681 45.5536C161.665 45.1935 161.577 44.8641 161.422 44.5866C160.929 43.4873 160.228 42.5564 159.352 41.8372C157.212 40.0832 154.715 38.8204 151.953 38.0972L151.959 38.0871Z" fill="#00D8FF"/>
<path d="M136.038 54.1304C136.04 52.5904 136.928 50.3475 138.596 47.7717C140.856 44.4343 143.501 41.3735 146.429 38.7064C149.27 36.004 152.364 33.7083 155.593 31.9069C157.013 31.1189 158.478 30.5836 159.919 30.3268C160.453 30.2024 160.97 30.2055 161.434 30.3369C161.899 30.4682 162.299 30.7238 162.606 31.0862C163.535 32.4748 162.575 35.6519 160.1 39.3786C157.911 42.5196 155.38 45.4043 152.596 47.9319C149.821 50.6119 146.795 52.8993 143.631 54.7085C142.157 55.5276 140.637 56.0721 139.147 56.3153C138.597 56.4362 138.066 56.4271 137.59 56.2885C137.113 56.15 136.702 55.8848 136.386 55.5117C136.146 55.1331 136.026 54.6561 136.038 54.1304ZM147.079 39.6721C144.28 42.227 141.749 45.1528 139.58 48.3393C137.484 51.573 137.033 53.7457 137.519 54.4598C138.022 55.2063 140.073 55.2126 143.394 53.4464C146.415 51.7118 149.304 49.5225 151.953 46.9595C154.617 44.5448 157.041 41.7888 159.139 38.7879C161.469 35.2798 161.991 32.8767 161.49 32.1289C161.271 31.9161 160.999 31.7716 160.69 31.7045C160.38 31.6376 160.041 31.6495 159.694 31.7391C158.409 31.9743 157.104 32.4553 155.839 33.1608C152.751 34.8881 149.793 37.0864 147.077 39.6738L147.079 39.6721Z" fill="#00D8FF"/>
<path d="M334.139 151.358V165.764V180.171L361.423 189.432V160.62L334.139 151.358Z" fill="#007ACC"/>
<path d="M340.173 167.908L340.165 169.085L343.716 170.29V180.947L346.227 181.799V171.143L349.778 172.348V171.192C349.778 170.551 349.765 170.012 349.748 169.992C349.735 169.97 347.574 169.227 344.954 168.342L340.186 166.737L340.173 167.908Z" fill="white"/>
<path d="M356.154 172.124C356.847 172.543 357.375 173.046 357.86 173.742C358.112 174.11 358.484 174.754 358.515 174.887C358.523 174.927 357.337 175.366 356.618 175.593C356.592 175.602 356.488 175.448 356.371 175.225C356.02 174.567 355.652 174.208 355.089 173.976C354.262 173.636 353.729 173.913 353.734 174.678C353.734 174.902 353.764 175.044 353.85 175.257C354.032 175.717 354.37 176.069 355.431 176.914C357.384 178.464 358.22 179.334 358.74 180.342C359.32 181.468 359.45 182.993 359.056 183.962C358.623 185.013 357.549 185.462 356.037 185.219C355.569 185.147 354.461 184.757 353.959 184.491C352.863 183.913 351.824 182.989 351.183 182.021C350.932 181.643 350.442 180.713 350.473 180.669C350.486 180.655 350.598 180.62 350.724 180.584C350.845 180.553 351.304 180.429 351.737 180.311L352.521 180.097L352.685 180.409C352.915 180.857 353.417 181.536 353.721 181.808C354.591 182.588 355.786 182.925 356.375 182.567C356.626 182.41 356.73 182.194 356.73 181.823C356.73 181.489 356.691 181.33 356.526 181.022C356.315 180.63 355.882 180.213 354.651 179.234C353.244 178.115 352.638 177.512 352.084 176.692C351.763 176.218 351.46 175.529 351.334 174.997C351.23 174.555 351.204 173.526 351.286 173.143C351.577 171.805 352.603 171.152 354.084 171.357C354.565 171.425 355.682 171.84 356.154 172.124Z" fill="white"/>
<path d="M376.293 329.168C376.293 328.56 376.064 327.899 375.657 327.331C375.249 326.763 374.697 326.334 374.121 326.138C374.045 326.113 373.969 326.09 373.893 326.073L376.875 317.797L364.201 313.495L367.18 323.786C367.136 323.771 367.092 323.752 367.048 323.737C366.53 323.561 366.028 323.586 365.634 323.808C365.24 324.03 364.98 324.435 364.9 324.949C364.821 325.463 364.927 326.052 365.2 326.611C365.473 327.169 365.894 327.658 366.389 327.992C365.927 328.675 365.352 329.244 364.682 329.681C363.81 330.266 362.773 330.593 361.638 330.643C361.002 330.109 360.505 329.379 360.248 328.6C359.99 327.821 359.991 327.053 360.251 326.451C360.315 326.314 360.381 326.176 360.442 326.036C360.926 326.08 361.357 325.934 361.661 325.622C361.966 325.311 362.127 324.852 362.116 324.323C362.106 323.795 361.925 323.228 361.604 322.718C361.283 322.208 360.841 321.786 360.353 321.521C359.864 321.257 359.358 321.166 358.92 321.265C358.481 321.363 358.137 321.646 357.943 322.064C357.75 322.482 357.719 323.011 357.858 323.562C357.995 324.114 358.293 324.655 358.701 325.093C358.008 326.185 357.479 327.421 357.127 328.771C356.832 330.549 357.127 332.642 358.664 334.291C362.247 338.129 366.137 335.202 370.237 335.526C371.724 335.644 373.355 336.26 374.664 335.903C375.137 335.779 375.544 335.527 375.858 335.164C376.171 334.801 376.384 334.337 376.479 333.803C376.566 333.294 376.549 332.735 376.43 332.163C376.312 331.59 376.093 331.014 375.787 330.47C376.113 330.168 376.292 329.708 376.292 329.17L376.293 329.168ZM369.22 326.78V326.772C369.221 326.378 369.125 325.957 368.941 325.551C368.758 325.145 368.493 324.767 368.173 324.454L370.543 320.19L372.917 326.112C372.619 326.22 372.375 326.421 372.206 326.696C372.037 326.972 371.95 327.314 371.95 327.692V327.742L369.22 326.78Z" fill="#C63D14"/>
<path d="M376.823 329.348C376.822 328.683 376.602 327.965 376.2 327.317C375.798 326.669 375.239 326.131 374.621 325.798L377.616 317.488L363.462 312.684L366.462 323.046C365.938 322.992 365.461 323.116 365.092 323.402C364.722 323.687 364.478 324.122 364.389 324.65C364.299 325.179 364.369 325.777 364.59 326.368C364.81 326.959 365.173 327.517 365.629 327.97C365.252 328.433 364.813 328.829 364.322 329.151C363.561 329.661 362.667 329.964 361.689 330.043C361.23 329.606 360.883 329.042 360.709 328.453C360.536 327.864 360.548 327.291 360.745 326.837L360.778 326.766L360.84 326.633C361.395 326.619 361.872 326.392 362.199 325.987C362.527 325.583 362.686 325.023 362.654 324.392C362.621 323.761 362.397 323.094 362.018 322.491C361.638 321.889 361.122 321.384 360.549 321.053C359.976 320.721 359.377 320.582 358.841 320.656C358.306 320.73 357.863 321.012 357.581 321.461C357.3 321.91 357.194 322.501 357.279 323.144C357.365 323.788 357.639 324.448 358.057 325.025C357.967 325.198 357.872 325.372 357.774 325.551C357.234 326.416 356.842 327.409 356.608 328.498C356.221 330.83 356.846 333.015 358.367 334.645C359.184 335.539 360.163 336.202 361.167 336.54C362.943 337.142 364.74 336.81 366.499 336.485C367.728 336.197 369.024 336.071 370.366 336.11C370.847 336.148 371.342 336.241 371.866 336.339C372.933 336.611 373.974 336.657 374.931 336.475C375.472 336.333 375.937 336.044 376.295 335.629C376.653 335.213 376.895 334.682 377.004 334.073C377.181 333.034 376.977 331.836 376.428 330.699C376.688 330.34 376.824 329.872 376.824 329.348L376.823 329.348ZM375.763 328.988C375.763 329.331 375.666 329.634 375.485 329.857C375.305 330.081 375.049 330.216 374.749 330.245C374.45 330.275 374.119 330.197 373.801 330.022C373.482 329.847 373.19 329.583 372.961 329.263C372.731 328.943 372.575 328.581 372.511 328.223C372.448 327.865 372.48 327.527 372.605 327.253C372.729 326.978 372.939 326.779 373.209 326.68C373.479 326.582 373.797 326.588 374.121 326.698C374.556 326.846 374.973 327.171 375.281 327.6C375.589 328.029 375.762 328.529 375.763 328.988ZM376.135 318.106L373.491 325.443C373.377 325.434 373.266 325.432 373.157 325.44L370.545 318.923L367.925 323.63C367.811 323.55 367.695 323.477 367.577 323.412L364.941 314.306L376.135 318.106ZM367.048 324.297C367.373 324.407 367.69 324.617 367.96 324.899C368.23 325.181 368.44 325.523 368.564 325.881C368.688 326.24 368.721 326.6 368.658 326.915C368.595 327.229 368.438 327.485 368.208 327.65C367.979 327.814 367.687 327.88 367.368 327.839C367.05 327.797 366.72 327.651 366.42 327.418C366.12 327.185 365.864 326.876 365.683 326.53C365.503 326.184 365.407 325.816 365.407 325.473C365.407 325.014 365.581 324.632 365.888 324.411C366.196 324.191 366.613 324.15 367.048 324.297ZM359.948 321.904C360.273 322.014 360.591 322.224 360.861 322.506C361.13 322.788 361.34 323.131 361.464 323.49C361.588 323.849 361.621 324.209 361.557 324.523C361.493 324.838 361.337 325.093 361.106 325.257C360.877 325.421 360.583 325.486 360.265 325.445C359.946 325.403 359.616 325.256 359.316 325.022C359.016 324.788 358.761 324.479 358.581 324.132C358.401 323.785 358.305 323.418 358.306 323.075C358.306 322.616 358.48 322.234 358.787 322.013C359.095 321.793 359.512 321.752 359.947 321.899L359.948 321.904ZM375.958 333.527C375.876 333.984 375.693 334.382 375.424 334.693C375.155 335.004 374.805 335.219 374.399 335.326C373.558 335.472 372.647 335.422 371.714 335.179C371.188 335.08 370.644 334.978 370.112 334.936C368.694 334.889 367.326 335.018 366.029 335.322C363.394 335.809 361.114 336.229 358.971 333.931C357.399 332.247 357.471 330.142 357.654 329.038C357.87 328.049 358.23 327.148 358.723 326.363L358.948 325.947C359.171 326.117 359.406 326.259 359.646 326.369C359.434 327.088 359.493 327.952 359.813 328.81C360.133 329.669 360.694 330.465 361.396 331.058L361.6 331.238L361.815 331.231C363.019 331.18 364.118 330.835 365.044 330.215C365.655 329.816 366.191 329.312 366.641 328.717C367.217 329.005 367.806 329.098 368.319 328.983C368.833 328.867 369.244 328.55 369.492 328.077C369.739 327.604 369.81 327.002 369.693 326.359C369.575 325.717 369.276 325.069 368.841 324.513L370.539 321.464L372.254 325.741C371.766 326.072 371.473 326.645 371.433 327.346C371.393 328.047 371.608 328.825 372.037 329.525C372.466 330.224 373.077 330.795 373.749 331.123C374.42 331.452 375.102 331.513 375.66 331.297C375.969 332.061 376.072 332.842 375.956 333.528L375.958 333.527Z" fill="white"/>
<path d="M273.382 9.90226L277.601 15.7084L295.448 2.74148L287.012 0L273.382 9.90226Z" fill="#47C5FB"/>
<path d="M286.916 13.1838L279.618 18.4858L283.853 24.3802L288.064 21.3209L295.448 15.956L286.916 13.1838Z" fill="#47C5FB"/>
<path d="M283.853 24.3804L287.058 28.7925L295.447 31.5186L288.063 21.321L283.853 24.3804Z" fill="#00569E"/>
<path d="M279.571 18.5204L283.79 15.4562L288.063 21.3219L283.853 24.3803L279.571 18.5204Z" fill="#00B5F8"/>
</svg>
