<svg width="112" height="64" viewBox="0 0 112 64" fill="none" xmlns="http://www.w3.org/2000/svg">
<path d="M2.46529 61.5526C4.0443 63.1197 6.1856 64 8.41831 64C10.651 64 12.7923 63.1197 14.3713 61.5526L56.0508 20.1764L97.7304 61.5526C99.3184 63.0753 101.445 63.9178 103.653 63.8988C105.861 63.8797 107.973 63.0006 109.534 61.4508C111.095 59.901 111.98 57.8045 112 55.6129C112.019 53.4212 111.17 51.3098 109.636 49.7333L62.0038 2.44735C60.4248 0.880313 58.2835 0 56.0508 0C53.8181 0 51.6768 0.880313 50.0978 2.44735L2.46529 49.7333C0.886767 51.3008 0 53.4265 0 55.643C0 57.8594 0.886767 59.9851 2.46529 61.5526V61.5526Z" fill="#24263B"/>
</svg>
