<svg width="50" height="50" viewBox="0 0 50 50" fill="none" xmlns="http://www.w3.org/2000/svg">
<path d="M46.3828 23.0578C46.4891 22.9281 46.5945 22.7984 46.6922 22.668C48.4711 20.2797 49.832 15.625 41.3914 15.625C39.0281 15.625 35.9758 16.15 32.8039 17.0242C32.7523 11.9898 30.3148 7.53828 26.5734 4.71797C26.4641 4.625 26.3586 4.52969 26.2375 4.45C26.2539 4.46641 26.268 4.48516 26.2852 4.50156C23.6367 2.58973 20.4531 1.56132 17.1867 1.5625C15.6656 1.5625 14.2 1.79063 12.8094 2.19609L12.7898 2.19063L12.8047 2.19766C10.2528 2.94229 7.93339 4.3264 6.06641 6.21875C6.06641 6.21719 6.06641 6.21563 6.06484 6.21406L6.06641 6.21953C3.27744 9.0438 1.67322 12.8271 1.58203 16.7953L1.56797 16.768L1.58047 16.8156C1.57891 16.9391 1.5625 17.0609 1.5625 17.1875C1.5625 22.5281 4.24688 27.2383 8.33438 30.057L8.32344 30.0562C8.32734 30.057 8.33203 30.057 8.33594 30.0586C10.0458 31.2387 11.9747 32.0644 14.0089 32.487C16.0431 32.9095 18.1413 32.9203 20.1797 32.5188L20.1789 32.5195C22.2359 35.057 23.4203 37.3844 24.0508 39.4C22.6541 40.9891 21.1172 42.4491 19.4586 43.7625C19.0773 44.068 19.0312 44.6031 19.3594 44.9586C19.6875 45.3156 20.2625 45.3586 20.6453 45.0516C22.025 43.9561 23.3271 42.7662 24.5422 41.4906C25.0812 44.9234 24.0734 47.0703 23.9961 47.2281C23.8203 47.5766 23.918 47.9922 24.2359 48.2391C24.3941 48.3604 24.586 48.4298 24.7852 48.4376C24.9845 48.4454 25.1812 48.3914 25.3484 48.2828C27.9437 46.5805 30.1258 44.9117 31.9703 43.2969C32.4703 45.7906 32.1055 47.3508 32.0961 47.3859C32.0063 47.725 32.1477 48.0789 32.4531 48.2812C32.6059 48.3798 32.7831 48.4338 32.9649 48.4371C33.1467 48.4405 33.3258 48.393 33.482 48.3C35.7148 46.9469 37.7 45.5758 39.4375 44.1898C39.5852 46.0578 39.2547 47.2219 39.2148 47.3531C39.0742 47.8023 39.3523 48.2719 39.8359 48.4039C39.9195 48.4266 40.0063 48.4375 40.0914 48.4375C40.4852 48.4375 40.85 48.1977 40.9656 47.8273C41.0195 47.6562 41.5836 45.7398 41.0891 42.7922C41.7405 42.2165 42.3699 41.6164 42.9758 40.993C42.9898 41.1805 43.0578 41.3672 43.207 41.5148C43.3792 41.6797 43.6064 41.7748 43.8446 41.7819C44.0828 41.789 44.3152 41.7074 44.4969 41.5531C44.5383 41.5164 46.8344 39.4305 46.8492 35.7305C47.5797 34.3047 48.0602 32.8695 48.2875 31.4258C48.9594 27.1766 47.1961 24.1773 46.3828 23.0578ZM41.3914 18.0227C45.1156 18.0227 44.557 19.2445 43.4648 20.5289C41.1047 23.3055 34.6445 26.3594 28.7984 27.618C30.8077 25.386 32.1276 22.6199 32.5984 19.6539C35.8055 18.6648 38.9961 18.0227 41.3914 18.0227ZM39.7859 27.9523C39.5773 29.4555 38.9656 31.7016 37.3117 34.4336C36.3477 33.1406 35.1578 31.8 33.6969 30.4328C35.8016 29.7633 37.8844 28.9227 39.7859 27.9523ZM28.9211 31.6492C28.7703 32.0266 28.5914 32.4383 28.3852 32.875C28.0886 32.5407 27.7849 32.2127 27.4742 31.8914C27.9582 31.8209 28.4406 31.7402 28.9211 31.6492ZM25.0727 28.8242C24.2201 28.4828 23.4092 28.0457 22.6555 27.5211L22.6508 27.5164C22.7914 27.4305 22.9367 27.3531 23.0742 27.2617C23.6494 26.8674 24.1922 26.428 24.6977 25.9477C24.8539 26.0547 25.0172 26.1523 25.1914 26.2359C26.0039 26.6078 26.8641 26.6508 27.6828 26.5133C26.9112 27.3881 26.0345 28.1643 25.0727 28.8242ZM31.2492 17.1875C31.2492 20.643 29.9914 23.807 27.9148 26.2578C27.0297 26.3203 26.157 26.2141 25.45 25.7547C25.341 25.6858 25.2359 25.6109 25.1352 25.5305C25.6967 24.9575 26.2062 24.3358 26.6578 23.6727C28.5531 20.8273 29.3148 17.3828 29.2 14.0609C29.1513 12.3947 28.8718 10.7433 28.3695 9.15391C28.2656 8.84219 28.1453 8.53672 28.0219 8.23281C30.1101 10.7494 31.2519 13.9174 31.2492 17.1875ZM17.1867 3.125C21.1484 3.125 24.7258 4.77813 27.2844 7.42266C27.518 8.03594 27.6953 8.67266 27.8453 9.30078C28.2086 10.8641 28.35 12.4734 28.3281 14.068C28.2641 17.2477 27.4859 20.4484 25.7258 23.0484C25.3296 23.6479 24.8802 24.2103 24.3828 24.7289C23.9633 24.1461 23.6578 23.4563 23.4117 22.7609C23.0055 21.5602 22.7195 20.2969 22.4742 19.0195L21.7164 15.1609C21.1555 12.5922 20.4828 9.96484 19.1172 7.61563C18.4398 6.44688 17.5703 5.37109 16.5094 4.53125C15.9061 4.071 15.2499 3.68466 14.5547 3.38047C15.4221 3.21318 16.3033 3.12765 17.1867 3.125ZM14.1742 3.45859C16.0195 4.52266 17.4344 6.16484 18.3484 8.03359C19.4797 10.3195 20.0867 12.8492 20.6203 15.3938C21.1898 17.9336 21.5727 20.5586 22.5984 23.0758C22.9102 23.8188 23.318 24.5867 23.8813 25.2195C23.2255 25.834 22.5106 26.382 21.7469 26.8555C21.0311 26.3247 20.3387 25.763 19.6719 25.1719C17.7914 23.4695 16.0547 21.6023 14.4359 19.6406C12.8044 17.685 11.2868 15.6371 9.89062 13.507C9.19844 12.4383 8.53125 11.3523 7.93672 10.225C7.50078 9.42422 7.10938 8.59922 6.80313 7.7375C8.75774 5.58226 11.3334 4.08712 14.1742 3.45859ZM3.125 17.1875C3.125 13.6281 4.46484 10.3836 6.65234 7.90391C6.83516 8.77266 7.13047 9.62266 7.43906 10.4547C7.92928 11.6591 8.49849 12.8299 9.14297 13.9594C10.418 16.225 11.9234 18.35 13.5727 20.3563C15.2398 22.3453 17.0547 24.2266 19.1078 25.8414C19.7391 26.3414 20.3984 26.8078 21.0812 27.2398C20.1743 27.7396 19.2192 28.1463 18.2305 28.4539C18.2141 28.4594 18.1969 28.4625 18.1812 28.4672C17.5539 28.0555 16.8828 27.7227 16.2102 27.4328C14.2805 26.607 12.3148 26.0203 10.493 25.1633C8.66016 24.3391 6.97266 23.2492 5.56953 21.8242C4.65703 20.9 3.88828 19.8328 3.20859 18.693C3.15392 18.193 3.12602 17.6905 3.125 17.1875ZM3.45547 20.1914C3.86953 20.9719 4.34609 21.7242 4.92344 22.4094C6.28594 24.0609 8.10781 25.2977 10.0234 26.1813C11.9508 27.0633 13.9688 27.6125 15.8938 28.2484C16.3359 28.4016 16.7742 28.5609 17.2016 28.7414C15.0227 29.2953 12.743 29.507 10.4508 29.5266C8.68654 28.5593 7.14959 27.226 5.94307 25.6159C4.73656 24.0058 3.88838 22.1563 3.45547 20.1914ZM17.1867 31.25C14.9813 31.25 12.9008 30.725 11.0406 29.8156C13.4688 30.0305 15.9445 29.9344 18.3555 29.3203C18.4438 29.3734 18.5367 29.4211 18.6242 29.4781C19.2145 29.8536 19.7152 30.3542 20.0906 30.9445C19.1531 31.143 18.182 31.25 17.1867 31.25ZM19.0469 29.1227C20.1115 28.8112 21.1381 28.3823 22.1078 27.8438C22.1984 27.893 22.2867 27.9461 22.3766 27.993C23.1727 28.3867 24.0062 28.7359 24.8656 28.9531C23.4667 29.8693 21.9148 30.5271 20.2836 30.8953C20.0137 30.2169 19.5904 29.6102 19.0469 29.1227ZM22.1406 32.1211C22.6742 32.1563 23.2477 32.1742 23.8641 32.1742C24.2961 32.1742 24.7437 32.1586 25.2031 32.1297C26.0126 32.9041 26.7791 33.7223 27.4992 34.5805C26.8691 35.6875 26.1651 36.7508 25.3922 37.7633C24.7188 36.0312 23.6875 34.1367 22.1406 32.1211ZM26.3664 45.4828C26.5906 44.082 26.6398 42.1406 26.0492 39.807C27.0212 38.6458 27.9056 37.414 28.6953 36.1219C30.0719 38.0438 30.9328 39.8281 31.457 41.3828C30.0156 42.7094 28.3375 44.0797 26.3664 45.4828ZM32.9133 39.9766C32.2461 38.2883 31.2203 36.4047 29.6625 34.4023C30.2014 33.366 30.6615 32.2905 31.0391 31.1852C31.2664 31.1289 31.4945 31.0711 31.7227 31.0102C33.6773 32.7453 35.1578 34.4312 36.2656 36.0211C35.3797 37.2656 34.2781 38.5906 32.9133 39.9766ZM34.0797 45.8805C34.0953 44.8672 33.9867 43.4922 33.5422 41.8578C35.057 40.4023 36.2984 39.0008 37.3102 37.6719C38.2578 39.3367 38.8125 40.8641 39.1211 42.1898C37.6531 43.4266 35.9742 44.6578 34.0797 45.8805ZM40.632 40.8359C40.2008 39.3953 39.5086 37.7922 38.4383 36.0781C40.668 32.6953 41.4219 29.8906 41.6422 28.0336C44.0703 30.9398 44.9344 33.3648 45.0539 35.2734C44.057 37.1352 42.5805 38.9922 40.632 40.8359ZM46.475 31.2227C46.4172 31.5836 46.3344 31.9445 46.2398 32.3047C45.6234 30.5406 44.4742 28.5539 42.5359 26.3664C43.451 25.7738 44.3166 25.1081 45.1242 24.3758C45.8492 25.5023 47.0109 27.9094 46.475 31.2227Z" fill="#FF4A57"/>
<path d="M29.728 26.4801L29.7234 26.486C29.7333 26.4821 29.7432 26.4784 29.7533 26.475L29.728 26.4801Z" fill="#FF4A57"/>
</svg>
