<svg width="25" height="25" viewBox="0 0 25 25" fill="none" xmlns="http://www.w3.org/2000/svg">
<path d="M4.76558 4.76558C5.0586 4.47266 5.45595 4.30811 5.87027 4.30811C6.28459 4.30811 6.68195 4.47266 6.97496 4.76558L12.5 10.2906L18.025 4.76558C18.3197 4.48096 18.7143 4.32347 19.124 4.32703C19.5337 4.33059 19.9256 4.49492 20.2153 4.78462C20.505 5.07432 20.6693 5.46621 20.6729 5.8759C20.6764 6.28558 20.519 6.68027 20.2343 6.97496L14.7093 12.5L20.2343 18.025C20.519 18.3197 20.6764 18.7143 20.6729 19.124C20.6693 19.5337 20.505 19.9256 20.2153 20.2153C19.9256 20.505 19.5337 20.6693 19.124 20.6729C18.7143 20.6764 18.3197 20.519 18.025 20.2343L12.5 14.7093L6.97496 20.2343C6.68027 20.519 6.28558 20.6764 5.8759 20.6729C5.46621 20.6693 5.07432 20.505 4.78462 20.2153C4.49492 19.9256 4.33059 19.5337 4.32703 19.124C4.32347 18.7143 4.48096 18.3197 4.76558 18.025L10.2906 12.5L4.76558 6.97496C4.47266 6.68195 4.30811 6.28459 4.30811 5.87027C4.30811 5.45595 4.47266 5.0586 4.76558 4.76558V4.76558Z" fill="white"/>
</svg>
