<svg width="50" height="50" viewBox="0 0 50 50" fill="none" xmlns="http://www.w3.org/2000/svg">
<path d="M39.75 13.75C38.25 11.25 35.5 10 32.5 10H17.5C14.5 10 11.75 11.25 10.25 13.75C4.5 22.5 3.25001 35.75 7.25001 38.5C11.25 41.25 20.25 29.25 25 29.25C29.75 29.25 38.5 41.25 42.75 38.5C46.75 35.75 45.5 22.5 39.75 13.75ZM20 22.5H17.5V25H15V22.5H12.5V20H15V17.5H17.5V20H20V22.5ZM33.5 23.75C33.5 25 32.5 26 31.25 26C30 26 29 25 29 23.75C29 22.5 30 21.5 31.25 21.5C32.5 21.5 33.5 22.5 33.5 23.75ZM38.25 18.75C38.25 20 37.25 21 36 21C34.75 21 33.75 20 33.75 18.75C33.75 17.5 34.75 16.5 36 16.5C37.25 16.5 38.25 17.5 38.25 18.75Z" fill="#FF4A57"/>
</svg>
