<svg width="24" height="24" viewBox="0 0 24 24" fill="none" xmlns="http://www.w3.org/2000/svg">
<g clip-path="url(#clip0_128_377)">
<path d="M23.5469 10.9305L13.0679 0.453034C12.9245 0.309487 12.7541 0.195615 12.5666 0.117923C12.3791 0.0402321 12.1781 0.000244141 11.9752 0.000244141C11.7722 0.000244141 11.5713 0.0402321 11.3838 0.117923C11.1963 0.195615 11.0259 0.309487 10.8824 0.453034L8.70744 2.62803L11.4674 5.38803C11.7929 5.2769 12.1431 5.25951 12.4781 5.33786C12.813 5.41621 13.1191 5.58713 13.3615 5.83112C13.604 6.07512 13.7729 6.38235 13.8491 6.71776C13.9253 7.05317 13.9057 7.40325 13.7924 7.72803L16.4519 10.389C16.8454 10.2505 17.2743 10.2501 17.6681 10.3878C18.0618 10.5256 18.3969 10.7934 18.6181 11.147C18.8394 11.5006 18.9336 11.9191 18.8854 12.3334C18.8371 12.7477 18.6491 13.1333 18.3524 13.4265C18.0521 13.7287 17.6562 13.9172 17.2323 13.9599C16.8084 14.0026 16.3829 13.8968 16.0284 13.6605C15.6738 13.4243 15.4123 13.0723 15.2885 12.6647C15.1647 12.257 15.1862 11.819 15.3494 11.4255L12.8699 8.94454V15.474C13.2468 15.6606 13.5484 15.9707 13.7244 16.3526C13.9003 16.7346 13.9401 17.1653 13.837 17.573C13.7339 17.9807 13.4942 18.3407 13.1578 18.5931C12.8215 18.8455 12.4087 18.975 11.9885 18.96C11.5682 18.945 11.1658 18.7864 10.8483 18.5107C10.5308 18.2349 10.3174 17.8587 10.2436 17.4447C10.1699 17.0306 10.2402 16.6039 10.443 16.2354C10.6458 15.867 10.9687 15.5792 11.3579 15.42V8.83053C11.1334 8.73852 10.9292 8.60296 10.7573 8.43168C10.5854 8.2604 10.449 8.05678 10.3562 7.83256C10.2633 7.60834 10.2157 7.36796 10.2162 7.12527C10.2167 6.88258 10.2652 6.64239 10.3589 6.41853L7.63944 3.69753L0.454438 10.8825C0.310891 11.026 0.197018 11.1964 0.119327 11.3839C0.0416359 11.5714 0.00164795 11.7723 0.00164795 11.9753C0.00164795 12.1782 0.0416359 12.3792 0.119327 12.5667C0.197018 12.7542 0.310891 12.9246 0.454438 13.068L10.9334 23.547C11.0769 23.6906 11.2473 23.8045 11.4348 23.8821C11.6223 23.9598 11.8232 23.9998 12.0262 23.9998C12.2291 23.9998 12.4301 23.9598 12.6176 23.8821C12.8051 23.8045 12.9755 23.6906 13.1189 23.547L23.5484 13.1175C23.838 12.8276 24.0006 12.4346 24.0006 12.0248C24.0006 11.615 23.838 11.222 23.5484 10.932" fill="white"/>
</g>
<defs>
<clipPath id="clip0_128_377">
<rect width="24" height="24" fill="white"/>
</clipPath>
</defs>
</svg>
