<svg width="50" height="50" viewBox="0 0 50 50" fill="none" xmlns="http://www.w3.org/2000/svg">
<path d="M25 7.5C20.3587 7.5 15.9075 9.34374 12.6256 12.6256C9.34374 15.9075 7.5 20.3587 7.5 25V27.5H11.25C11.5815 27.5 11.8995 27.6317 12.1339 27.8661C12.3683 28.1005 12.5 28.4185 12.5 28.75V43.75C12.5 44.0815 12.3683 44.3995 12.1339 44.6339C11.8995 44.8683 11.5815 45 11.25 45H10C8.67392 45 7.40215 44.4732 6.46447 43.5355C5.52678 42.5979 5 41.3261 5 40V25C5 19.6957 7.10714 14.6086 10.8579 10.8579C14.6086 7.10714 19.6957 5 25 5C30.3043 5 35.3914 7.10714 39.1421 10.8579C42.8929 14.6086 45 19.6957 45 25V40C45 41.3261 44.4732 42.5979 43.5355 43.5355C42.5979 44.4732 41.3261 45 40 45H38.75C38.4185 45 38.1005 44.8683 37.8661 44.6339C37.6317 44.3995 37.5 44.0815 37.5 43.75V28.75C37.5 28.4185 37.6317 28.1005 37.8661 27.8661C38.1005 27.6317 38.4185 27.5 38.75 27.5H42.5V25C42.5 20.3587 40.6563 15.9075 37.3744 12.6256C34.0925 9.34374 29.6413 7.5 25 7.5ZM26.25 26.25C26.25 25.9185 26.1183 25.6005 25.8839 25.3661C25.6495 25.1317 25.3315 25 25 25C24.6685 25 24.3505 25.1317 24.1161 25.3661C23.8817 25.6005 23.75 25.9185 23.75 26.25V43.75C23.75 44.0815 23.8817 44.3995 24.1161 44.6339C24.3505 44.8683 24.6685 45 25 45C25.3315 45 25.6495 44.8683 25.8839 44.6339C26.1183 44.3995 26.25 44.0815 26.25 43.75V26.25ZM18.75 30C19.0815 30 19.3995 30.1317 19.6339 30.3661C19.8683 30.6005 20 30.9185 20 31.25V41.25C20 41.5815 19.8683 41.8995 19.6339 42.1339C19.3995 42.3683 19.0815 42.5 18.75 42.5C18.4185 42.5 18.1005 42.3683 17.8661 42.1339C17.6317 41.8995 17.5 41.5815 17.5 41.25V31.25C17.5 30.9185 17.6317 30.6005 17.8661 30.3661C18.1005 30.1317 18.4185 30 18.75 30ZM32.5 31.25C32.5 30.9185 32.3683 30.6005 32.1339 30.3661C31.8995 30.1317 31.5815 30 31.25 30C30.9185 30 30.6005 30.1317 30.3661 30.3661C30.1317 30.6005 30 30.9185 30 31.25V41.25C30 41.5815 30.1317 41.8995 30.3661 42.1339C30.6005 42.3683 30.9185 42.5 31.25 42.5C31.5815 42.5 31.8995 42.3683 32.1339 42.1339C32.3683 41.8995 32.5 41.5815 32.5 41.25V31.25Z" fill="#FF4A57"/>
</svg>
