<svg width="40" height="40" viewBox="0 0 40 40" fill="none" xmlns="http://www.w3.org/2000/svg">
<path d="M26 20C26 21.5913 25.3679 23.1174 24.2426 24.2426C23.1174 25.3678 21.5913 26 20 26C18.4087 26 16.8826 25.3678 15.7574 24.2426C14.6321 23.1174 14 21.5913 14 20C14 19.658 14.036 19.324 14.098 19H12V26.994C12 27.55 12.45 28 13.006 28H26.996C27.2625 27.9995 27.5178 27.8932 27.7061 27.7046C27.8943 27.516 28 27.2604 28 26.994V19H25.902C25.964 19.324 26 19.658 26 20ZM20 24C20.5254 23.9999 21.0457 23.8962 21.531 23.695C22.0164 23.4939 22.4574 23.199 22.8288 22.8274C23.2003 22.4558 23.4949 22.0147 23.6958 21.5292C23.8968 21.0437 24.0001 20.5234 24 19.998C23.9999 19.4726 23.8963 18.9523 23.6951 18.4669C23.4939 17.9816 23.199 17.5406 22.8274 17.1691C22.4558 16.7977 22.0147 16.5031 21.5292 16.3022C21.0437 16.1012 20.5234 15.9979 19.998 15.998C18.9369 15.9983 17.9193 16.42 17.1692 17.1706C16.419 17.9211 15.9977 18.9389 15.998 20C15.9983 21.0611 16.4201 22.0787 17.1706 22.8288C17.9211 23.579 18.9389 24.0003 20 24ZM24.8 15.8H27.198C27.3573 15.8 27.5101 15.7368 27.623 15.6244C27.7358 15.5119 27.7995 15.3593 27.8 15.2V12.802C27.8 12.6423 27.7366 12.4892 27.6237 12.3763C27.5108 12.2634 27.3577 12.2 27.198 12.2H24.8C24.6403 12.2 24.4872 12.2634 24.3743 12.3763C24.2614 12.4892 24.198 12.6423 24.198 12.802V15.2C24.2 15.53 24.47 15.8 24.8 15.8ZM20 0.799988C14.9078 0.799988 10.0242 2.82284 6.42355 6.42354C2.82285 10.0242 0.8 14.9078 0.8 20C0.8 25.0921 2.82285 29.9757 6.42355 33.5764C10.0242 37.1771 14.9078 39.2 20 39.2C22.5214 39.2 25.0181 38.7034 27.3475 37.7385C29.677 36.7736 31.7936 35.3593 33.5765 33.5764C35.3593 31.7936 36.7736 29.677 37.7385 27.3475C38.7034 25.0181 39.2 22.5214 39.2 20C39.2 17.4786 38.7034 14.9819 37.7385 12.6525C36.7736 10.323 35.3593 8.20642 33.5765 6.42354C31.7936 4.64065 29.677 3.22639 27.3475 2.2615C25.0181 1.29661 22.5214 0.799988 20 0.799988ZM30 27.778C30 29 29 30 27.778 30H12.222C11 30 10 29 10 27.778V12.222C10 11 11 9.99999 12.222 9.99999H27.778C29 9.99999 30 11 30 12.222V27.778Z" fill="#FF4A57"/>
</svg>
