<svg width="24" height="24" viewBox="0 0 24 24" fill="none" xmlns="http://www.w3.org/2000/svg">
<path d="M1.5 1.5V22.5H22.5V1.5H1.5ZM12.9285 17.8778C12.9285 19.9215 11.7285 20.8545 9.98025 20.8545C8.40075 20.8545 7.4865 20.0392 7.01775 19.05L8.62575 18.0795C8.9355 18.6278 9.21675 19.092 9.89625 19.092C10.5427 19.092 10.9552 18.8385 10.9552 17.85V11.142H12.9285V17.8778ZM17.5965 20.8545C15.7635 20.8545 14.5777 19.983 14.001 18.8385L15.609 17.9108C16.0312 18.6 16.584 19.1108 17.5545 19.1108C18.3698 19.1108 18.8955 18.7027 18.8955 18.1357C18.8955 17.4607 18.3608 17.2215 17.4562 16.8232L16.9642 16.6125C15.5392 16.008 14.5972 15.2437 14.5972 13.6357C14.5972 12.1545 15.7267 11.0295 17.4847 11.0295C18.741 11.0295 19.641 11.4653 20.2882 12.609L18.7507 13.5938C18.4132 12.9893 18.0472 12.75 17.4802 12.75C16.9042 12.75 16.5382 13.116 16.5382 13.5938C16.5382 14.1847 16.9043 14.4233 17.7525 14.7938L18.2445 15.0045C19.923 15.7215 20.865 16.458 20.865 18.1073C20.865 19.8795 19.4677 20.8538 17.5972 20.8538L17.5965 20.8545Z" fill="white"/>
</svg>
