<svg width="122" height="135" viewBox="0 0 122 135" fill="none" xmlns="http://www.w3.org/2000/svg">
<path fill-rule="evenodd" clip-rule="evenodd" d="M13.4368 111.101L13.5537 100.235C13.5537 95.2495 13.4758 91.8222 13.32 89.9527C13.32 86.2137 10.9831 84.3443 6.30947 84.3443H5.60838C2.95987 84.3443 1.28521 83.1371 0.584175 80.7223C0.194668 79.476 0 77.8791 0 75.9317C0 73.9845 0.175201 72.3874 0.525718 71.1412C0.876291 69.8949 1.36313 69.0381 1.9863 68.5707C2.99891 67.8697 4.16738 67.5192 5.49152 67.5192H5.9589C10.8662 67.5192 13.32 65.6107 13.32 61.7939C13.3979 47.5393 13.4368 39.594 13.4368 37.9582C13.4368 31.9605 15.2478 27.053 18.8699 23.2362C22.4919 19.4194 27.0293 17.5109 32.4819 17.5109C35.0525 17.5109 36.9218 17.8031 38.0902 18.3872C39.2588 18.9715 40.0377 19.8674 40.4271 21.0747C40.8166 22.282 41.0113 23.8594 41.0113 25.8068C41.0113 27.7541 40.8166 29.3314 40.4271 30.5389C40.0376 31.7462 39.3754 32.5835 38.4407 33.0509C36.9608 33.9077 35.0134 34.3361 32.5986 34.3361C31.0408 34.3361 30.2618 35.8551 30.2618 38.893V58.7561C30.2618 60.8116 30.0515 62.769 29.6313 64.6283C29.5199 64.4038 29.3935 64.1738 29.252 63.9386L29.2224 63.8871C28.7671 63.1177 28.2832 62.5084 27.7707 62.0603C27.0126 61.3971 26.1955 61.0654 25.3204 61.0654C25.0167 61.0654 24.712 61.0946 24.4071 61.1533C24.1605 61.2009 23.9177 61.2715 23.6792 61.3657C23.4204 61.4557 23.0648 61.6272 22.6119 61.8797C22.2762 62.0665 21.7811 62.3592 21.1275 62.7565C20.888 62.9021 19.4536 63.7556 16.8339 65.3114C14.5578 66.6632 11.4402 68.5108 7.48187 70.8533L7.48296 70.8553C6.67666 71.288 6.05606 71.8844 5.62197 72.6444C5.18896 73.4026 4.97237 74.2681 4.97237 75.2409C4.97237 76.2098 5.18605 77.0725 5.61335 77.8284L5.61723 77.8263C6.0689 78.6231 6.71171 79.2318 7.54484 79.6515L22.2897 88.4019C23.3892 89.0548 24.3765 89.3816 25.251 89.3816C25.7136 89.3816 26.1724 89.2872 26.6268 89.0994C27.0235 88.9352 27.3932 88.7061 27.7356 88.413C28.0259 88.1642 28.3052 87.8675 28.572 87.5242C28.8069 87.2225 29.0467 86.872 29.2912 86.474L29.2872 86.4716L29.2912 86.4651L29.3342 86.3945C29.938 89.2488 30.2278 92.6549 30.2034 96.6128C30.1645 102.922 30.1451 107.946 30.1451 111.685V114.489C30.1451 115.424 30.3397 116.164 30.7292 116.709C31.2745 117.255 32.073 117.527 33.1244 117.527C34.1762 117.527 35.0719 117.586 35.8118 117.703C36.5519 117.819 37.4282 118.112 38.4407 118.579C40.1544 119.436 41.0113 121.85 41.0113 125.823C41.0113 129.874 40.1155 132.327 38.3239 133.184C36.9218 133.885 35.0134 134.236 32.5986 134.236C27.146 134.236 22.5893 132.288 18.9284 128.394C15.2673 124.499 13.4368 119.475 13.4368 113.321V111.101V111.101ZM27.3261 70.8722C26.5741 72.3851 25.839 73.5263 25.1208 74.2958L23.3683 76.0484C23.8356 76.2821 24.5561 76.9833 25.5299 78.1516C25.7321 78.3944 25.927 78.6402 26.114 78.8897L19.954 75.2331C21.7112 74.1908 24.1688 72.737 27.3262 70.8722L27.3261 70.8722Z" fill="#FF4A57"/>
<path fill-rule="evenodd" clip-rule="evenodd" d="M107.833 111.101L107.716 100.235C107.716 95.2495 107.794 91.8222 107.95 89.9527C107.95 86.2137 110.287 84.3443 114.961 84.3443H115.662C118.31 84.3443 119.985 83.1371 120.686 80.7223C121.075 79.476 121.27 77.8791 121.27 75.9317C121.27 73.9845 121.095 72.3874 120.744 71.1412C120.394 69.8949 119.907 69.0381 119.284 68.5707C118.271 67.8697 117.103 67.5192 115.778 67.5192H115.311C110.404 67.5192 107.95 65.6107 107.95 61.7939C107.872 47.5393 107.833 39.594 107.833 37.9582C107.833 31.9605 106.022 27.053 102.4 23.2362C98.778 19.4194 94.2407 17.5109 88.7881 17.5109C86.2176 17.5109 84.3481 17.8031 83.1798 18.3872C82.0112 18.9715 81.2323 19.8674 80.8429 21.0747C80.4534 22.282 80.2586 23.8594 80.2586 25.8068C80.2586 27.7541 80.4534 29.3314 80.8429 30.5389C81.2324 31.7462 81.8945 32.5835 82.8292 33.0509C84.3092 33.9077 86.2565 34.3361 88.6713 34.3361C90.2292 34.3361 91.0082 35.8551 91.0082 38.893V58.2525C91.2099 58.3346 91.4301 58.4303 91.6688 58.5395L91.7119 58.5598L91.7132 58.5572C92.5869 58.9776 93.2749 59.4532 93.7768 59.9833C94.2088 60.4391 94.5137 60.9272 94.6914 61.4471C95.1866 61.1926 95.7021 61.0652 96.2383 61.0652C97.2088 61.0652 98.219 61.3925 99.2682 62.0464L99.2693 62.0448L114.117 70.8777C114.901 71.3071 115.507 71.894 115.933 72.6376L115.937 72.6353C116.37 73.3933 116.587 74.2616 116.587 75.2407C116.587 76.2096 116.373 77.0723 115.946 77.8282C115.914 77.8846 115.879 77.9391 115.843 77.9918C115.399 78.7073 114.789 79.2603 114.016 79.6506L99.2621 88.4257C98.3896 88.9702 97.5477 89.2774 96.7376 89.3464C95.6459 89.4395 94.6799 89.1344 93.8411 88.4307C93.7994 88.3958 93.7595 88.3597 93.7208 88.3226C93.4873 88.1115 93.2584 87.867 93.0351 87.5898C92.8048 87.3037 92.5806 86.9865 92.3632 86.6388C92.3259 86.5788 92.2919 86.5178 92.2607 86.4559C92.1719 86.3055 92.0904 86.162 92.0162 86.0253C91.3576 88.9537 91.041 92.4829 91.0665 96.6126C91.1055 102.922 91.1249 107.946 91.1249 111.685V114.489C91.1249 115.424 90.9303 116.164 90.5408 116.709C89.9955 117.255 89.1971 117.527 88.1456 117.527C87.0938 117.527 86.1981 117.586 85.4581 117.702C84.718 117.819 83.8418 118.111 82.8292 118.579C81.1155 119.436 80.2586 121.85 80.2586 125.823C80.2586 129.874 81.1545 132.327 82.9461 133.184C84.3481 133.885 86.2565 134.236 88.6713 134.236C94.1239 134.236 98.6806 132.288 102.342 128.394C106.003 124.499 107.833 119.475 107.833 113.321V111.101L107.833 111.101ZM93.8044 70.5876C94.6051 72.2427 95.3865 73.4788 96.1492 74.2958L97.9017 76.0484C97.4344 76.2821 96.7139 76.9833 95.7401 78.1516C95.4558 78.493 95.1864 78.8408 94.9319 79.1954L101.622 75.2374L94.1785 70.8197L94.0746 70.7544L93.8044 70.5876L93.8044 70.5876Z" fill="#FF4A57"/>
<path d="M8.60541 77.0176C7.70378 76.5783 7.25296 75.7807 7.25296 74.6248C7.25296 73.4688 7.71534 72.6597 8.64009 72.1973C16.5698 67.5042 21.1242 64.7993 22.3033 64.0826C23.4824 63.3659 24.1875 62.9729 24.4187 62.9035C24.673 62.788 24.9735 62.7302 25.3203 62.7302C25.9445 62.7302 26.5918 63.2966 27.2623 64.4294C27.7015 65.1461 27.9212 65.6894 27.9212 66.0593C27.9212 66.406 27.8402 66.7066 27.6784 66.9609C27.4703 67.3308 26.9964 67.7585 26.2566 68.244C19.3672 72.3129 15.7838 74.4398 15.5064 74.6248L26.2566 81.0056C26.6959 81.2599 27.008 81.4679 27.1929 81.6298C27.7015 82.0459 27.9558 82.4967 27.9558 82.9822C27.9558 83.4446 27.7478 84.011 27.3316 84.6815C26.9386 85.3288 26.5803 85.7912 26.2566 86.0686C25.9329 86.346 25.5977 86.4847 25.2509 86.4847C24.7886 86.4847 24.1875 86.2651 23.4477 85.8258L8.60541 77.0176ZM45.7441 79.8959L46.3683 79.445C47.1544 78.9827 47.7092 78.7515 48.0329 78.7515C48.7496 78.7515 49.5241 79.3988 50.3563 80.6935C50.8649 81.5026 51.1192 82.1499 51.1192 82.6354C51.1192 83.1209 50.9574 83.5255 50.6338 83.8492C50.3332 84.1728 49.9749 84.4618 49.5587 84.7161C49.1426 84.9704 48.738 85.2132 48.345 85.4444C47.9751 85.6756 47.2006 85.9761 46.0216 86.346C44.8425 86.7159 43.6981 86.9009 42.5884 86.9009C41.5018 86.9009 40.3921 86.7621 39.2593 86.4847C38.1496 86.1842 36.9937 85.6987 35.7915 85.0282C34.6124 84.3347 33.549 83.5024 32.6011 82.5314C31.6532 81.5373 30.8672 80.2773 30.243 78.7515C29.6419 77.2025 29.3413 75.5264 29.3413 73.7231C29.3413 71.9199 29.6419 70.29 30.243 68.8335C30.8441 67.3539 31.607 66.1402 32.5317 65.1923C33.4796 64.2213 34.5546 63.4122 35.7568 62.7648C38.0225 61.5164 40.2997 60.8922 42.5884 60.8922C43.675 60.8922 44.7731 61.0656 45.8828 61.4124C47.0157 61.7361 47.8711 62.0713 48.449 62.4181L49.2813 62.9035C49.6974 63.1579 50.0211 63.3659 50.2523 63.5278C50.8534 64.0133 51.1539 64.5681 51.1539 65.1923C51.1539 65.7934 50.9112 66.4292 50.4257 67.0996C49.5241 68.348 48.7149 68.9722 47.9982 68.9722C47.5821 68.9722 46.9925 68.7179 46.2296 68.2093C45.2586 67.4233 43.964 67.0303 42.3457 67.0303C40.8429 67.0303 39.3633 67.5504 37.9069 68.5908C37.2133 69.0994 36.6353 69.8161 36.1729 70.7408C35.7106 71.6656 35.4794 72.7175 35.4794 73.8965C35.4794 75.0525 35.7106 76.0928 36.1729 77.0176C36.6353 77.9423 37.2249 78.6706 37.9415 79.2023C39.3518 80.2195 40.8198 80.7281 42.3457 80.7281C43.0623 80.7281 43.7328 80.6357 44.357 80.4507C45.0043 80.2658 45.4667 80.0808 45.7441 79.8959ZM68.6033 79.8959L69.2275 79.445C70.0135 78.9827 70.5684 78.7515 70.8921 78.7515C71.6087 78.7515 72.3832 79.3988 73.2155 80.6935C73.7241 81.5026 73.9784 82.1499 73.9784 82.6354C73.9784 83.1209 73.8166 83.5255 73.4929 83.8492C73.1924 84.1728 72.834 84.4618 72.4179 84.7161C72.0018 84.9704 71.5972 85.2132 71.2042 85.4444C70.8343 85.6756 70.0598 85.9761 68.8807 86.346C67.7017 86.7159 66.5573 86.9009 65.4476 86.9009C64.361 86.9009 63.2513 86.7621 62.1185 86.4847C61.0088 86.1842 59.8528 85.6987 58.6506 85.0282C57.4716 84.3347 56.4081 83.5024 55.4603 82.5314C54.5124 81.5373 53.7263 80.2773 53.1021 78.7515C52.501 77.2025 52.2005 75.5264 52.2005 73.7231C52.2005 71.9199 52.501 70.29 53.1021 68.8335C53.7032 67.3539 54.4661 66.1402 55.3909 65.1923C56.3388 64.2213 57.4138 63.4122 58.616 62.7648C60.8816 61.5164 63.1588 60.8922 65.4476 60.8922C66.5342 60.8922 67.6323 61.0656 68.742 61.4124C69.8748 61.7361 70.7302 62.0713 71.3082 62.4181L72.1405 62.9035C72.5566 63.1579 72.8803 63.3659 73.1115 63.5278C73.7125 64.0133 74.0131 64.5681 74.0131 65.1923C74.0131 65.7934 73.7703 66.4292 73.2848 67.0996C72.3832 68.348 71.5741 68.9722 70.8574 68.9722C70.4412 68.9722 69.8517 68.7179 69.0888 68.2093C68.1178 67.4233 66.8231 67.0303 65.2048 67.0303C63.7021 67.0303 62.2225 67.5504 60.766 68.5908C60.0725 69.0994 59.4945 69.8161 59.0321 70.7408C58.5697 71.6656 58.3385 72.7175 58.3385 73.8965C58.3385 75.0525 58.5697 76.0928 59.0321 77.0176C59.4945 77.9423 60.084 78.6706 60.8007 79.2023C62.2109 80.2195 63.679 80.7281 65.2048 80.7281C65.9215 80.7281 66.592 80.6357 67.2162 80.4507C67.8635 80.2658 68.3259 80.0808 68.6033 79.8959ZM80.9734 86.8315C80.7884 87.2245 80.6382 87.5135 80.5226 87.6985C80.4301 87.8834 80.2567 88.0568 80.0024 88.2186C79.7712 88.4036 79.4591 88.4961 79.0661 88.4961C78.6731 88.4961 78.0951 88.3227 77.3322 87.9759C76.5692 87.6291 76.0491 87.317 75.7717 87.0396C75.5173 86.7853 75.3902 86.4963 75.3902 86.1726C75.3902 85.849 75.5289 85.271 75.8063 84.4387L86.9727 61.1003C87.412 60.2218 87.805 59.7132 88.1518 59.5744C88.3367 59.482 88.6026 59.4357 88.9494 59.4357C89.3193 59.4357 89.9088 59.6207 90.718 59.9906C91.9664 60.5917 92.5906 61.2506 92.5906 61.9672C92.5906 62.2678 92.4287 62.8458 92.1051 63.7011L80.9734 86.8315ZM112.925 72.1973C113.849 72.6597 114.312 73.4688 114.312 74.6248C114.312 75.7807 113.861 76.5783 112.959 77.0176L98.1518 85.8258C96.9728 86.5888 96.0249 86.6697 95.3082 86.0686C94.9845 85.7912 94.6493 85.375 94.3025 84.8202C93.8402 84.0572 93.609 83.5024 93.609 83.1556C93.609 82.8088 93.6783 82.5083 93.817 82.254C94.0713 81.861 94.5684 81.4448 95.3082 81.0056L106.093 74.6248L95.3429 68.244C94.9267 67.9897 94.6146 67.7816 94.4066 67.6198C93.898 67.1805 93.6436 66.7066 93.6436 66.198C93.6436 65.7356 93.8402 65.1807 94.2332 64.5334C94.9499 63.3312 95.6203 62.7302 96.2445 62.7302C96.7994 62.7302 97.4236 62.9498 98.1171 63.389L112.925 72.1973Z" fill="white"/>
<path d="M60.635 42.1517C73.8337 42.1517 84.5334 39.3262 84.5334 35.8409C84.5334 32.3555 73.8337 29.5301 60.635 29.5301C47.4363 29.5301 36.7366 32.3555 36.7366 35.8409C36.7366 39.3262 47.4363 42.1517 60.635 42.1517Z" fill="white"/>
<path fill-rule="evenodd" clip-rule="evenodd" d="M58.2364 28.6105C61.3097 27.4956 64.6601 26.2543 63.7958 23.818C62.1492 19.1769 48.9602 15.8199 52.887 12.3443C54.0253 11.3366 55.284 11.0194 55.4322 9.74707L54.5467 9.9688C45.0762 12.9044 49.1057 15.8458 55.2122 20.4716C59.2825 23.5547 59.6455 24.2059 54.5928 25.675C53.1653 26.0565 52.8236 27.0231 53.8298 27.8338C54.8361 28.6444 56.8089 28.9922 58.2364 28.6106L58.2364 28.6105Z" fill="white"/>
<path fill-rule="evenodd" clip-rule="evenodd" d="M66.6625 18.8637C69.7358 17.7489 73.0862 16.5075 72.2219 14.0714C70.5754 9.43029 57.3863 6.07326 61.313 2.5975C62.4514 1.5899 63.7101 1.27267 63.8582 0.000305176L62.9727 0.222033C53.5023 3.15775 57.5318 6.09912 63.6383 10.7248C67.7085 13.8081 68.0716 14.4592 63.0189 15.9282C61.5913 16.3098 61.2497 17.2764 62.2559 18.087C63.262 18.8977 65.235 19.2455 66.6625 18.8638V18.8637Z" fill="white"/>
</svg>
