<svg width="35" height="35" viewBox="0 0 35 35" fill="none" xmlns="http://www.w3.org/2000/svg">
<path d="M27.7083 5.8335H7.29166C6.13133 5.8335 5.01854 6.29443 4.19806 7.1149C3.37759 7.93538 2.91666 9.04817 2.91666 10.2085V24.7918C2.91666 25.9522 3.37759 27.065 4.19806 27.8854C5.01854 28.7059 6.13133 29.1668 7.29166 29.1668H27.7083C28.8686 29.1668 29.9814 28.7059 30.8019 27.8854C31.6224 27.065 32.0833 25.9522 32.0833 24.7918V10.2085C32.0833 9.04817 31.6224 7.93538 30.8019 7.1149C29.9814 6.29443 28.8686 5.8335 27.7083 5.8335ZM27.7083 8.75016L18.2292 15.2689C18.0075 15.3969 17.756 15.4643 17.5 15.4643C17.244 15.4643 16.9925 15.3969 16.7708 15.2689L7.29166 8.75016H27.7083Z" fill="#FF4A57"/>
</svg>
