<svg width="32" height="27" viewBox="0 0 32 27" fill="none" xmlns="http://www.w3.org/2000/svg">
<path d="M1.75 15.75C2.7165 15.75 3.5 14.7426 3.5 13.5C3.5 12.2574 2.7165 11.25 1.75 11.25C0.783502 11.25 0 12.2574 0 13.5C0 14.7426 0.783502 15.75 1.75 15.75Z" fill="#FF4A57"/>
<path d="M29.855 11.25H8.645C7.73649 11.25 7 12.1969 7 13.365V13.635C7 14.8031 7.73649 15.75 8.645 15.75H29.855C30.7635 15.75 31.5 14.8031 31.5 13.635V13.365C31.5 12.1969 30.7635 11.25 29.855 11.25Z" fill="#FF4A57"/>
<path d="M29.855 22.5H1.645C0.736492 22.5 0 23.4469 0 24.615V24.885C0 26.0531 0.736492 27 1.645 27H29.855C30.7635 27 31.5 26.0531 31.5 24.885V24.615C31.5 23.4469 30.7635 22.5 29.855 22.5Z" fill="#FF4A57"/>
<path d="M29.855 0H1.645C0.736492 0 0 0.946918 0 2.115V2.385C0 3.55308 0.736492 4.5 1.645 4.5H29.855C30.7635 4.5 31.5 3.55308 31.5 2.385V2.115C31.5 0.946918 30.7635 0 29.855 0Z" fill="#FF4A57"/>
</svg>
