<svg width="50" height="50" viewBox="0 0 50 50" fill="none" xmlns="http://www.w3.org/2000/svg">
<path d="M8.68056 15.9723L16.6667 18.2778L25.4444 11.9028L12.8472 12.2639C12.7239 12.2707 12.6043 12.3089 12.5 12.3751L8.51389 14.6667C8.3899 14.7354 8.28937 14.8397 8.2253 14.9662C8.16124 15.0926 8.13659 15.2354 8.15454 15.376C8.17249 15.5166 8.23221 15.6486 8.32599 15.7549C8.41977 15.8612 8.54328 15.9369 8.68056 15.9723Z" fill="#FF4A57"/>
<path d="M47.9444 8.83335L39.1944 6.94446C38.4586 6.7847 37.6969 6.78512 36.9612 6.94568C36.2255 7.10624 35.533 7.42319 34.9305 7.87502L8.49999 27.0833L2.15277 26.8056C1.78921 26.7932 1.43094 26.8954 1.12857 27.0976C0.826202 27.2998 0.594997 27.592 0.467605 27.9327C0.340212 28.2734 0.323069 28.6456 0.418596 28.9966C0.514122 29.3476 0.717492 29.6597 0.99999 29.8889L7.18055 34.7917C7.28229 34.8738 7.4034 34.9284 7.53229 34.9502C7.66117 34.9721 7.79352 34.9606 7.91666 34.9167C9.68054 34.2361 16.25 30.75 24.0139 26.4861L25.5694 42.4722C25.5826 42.6107 25.6334 42.7429 25.7162 42.8546C25.799 42.9664 25.9108 43.0534 26.0394 43.1062C26.1681 43.1591 26.3087 43.1759 26.4461 43.1547C26.5836 43.1336 26.7127 43.0753 26.8194 42.9861L30.2917 40.0972C30.4817 39.9378 30.6096 39.7165 30.6528 39.4722L33.9444 21.0139C39.5 17.9306 44.8055 14.9445 48.5417 12.8333C48.9294 12.6224 49.2429 12.2973 49.4397 11.9022C49.6365 11.5071 49.7071 11.0611 49.6419 10.6245C49.5767 10.1879 49.3789 9.78195 49.0753 9.46157C48.7716 9.14118 48.3769 8.92187 47.9444 8.83335Z" fill="#FF4A57"/>
</svg>
