<svg width="24" height="22" viewBox="0 0 24 22" fill="none" xmlns="http://www.w3.org/2000/svg">
<path d="M24 10.689C24 9.099 22.009 7.592 18.956 6.658C19.661 3.547 19.348 1.071 17.968 0.278C17.6336 0.0907204 17.2552 -0.00354789 16.872 0.005V1.095C17.097 1.095 17.278 1.14 17.43 1.223C18.095 1.605 18.384 3.057 18.159 4.926C18.105 5.386 18.017 5.87 17.909 6.364C16.8866 6.11764 15.849 5.93958 14.803 5.831C14.1799 4.97129 13.5 4.15414 12.768 3.385C14.363 1.903 15.86 1.091 16.878 1.091V0C15.532 0 13.771 0.959 11.99 2.622C10.21 0.97 8.448 0.02 7.103 0.02V1.11C8.116 1.11 9.618 1.918 11.213 3.39C10.528 4.11 9.843 4.926 9.192 5.831C8.14383 5.93837 7.10435 6.11814 6.081 6.369C5.97285 5.90079 5.88775 5.42755 5.826 4.951C5.596 3.081 5.88 1.629 6.541 1.243C6.687 1.155 6.878 1.115 7.103 1.115V0.025C6.693 0.025 6.32 0.113 5.998 0.298C4.623 1.091 4.315 3.561 5.024 6.663C1.981 7.603 0 9.104 0 10.689C0 12.279 1.991 13.786 5.044 14.719C4.339 17.831 4.652 20.307 6.032 21.099C6.35 21.285 6.722 21.373 7.132 21.373C8.478 21.373 10.239 20.414 12.02 18.751C13.8 20.404 15.561 21.353 16.907 21.353C17.2931 21.3612 17.6744 21.2666 18.012 21.079C19.387 20.287 19.695 17.817 18.986 14.715C22.019 13.781 24 12.274 24 10.689ZM17.63 7.426C17.44 8.07986 17.2197 8.72455 16.97 9.358C16.5612 8.56276 16.1123 7.78876 15.625 7.039C16.32 7.142 16.99 7.269 17.631 7.426H17.63ZM15.39 12.636C15.0237 13.2755 14.6304 13.899 14.211 14.505C12.7433 14.6344 11.267 14.636 9.799 14.51C8.95695 13.3072 8.22054 12.0338 7.598 10.704C8.21958 9.3711 8.95287 8.09321 9.79 6.884C11.2574 6.75437 12.7333 6.75236 14.201 6.878C14.607 7.46 15.004 8.082 15.385 8.738C15.757 9.378 16.095 10.028 16.403 10.684C16.0916 11.348 15.7536 11.9991 15.39 12.636V12.636ZM16.97 12C17.234 12.655 17.46 13.311 17.645 13.947C17.005 14.104 16.329 14.236 15.63 14.338C16.1152 13.5814 16.5625 12.8011 16.97 12V12ZM12.01 17.22C11.555 16.75 11.1 16.227 10.65 15.654C11.09 15.674 11.54 15.689 11.995 15.689C12.455 15.689 12.91 15.679 13.355 15.654C12.915 16.227 12.46 16.75 12.01 17.22ZM8.37 14.338C7.69574 14.2403 7.02636 14.1115 6.364 13.952C6.545 13.321 6.77 12.67 7.024 12.02C7.225 12.41 7.436 12.802 7.666 13.194C7.896 13.585 8.13 13.967 8.37 14.338ZM11.985 4.158C12.44 4.628 12.895 5.151 13.345 5.724C12.905 5.704 12.455 5.689 12 5.689C11.54 5.689 11.085 5.699 10.64 5.724C11.08 5.151 11.535 4.628 11.985 4.158ZM8.365 7.04C7.87987 7.79493 7.43265 8.57356 7.025 9.373C6.76821 8.73546 6.54294 8.08567 6.35 7.426C6.99 7.274 7.666 7.142 8.365 7.04ZM3.938 13.164C2.206 12.426 1.086 11.457 1.086 10.689C1.086 9.921 2.206 8.947 3.938 8.214C4.358 8.033 4.818 7.871 5.293 7.72C5.572 8.678 5.939 9.676 6.393 10.699C5.96437 11.6612 5.60186 12.6515 5.308 13.663C4.84345 13.5192 4.38624 13.3526 3.938 13.164V13.164ZM6.57 20.154C5.905 19.774 5.616 18.32 5.841 16.452C5.895 15.992 5.983 15.507 6.091 15.013C7.049 15.248 8.096 15.429 9.197 15.547C9.82018 16.4067 10.5 17.2238 11.232 17.993C9.637 19.475 8.14 20.287 7.122 20.287C6.92994 20.2891 6.74033 20.2438 6.57 20.155V20.154ZM18.174 16.427C18.404 18.296 18.12 19.749 17.459 20.135C17.313 20.223 17.122 20.262 16.897 20.262C15.884 20.262 14.382 19.455 12.787 17.982C13.5159 17.2161 14.1912 16.4008 14.808 15.542C15.8562 15.4346 16.8956 15.2549 17.919 15.004C18.032 15.498 18.119 15.972 18.174 16.427V16.427ZM20.057 13.164C19.637 13.345 19.177 13.507 18.702 13.658C18.403 12.6413 18.0355 11.646 17.602 10.679C18.052 9.662 18.413 8.669 18.687 7.715C19.153 7.85932 19.6119 8.02584 20.062 8.214C21.794 8.952 22.914 9.921 22.914 10.689C22.909 11.457 21.789 12.431 20.057 13.164V13.164Z" fill="white"/>
<path d="M11.995 12.9249C12.5881 12.9249 13.1568 12.6893 13.5761 12.27C13.9955 11.8506 14.231 11.2819 14.231 10.6889C14.231 10.0959 13.9955 9.52712 13.5761 9.10779C13.1568 8.68846 12.5881 8.45288 11.995 8.45288C11.402 8.45288 10.8333 8.68846 10.4139 9.10779C9.99461 9.52712 9.75903 10.0959 9.75903 10.6889C9.75903 11.2819 9.99461 11.8506 10.4139 12.27C10.8333 12.6893 11.402 12.9249 11.995 12.9249V12.9249Z" fill="black"/>
</svg>
