<svg width="41" height="18" viewBox="0 0 41 18" fill="none" xmlns="http://www.w3.org/2000/svg">
<path d="M27.6989 0L27.5708 0.671821C27.3726 1.94502 27.4444 2.30928 27.9876 2.78179L28.5121 3.21821L27.9688 5.65464C27.6443 7.10825 27.2462 8.32646 26.9934 8.7268C26.7764 9.07216 26.5236 9.58075 26.4689 9.85395C26.3784 10.1804 26.0709 10.5086 25.6011 10.799C25.186 11.0361 24.3711 11.6718 23.7937 12.1821C23.3324 12.5997 23.0147 12.8557 22.8421 12.9656L22.2784 13.4141C22.1334 13.6303 22.0244 13.8688 21.9555 14.1203C21.9162 14.3041 21.9384 14.4261 21.9965 14.5155C22.0529 14.6014 22.1502 14.6615 22.2835 14.6993C22.4412 14.7365 22.6036 14.7498 22.7653 14.7388C23.1309 14.7137 23.4929 14.6492 23.8449 14.5464C23.9645 14.5137 24.0585 14.4828 24.1405 14.4553C24.2669 14.299 24.559 14.0034 25.0766 13.4897C26.4501 12.1271 26.9746 11.3814 26.433 11.5825C26.2332 11.6546 26.3237 11.4725 26.6671 11.1082C27.3914 10.3986 27.8065 9.32646 28.6744 5.96392C29.3611 3.30928 29.3611 3.27148 29.8668 3.27148C30.1043 3.27148 30.7756 3.31271 30.7756 3.31271V0H29.2347H27.6989ZM34.2572 5.43814C34.1479 5.43814 33.9668 5.60309 33.8592 5.78522C33.661 6.11168 33.895 6.311 36.8778 8.18385C38.6493 9.31271 40.0775 10.2749 40.0416 10.3488C40.0057 10.4021 38.5588 11.3488 36.8248 12.4399C33.6781 14.4021 33.661 14.421 33.9497 14.8213C34.3119 15.2938 33.9497 15.457 38.0343 12.8935L41 10.9845V9.54811L37.691 7.49313C35.9023 6.36598 34.3477 5.45704 34.2572 5.43814ZM6.77867 5.63917C6.68813 5.63917 5.13354 6.56701 3.34492 7.67526L0 9.73024V11.1667L3.32613 13.2577C5.17113 14.4021 6.72571 15.3488 6.79746 15.3488C6.86921 15.3488 7.01442 15.1838 7.15963 14.9845C7.37658 14.6392 7.19379 14.4931 4.13929 12.5481C1.23 10.7113 0.9225 10.457 1.21292 10.2577C1.394 10.1306 2.7675 9.27491 4.25033 8.3488C7.63112 6.25773 7.45004 6.40206 7.17842 5.96564C7.07079 5.78522 6.888 5.62199 6.78038 5.63917H6.77867ZM21.6138 5.67869C21.115 5.67526 20.0422 6.43986 16.8305 9.07732C16.6921 9.40893 16.6802 9.63746 16.7434 9.78522C16.7844 9.8866 16.8595 9.95704 16.9638 10.0086C17.0663 10.0601 17.1995 10.0911 17.3464 10.1031C17.6385 10.1289 17.9836 10.0825 18.2621 10.0275L18.45 9.98454C18.5143 9.89778 18.5988 9.82817 18.696 9.78179C18.8942 9.67182 19.7261 8.90893 20.5581 8.09106C22.0221 6.59966 22.3655 5.92612 21.7693 5.7079C21.7204 5.68833 21.6682 5.67841 21.6155 5.67869H21.6138ZM25.3653 6.71478C24.9263 6.7268 24.1353 7.23883 22.7806 8.32646C22.1007 8.88144 21.6702 9.18041 21.4396 9.24227L20.5444 9.95361C20.2079 10.5722 20.1583 10.9553 20.2472 11.1667C20.2694 11.2188 20.3017 11.266 20.3421 11.3055C20.3826 11.345 20.4305 11.3761 20.4829 11.3969C20.6134 11.4487 20.7526 11.475 20.8929 11.4742C21.2282 11.4706 21.5615 11.4215 21.8838 11.3282C22.0517 11.2829 22.2176 11.2301 22.3809 11.1701L22.4304 11.1495L22.521 11.1014C22.6918 10.8797 23.0847 10.4622 23.5767 9.9811C25.1313 8.47251 25.9257 7.40034 25.7634 7C25.6899 6.80584 25.5635 6.7079 25.3653 6.71478V6.71478ZM21.2243 8.57045C21.0979 8.58419 20.8143 8.80412 20.3035 9.25429C19.5655 9.91065 18.7609 10.2887 18.4825 10.1203C18.4177 10.135 18.3528 10.1487 18.2877 10.1615C18.0041 10.2182 17.6505 10.2646 17.3345 10.2388C17.1855 10.2298 17.0396 10.1931 16.904 10.1306C16.776 10.0718 16.6739 9.96785 16.617 9.83849C16.5538 9.68385 16.5538 9.49141 16.6255 9.2457L15.5151 10.1632L13.0021 12.2543V15.6443L21.2363 9.12027C21.2347 9.04884 21.2439 8.97758 21.2636 8.90893C21.3268 8.67869 21.3234 8.56186 21.2243 8.57217V8.57045ZM24.7674 9.66838C24.6427 9.66838 24.4343 9.84536 24.1012 10.201C23.6485 10.6873 22.9361 11.1581 22.5585 11.2543L22.5005 11.2852C22.4385 11.311 22.3758 11.335 22.3125 11.3574C22.21 11.3918 22.0768 11.433 21.923 11.4742C21.6155 11.5584 21.2329 11.6357 20.8912 11.6271C20.7301 11.6269 20.5706 11.5954 20.4214 11.5344C20.2808 11.4761 20.1681 11.3652 20.1071 11.2251C20.008 10.9863 20.0473 10.6512 20.2643 10.1753L13.0004 15.9296V18H16.1916L22.96 12.6529C23.136 12.457 23.4007 12.189 23.7578 11.854C24.7145 10.9622 24.9314 10.6546 24.9314 10.1993C24.9314 9.84536 24.8921 9.66667 24.7674 9.66667V9.66838ZM26.3784 13.0189L25.7993 13.5997C25.4747 13.9089 24.8955 14.2904 24.4992 14.4536L24.4206 14.488L24.4155 14.4966L24.3984 14.5137C24.383 14.5258 24.3762 14.5275 24.3643 14.5326C24.206 14.5929 24.0453 14.6462 23.8825 14.6924C23.5205 14.7984 23.1482 14.8647 22.7721 14.89C22.5942 14.9015 22.4157 14.8859 22.2425 14.8436C22.0922 14.8104 21.9595 14.7222 21.8701 14.5962C21.7881 14.4691 21.7642 14.299 21.8103 14.0893C21.847 13.9401 21.9015 13.7959 21.9726 13.6598L16.511 18H23.7749L24.6427 17C25.8351 15.6014 26.3784 14.6014 26.3784 13.7457V13.0189Z" fill="white"/>
</svg>
