<svg width="24" height="15" viewBox="0 0 24 15" fill="none" xmlns="http://www.w3.org/2000/svg">
<path d="M19.8 4.22616C18.9001 3.91621 18.1057 3.35891 17.508 2.61816C16.8493 1.79284 16.0105 1.12912 15.0558 0.677788C14.1011 0.226452 13.0559 -0.000545786 12 0.0141596C10.5796 -0.0864299 9.1735 0.351653 8.06161 1.24117C6.94971 2.13068 6.21365 3.40636 6 4.81416C6.42081 4.11005 7.05415 3.5576 7.80887 3.2363C8.5636 2.915 9.4008 2.84143 10.2 3.02616C11.0984 3.34513 11.8915 3.90568 12.492 4.64616C13.1544 5.46489 13.9947 6.12175 14.9492 6.56675C15.9037 7.01175 16.9471 7.23317 18 7.21416C19.4204 7.31475 20.8265 6.87667 21.9384 5.98715C23.0503 5.09764 23.7864 3.82196 24 2.41416C23.5868 3.12669 22.9555 3.68748 22.1992 4.01376C21.443 4.34004 20.6018 4.4145 19.8 4.22616ZM4.2 10.2022C5.09994 10.5121 5.8943 11.0694 6.492 11.8102C7.15074 12.6355 7.98953 13.2992 8.9442 13.7505C9.89887 14.2019 10.9441 14.4289 12 14.4142C13.4204 14.5147 14.8265 14.0767 15.9384 13.1872C17.0503 12.2976 17.7864 11.022 18 9.61416C17.5792 10.3183 16.9459 10.8707 16.1911 11.192C15.4364 11.5133 14.5992 11.5869 13.8 11.4022C12.9016 11.0832 12.1085 10.5226 11.508 9.78216C10.8439 8.96546 10.0031 8.31004 9.04909 7.86523C8.09504 7.42043 7.05252 7.19782 6 7.21416C4.57964 7.11357 3.1735 7.55165 2.06161 8.44117C0.949714 9.33068 0.21365 10.6064 0 12.0142C0.413168 11.3016 1.04449 10.7408 1.80076 10.4146C2.55703 10.0883 3.39817 10.0138 4.2 10.2022Z" fill="white"/>
</svg>
